SplineFontDB: 3.0
FontName: DEV-MauryaItalic
FullName: DEV Maurya Italic
FamilyName: DEV Maurya
Weight: Book
Copyright: Copyright (c) 2009-2015, NLCI (http://www.nlci.in/fonts/)
Version: 1.0 Fri Sep 29 15:57:06 1995
ItalicAngle: 12
UnderlinePosition: -290
UnderlineWidth: 20
Ascent: 800
Descent: 200
InvalidEm: 0
LayerCount: 2
Layer: 0 0 "Back" 1
Layer: 1 0 "Fore" 0
XUID: [1021 845 243164852 8471592]
FSType: 0
OS2Version: 0
OS2_WeightWidthSlopeOnly: 0
OS2_UseTypoMetrics: 1
CreationTime: 1258090184
ModificationTime: 1433224282
PfmFamily: 81
TTFWeight: 400
TTFWidth: 5
LineGap: 0
VLineGap: 0
Panose: 5 0 0 0 0 0 0 0 0 0
OS2TypoAscent: 44
OS2TypoAOffset: 1
OS2TypoDescent: -184
OS2TypoDOffset: 1
OS2TypoLinegap: 0
OS2WinAscent: -336
OS2WinAOffset: 1
OS2WinDescent: -153
OS2WinDOffset: 1
HheadAscent: -336
HheadAOffset: 1
HheadDescent: 153
HheadDOffset: 1
OS2SubXSize: 700
OS2SubYSize: 650
OS2SubXOff: 0
OS2SubYOff: 143
OS2SupXSize: 700
OS2SupYSize: 650
OS2SupXOff: 0
OS2SupYOff: 453
OS2StrikeYSize: 50
OS2StrikeYPos: 259
OS2Vendor: 'Alts'
OS2UnicodeRanges: 00000000.00000000.00000000.00000000
Lookup: 1 0 0 "Wide I-matra" { "Wide I-matra-1"  } []
Lookup: 1 0 0 "'nukt' Nukta Forms in Devanagari lookup 6" { "'locl' Local Forms in Devanagari lookup 6-1"  } ['nukt' ('deva' <'NEP ' > ) ]
Lookup: 4 0 0 "'akhn' Akhand in Devanagari lookup 0" { "'akhn' Akhand in Devanagari lookup 0 subtable"  } ['akhn' ('deva' <'HIN ' 'NEP ' 'dflt' > ) ]
Lookup: 4 0 0 "'rphf' Reph Form in Devanagari lookup 1" { "'rphf' Reph Form in Devanagari lookup 1 subtable"  } ['rphf' ('deva' <'HIN ' 'NEP ' 'dflt' > ) ]
Lookup: 4 0 0 "'blwf' Below Base Forms in Devanagari lookup 2" { "'blwf' Below Base Forms in Devanagari lookup 2 subtable"  } ['blwf' ('deva' <'HIN ' 'NEP ' 'dflt' > ) ]
Lookup: 4 8 0 "'half' Half Forms in Devanagari lookup 3" { "'half' Half Forms in Devanagari lookup 3 subtable"  } ['half' ('deva' <'HIN ' 'NEP ' 'dflt' > ) ]

StartChar: .notdef
Encoding: 65536 -1 0
Width: 1024
Flags: HW
LayerCount: 2
Back
Fore
SplineSet
64 0 m 1
 64 1383 l 1
 960 1383 l 1
 960 0 l 1
 64 0 l 1
896 64 m 1
 896 1319 l 1
 128 1319 l 1
 128 64 l 1
 896 64 l 1
EndSplineSet
EndChar

StartChar: quotedbl
Encoding: 34 34 3
Width: 339
VWidth: 1024
GlyphClass: 2
Flags: HW
LayerCount: 2
Back
Fore
SplineSet
220 692 m 0
 220 688.333007812 218.166992188 680.083007812 214.5 667.25 c 128
 210.833007812 654.416992188 206.083007812 639.083007812 200.25 621.25 c 128
 194.416992188 603.416992188 188.083007812 584.416992188 181.25 564.25 c 128
 174.416992188 544.083007812 167.916992188 525 161.75 507 c 128
 155.583007812 489 150 473.166992188 145 459.5 c 128
 140 445.833007812 136.666992188 436.666992188 135 432 c 1
 102.5 432 l 1
 115.5 660.5 l 2
 116.166992188 670.833007812 117.666992188 680.25 120 688.75 c 128
 122.333007812 697.25 125.833007812 704.666992188 130.5 711 c 128
 135.166992188 717.333007812 141.333007812 722.25 149 725.75 c 128
 156.666992188 729.25 166.333007812 731 178 731 c 256
 189.666992188 731 199.583007812 727.666992188 207.75 721 c 128
 215.916992188 714.333007812 220 704.666992188 220 692 c 0
385 692 m 0
 385 688.333007812 383.083007812 680.083007812 379.25 667.25 c 128
 375.416992188 654.416992188 370.583007812 639.083007812 364.75 621.25 c 128
 358.916992188 603.416992188 352.583007812 584.416992188 345.75 564.25 c 128
 338.916992188 544.083007812 332.25 525 325.75 507 c 128
 319.25 489 313.583007812 473.166992188 308.75 459.5 c 128
 303.916992188 445.833007812 300.666992188 436.666992188 299 432 c 1
 266 432 l 1
 278.5 660.5 l 2
 279.166992188 670.833007812 280.75 680.25 283.25 688.75 c 128
 285.75 697.25 289.416992188 704.666992188 294.25 711 c 128
 299.083007812 717.333007812 305.333007812 722.25 313 725.75 c 128
 320.666992188 729.25 330.333007812 731 342 731 c 0
 354.333007812 731 364.583007812 727.666992188 372.75 721 c 128
 380.916992188 714.333007812 385 704.666992188 385 692 c 0
EndSplineSet
EndChar

StartChar: numbersign
Encoding: 35 35 4
Width: 761
VWidth: 1024
GlyphClass: 2
Flags: HW
LayerCount: 2
Back
Fore
SplineSet
346 431 m 1
 297 284.5 l 1
 445.5 284.5 l 1
 494.5 431 l 1
 346 431 l 1
552 431 m 1
 503 284.5 l 1
 667.5 284.5 l 1
 667.5 233.5 l 1
 485.5 233.5 l 1
 398.5 -23.5 l 1
 347 -7 l 1
 428 233.5 l 1
 279.5 233.5 l 1
 192.5 -23.5 l 1
 141.5 -6 l 1
 223 233.5 l 1
 78 233.5 l 1
 78 284.5 l 1
 239.5 284.5 l 1
 290 431 l 1
 125 431 l 1
 125 483.5 l 1
 307 483.5 l 1
 389 725 l 1
 441.5 708.5 l 1
 363.5 483.5 l 1
 513 483.5 l 1
 594 725 l 1
 647 708.5 l 1
 569.5 483.5 l 1
 712.5 483.5 l 1
 712.5 431 l 1
 552 431 l 1
EndSplineSet
EndChar

StartChar: dollar
Encoding: 36 36 5
Width: 569
VWidth: 1024
GlyphClass: 2
Flags: HW
LayerCount: 2
Back
Fore
SplineSet
381 185.5 m 0
 381 207.5 375.166992188 227.083007812 363.5 244.25 c 128
 351.833007812 261.416992188 333.333007812 275.833007812 308 287.5 c 1
 263 56.5 l 1
 301.333007812 65.8330078125 330.583007812 81.6669921875 350.75 104 c 128
 370.916992188 126.333007812 381 153.5 381 185.5 c 0
313.5 634 m 1
 297.166992188 629 282.333007812 622.583007812 269 614.75 c 128
 255.666992188 606.916992188 244.25 597.75 234.75 587.25 c 128
 225.25 576.75 217.916992188 565 212.75 552 c 128
 207.583007812 539 205 525 205 510 c 0
 205 487 210.666992188 467.5 222 451.5 c 128
 233.333007812 435.5 249.5 422.166992188 270.5 411.5 c 1
 313.5 634 l 1
500.5 505 m 1
 440.5 505 l 1
 445.5 605 l 2
 445.5 607.333007812 444.166992188 610.25 441.5 613.75 c 128
 438.833007812 617.25 436.333007812 619.5 434 620.5 c 0
 433.333007812 620.833007812 431.25 621.833007812 427.75 623.5 c 128
 424.25 625.166992188 419.833007812 626.916992188 414.5 628.75 c 128
 409.166992188 630.583007812 402.916992188 632.416992188 395.75 634.25 c 128
 388.583007812 636.083007812 380.833007812 637.333007812 372.5 638 c 1
 324.5 384 l 1
 347.166992188 376.666992188 368.5 367.666992188 388.5 357 c 128
 408.5 346.333007812 425.916992188 334 440.75 320 c 128
 455.583007812 306 467.25 290.083007812 475.75 272.25 c 128
 484.25 254.416992188 488.5 234.666992188 488.5 213 c 0
 488.5 186.666992188 484.25 163.25 475.75 142.75 c 128
 467.25 122.25 456.083007812 104.25 442.25 88.75 c 128
 428.416992188 73.25 412.833007812 60.1669921875 395.5 49.5 c 128
 378.166992188 38.8330078125 360.666992188 30 343 23 c 128
 325.333007812 16 308.416992188 10.75 292.25 7.25 c 128
 276.083007812 3.75 262.333007812 1.6669921875 251 1 c 1
 231.5 -104.5 l 1
 171 -104.5 l 1
 190.5 0 l 1
 172.5 1 155.666992188 2.6669921875 140 5 c 128
 124.333007812 7.3330078125 109.5 10.3330078125 95.5 14 c 128
 81.5 17.6669921875 67.8330078125 22.0830078125 54.5 27.25 c 128
 41.1669921875 32.4169921875 27.8330078125 38.3330078125 14.5 45 c 1
 47 206 l 1
 115.5 206 l 1
 106.5 88 l 2
 106.5 85.3330078125 107.25 83.3330078125 108.75 82 c 128
 110.25 80.6669921875 111.833007812 79.6669921875 113.5 79 c 0
 114.833007812 78.3330078125 118.25 76.75 123.75 74.25 c 128
 129.25 71.75 136 69 144 66 c 128
 152 63 160.916992188 60.1669921875 170.75 57.5 c 128
 180.583007812 54.8330078125 190.833007812 53 201.5 52 c 1
 252 313.5 l 1
 230.333007812 322.5 210.416992188 332.666992188 192.25 344 c 128
 174.083007812 355.333007812 158.333007812 367.916992188 145 381.75 c 128
 131.666992188 395.583007812 121.25 410.833007812 113.75 427.5 c 128
 106.25 444.166992188 102.5 462.5 102.5 482.5 c 0
 102.5 511.5 108.583007812 537.833007812 120.75 561.5 c 128
 132.916992188 585.166992188 149.166992188 605.583007812 169.5 622.75 c 128
 189.833007812 639.916992188 213.333007812 653.75 240 664.25 c 128
 266.666992188 674.75 294.5 681.333007812 323.5 684 c 1
 338 761 l 1
 396.5 761 l 1
 384 687 l 1
 400.666992188 686.333007812 417 684.666992188 433 682 c 128
 449 679.333007812 463.75 676.416992188 477.25 673.25 c 128
 490.75 670.083007812 502.5 667 512.5 664 c 128
 522.5 661 529.5 658.833007812 533.5 657.5 c 1
 500.5 505 l 1
EndSplineSet
EndChar

StartChar: percent
Encoding: 37 37 6
Width: 880
VWidth: 1024
GlyphClass: 2
Flags: HW
LayerCount: 2
Back
Fore
SplineSet
322.5 580.5 m 0
 322.5 589.5 321.916992188 598.916992188 320.75 608.75 c 128
 319.583007812 618.583007812 317.083007812 627.666992188 313.25 636 c 128
 309.416992188 644.333007812 304 651.166992188 297 656.5 c 128
 290 661.833007812 280.833007812 664.5 269.5 664.5 c 0
 253.833007812 664.5 239.833007812 659.583007812 227.5 649.75 c 128
 215.166992188 639.916992188 204.333007812 627.083007812 195 611.25 c 128
 185.666992188 595.416992188 177.666992188 577.666992188 171 558 c 128
 164.333007812 538.333007812 158.916992188 518.75 154.75 499.25 c 128
 150.583007812 479.75 147.5 461.25 145.5 443.75 c 128
 143.5 426.25 142.5 411.833007812 142.5 400.5 c 0
 142.5 391.166992188 143.25 381.333007812 144.75 371 c 128
 146.25 360.666992188 149 351.166992188 153 342.5 c 128
 157 333.833007812 162.666992188 326.666992188 170 321 c 128
 177.333007812 315.333007812 186.833007812 312.5 198.5 312.5 c 0
 213.833007812 312.5 227.5 317.583007812 239.5 327.75 c 128
 251.5 337.916992188 262.083007812 351 271.25 367 c 128
 280.416992188 383 288.25 401 294.75 421 c 128
 301.25 441 306.583007812 461 310.75 481 c 128
 314.916992188 501 317.916992188 519.75 319.75 537.25 c 128
 321.583007812 554.75 322.5 569.166992188 322.5 580.5 c 0
766 291 m 0
 766 300 765.333007812 309.416992188 764 319.25 c 128
 762.666992188 329.083007812 760.083007812 338.083007812 756.25 346.25 c 128
 752.416992188 354.416992188 746.916992188 361.25 739.75 366.75 c 128
 732.583007812 372.25 723.166992188 375 711.5 375 c 0
 696.166992188 375 682.416992188 370.083007812 670.25 360.25 c 128
 658.083007812 350.416992188 647.333007812 337.583007812 638 321.75 c 128
 628.666992188 305.916992188 620.666992188 288.166992188 614 268.5 c 128
 607.333007812 248.833007812 601.916992188 229.166992188 597.75 209.5 c 128
 593.583007812 189.833007812 590.5 171.25 588.5 153.75 c 128
 586.5 136.25 585.5 121.833007812 585.5 110.5 c 0
 585.5 101.166992188 586.166992188 91.3330078125 587.5 81 c 128
 588.833007812 70.6669921875 591.5 61.0830078125 595.5 52.25 c 128
 599.5 43.4169921875 605.166992188 36.0830078125 612.5 30.25 c 128
 619.833007812 24.4169921875 629.333007812 21.5 641 21.5 c 0
 656 21.5 669.583007812 26.5830078125 681.75 36.75 c 128
 693.916992188 46.9169921875 704.583007812 60.0830078125 713.75 76.25 c 128
 722.916992188 92.4169921875 730.833007812 110.583007812 737.5 130.75 c 128
 744.166992188 150.916992188 749.583007812 171 753.75 191 c 128
 757.916992188 211 761 229.833007812 763 247.5 c 128
 765 265.166992188 766 279.666992188 766 291 c 0
398.5 561 m 0
 398.5 541 396.666992188 520.083007812 393 498.25 c 128
 389.333007812 476.416992188 383.666992188 454.833007812 376 433.5 c 128
 368.333007812 412.166992188 358.833007812 391.833007812 347.5 372.5 c 128
 336.166992188 353.166992188 322.75 336.166992188 307.25 321.5 c 128
 291.75 306.833007812 274.333007812 295.166992188 255 286.5 c 128
 235.666992188 277.833007812 214.166992188 273.5 190.5 273.5 c 0
 168.833007812 273.5 150.25 277.25 134.75 284.75 c 128
 119.25 292.25 106.583007812 302.5 96.75 315.5 c 128
 86.9169921875 328.5 79.75 343.75 75.25 361.25 c 128
 70.75 378.75 68.5 397.333007812 68.5 417 c 0
 68.5 437 70.4169921875 457.916992188 74.25 479.75 c 128
 78.0830078125 501.583007812 83.75 523.083007812 91.25 544.25 c 128
 98.75 565.416992188 108.25 585.666992188 119.75 605 c 128
 131.25 624.333007812 144.75 641.25 160.25 655.75 c 128
 175.75 670.25 193.25 681.833007812 212.75 690.5 c 128
 232.25 699.166992188 253.833007812 703.5 277.5 703.5 c 0
 299.166992188 703.5 317.666992188 699.75 333 692.25 c 128
 348.333007812 684.75 360.833007812 674.583007812 370.5 661.75 c 128
 380.166992188 648.916992188 387.25 633.833007812 391.75 616.5 c 128
 396.25 599.166992188 398.5 580.666992188 398.5 561 c 0
200.5 0 m 1
 136 0 l 1
 709.5 687 l 1
 773 687 l 1
 200.5 0 l 1
840.5 271.5 m 0
 840.5 251.5 838.666992188 230.5 835 208.5 c 128
 831.333007812 186.5 825.666992188 164.833007812 818 143.5 c 128
 810.333007812 122.166992188 800.833007812 101.833007812 789.5 82.5 c 128
 778.166992188 63.1669921875 764.833007812 46.1669921875 749.5 31.5 c 128
 734.166992188 16.8330078125 716.75 5.1669921875 697.25 -3.5 c 128
 677.75 -12.1669921875 656.333007812 -16.5 633 -16.5 c 0
 611.333007812 -16.5 592.833007812 -12.75 577.5 -5.25 c 128
 562.166992188 2.25 549.666992188 12.5 540 25.5 c 128
 530.333007812 38.5 523.25 53.75 518.75 71.25 c 128
 514.25 88.75 512 107.333007812 512 127 c 0
 512 147 513.833007812 168 517.5 190 c 128
 521.166992188 212 526.833007812 233.583007812 534.5 254.75 c 128
 542.166992188 275.916992188 551.666992188 296.083007812 563 315.25 c 128
 574.333007812 334.416992188 587.75 351.25 603.25 365.75 c 128
 618.75 380.25 636.166992188 391.833007812 655.5 400.5 c 128
 674.833007812 409.166992188 696.333007812 413.5 720 413.5 c 0
 741.666992188 413.5 760.166992188 409.75 775.5 402.25 c 128
 790.833007812 394.75 803.333007812 384.583007812 813 371.75 c 128
 822.666992188 358.916992188 829.666992188 343.916992188 834 326.75 c 128
 838.333007812 309.583007812 840.5 291.166992188 840.5 271.5 c 0
EndSplineSet
EndChar

StartChar: ampersand
Encoding: 38 38 7
Width: 721
VWidth: 1024
GlyphClass: 2
Flags: HW
LayerCount: 2
Back
Fore
SplineSet
216 336 m 1
 186.666992188 317 163.5 295.5 146.5 271.5 c 128
 129.5 247.5 121 219.833007812 121 188.5 c 0
 121 167.833007812 124.5 149.166992188 131.5 132.5 c 128
 138.5 115.833007812 147.833007812 101.666992188 159.5 90 c 128
 171.166992188 78.3330078125 184.666992188 69.25 200 62.75 c 128
 215.333007812 56.25 231.333007812 53 248 53 c 0
 260 53 271.416992188 54.0830078125 282.25 56.25 c 128
 293.083007812 58.4169921875 304 61.8330078125 315 66.5 c 128
 326 71.1669921875 337.25 77.0830078125 348.75 84.25 c 128
 360.25 91.4169921875 372.666992188 99.8330078125 386 109.5 c 1
 216 336 l 1
418 556 m 0
 418 568 416.333007812 579.666992188 413 591 c 128
 409.666992188 602.333007812 404.75 612.333007812 398.25 621 c 128
 391.75 629.666992188 383.666992188 636.666992188 374 642 c 128
 364.333007812 647.333007812 353.333007812 650 341 650 c 256
 328.666992188 650 315.75 647.666992188 302.25 643 c 128
 288.75 638.333007812 276.333007812 631.333007812 265 622 c 128
 253.666992188 612.666992188 244.25 600.916992188 236.75 586.75 c 128
 229.25 572.583007812 225.5 555.833007812 225.5 536.5 c 0
 225.5 524.166992188 227.166992188 511.916992188 230.5 499.75 c 128
 233.833007812 487.583007812 238.166992188 475.75 243.5 464.25 c 128
 248.833007812 452.75 254.916992188 441.75 261.75 431.25 c 128
 268.583007812 420.75 275.5 411.166992188 282.5 402.5 c 1
 302.5 410.5 320.833007812 419.333007812 337.5 429 c 128
 354.166992188 438.666992188 368.416992188 449.666992188 380.25 462 c 128
 392.083007812 474.333007812 401.333007812 488.166992188 408 503.5 c 128
 414.666992188 518.833007812 418 536.333007812 418 556 c 0
615.5 315.5 m 1
 601.166992188 285.166992188 582.916992188 254 560.75 222 c 128
 538.583007812 190 514.5 160 488.5 132 c 1
 500.166992188 116 511.666992188 102.583007812 523 91.75 c 128
 534.333007812 80.9169921875 546.333007812 72.1669921875 559 65.5 c 128
 571.666992188 58.8330078125 585.666992188 54 601 51 c 128
 616.333007812 48 633.833007812 46.3330078125 653.5 46 c 1
 653.5 1 l 1
 636.833007812 0.3330078125 622.583007812 -0.3330078125 610.75 -1 c 128
 598.916992188 -1.6669921875 588.166992188 -2.3330078125 578.5 -3 c 0
 567.833007812 -3.6669921875 557.416992188 -3.8330078125 547.25 -3.5 c 128
 537.083007812 -3.1669921875 527.333007812 -2 518 0 c 1
 509.666992188 1.3330078125 501.583007812 3.5830078125 493.75 6.75 c 128
 485.916992188 9.9169921875 478.083007812 14.1669921875 470.25 19.5 c 128
 462.416992188 24.8330078125 454.333007812 31.5 446 39.5 c 128
 437.666992188 47.5 429 57.1669921875 420 68.5 c 1
 405 57.1669921875 389.333007812 46.6669921875 373 37 c 128
 356.666992188 27.3330078125 339.333007812 18.9169921875 321 11.75 c 128
 302.666992188 4.5830078125 283.166992188 -1.0830078125 262.5 -5.25 c 128
 241.833007812 -9.4169921875 219.5 -11.5 195.5 -11.5 c 0
 169.833007812 -11.5 145.916992188 -7.6669921875 123.75 0 c 128
 101.583007812 7.6669921875 82.25 18.8330078125 65.75 33.5 c 128
 49.25 48.1669921875 36.25 66 26.75 87 c 128
 17.25 108 12.5 131.833007812 12.5 158.5 c 0
 12.5 183.833007812 17.0830078125 207.083007812 26.25 228.25 c 128
 35.4169921875 249.416992188 48 268.916992188 64 286.75 c 128
 80 304.583007812 98.6669921875 320.833007812 120 335.5 c 128
 141.333007812 350.166992188 164.166992188 363.666992188 188.5 376 c 1
 180.833007812 386.666992188 173.583007812 397.333007812 166.75 408 c 128
 159.916992188 418.666992188 154 429.416992188 149 440.25 c 128
 144 451.083007812 140.083007812 462.166992188 137.25 473.5 c 128
 134.416992188 484.833007812 133 496.666992188 133 509 c 0
 133 536.666992188 138.833007812 562.166992188 150.5 585.5 c 128
 162.166992188 608.833007812 178.166992188 629 198.5 646 c 128
 218.833007812 663 242.916992188 676.333007812 270.75 686 c 128
 298.583007812 695.666992188 328.833007812 700.5 361.5 700.5 c 0
 389.5 700.5 413.333007812 696.666992188 433 689 c 128
 452.666992188 681.333007812 468.833007812 671.083007812 481.5 658.25 c 128
 494.166992188 645.416992188 503.416992188 630.916992188 509.25 614.75 c 128
 515.083007812 598.583007812 518 582 518 565 c 0
 518 540.333007812 512.916992188 518.166992188 502.75 498.5 c 128
 492.583007812 478.833007812 478.333007812 461 460 445 c 128
 441.666992188 429 419.75 414.666992188 394.25 402 c 128
 368.75 389.333007812 340.833007812 377.833007812 310.5 367.5 c 1
 454.5 177 l 1
 472.166992188 196.666992188 487.666992188 217.666992188 501 240 c 128
 514.333007812 262.333007812 525.166992188 282.333007812 533.5 300 c 0
 533.833007812 300.666992188 533.5 301.833007812 532.5 303.5 c 128
 531.5 305.166992188 530.416992188 306.833007812 529.25 308.5 c 128
 528.083007812 310.166992188 526.916992188 311.583007812 525.75 312.75 c 128
 524.583007812 313.916992188 523.833007812 314.5 523.5 314.5 c 2
 471 323.5 l 1
 471 370.5 l 1
 689 370.5 l 1
 689 323.5 l 1
 615.5 315.5 l 1
EndSplineSet
EndChar

StartChar: quotesingle
Encoding: 39 39 8
Width: 174
VWidth: 1024
GlyphClass: 2
Flags: HW
LayerCount: 2
Back
Fore
SplineSet
225.5 692 m 0
 225.5 688.333007812 223.5 680.083007812 219.5 667.25 c 128
 215.5 654.416992188 210.5 639.083007812 204.5 621.25 c 128
 198.5 603.416992188 191.916992188 584.416992188 184.75 564.25 c 128
 177.583007812 544.083007812 170.666992188 525 164 507 c 128
 157.333007812 489 151.416992188 473.166992188 146.25 459.5 c 128
 141.083007812 445.833007812 137.666992188 436.666992188 136 432 c 1
 102.5 432 l 1
 115.5 660.5 l 1
 116.5 670.833007812 118.25 680.25 120.75 688.75 c 128
 123.25 697.25 127 704.666992188 132 711 c 128
 137 717.333007812 143.5 722.25 151.5 725.75 c 128
 159.5 729.25 169.333007812 731 181 731 c 0
 194 731 204.666992188 727.666992188 213 721 c 128
 221.333007812 714.333007812 225.5 704.666992188 225.5 692 c 0
EndSplineSet
EndChar

StartChar: asterisk
Encoding: 42 42 9
Width: 512
VWidth: 1024
GlyphClass: 2
Flags: HW
LayerCount: 2
Back
Fore
SplineSet
268.5 371.5 m 1
 196.5 345 l 1
 198.5 421 l 1
 302 504 l 1
 315.5 494.5 l 1
 268.5 371.5 l 1
299 518 m 1
 166 525.5 l 1
 120 583.5 l 1
 191.5 605 l 1
 302 532.5 l 1
 299 518 l 1
374 371.5 m 1
 326.5 494.5 l 1
 340 504 l 1
 443.5 421 l 1
 445.5 345 l 1
 374 371.5 l 1
327.5 542.5 m 1
 314.5 542.5 l 1
 278.5 670.5 l 1
 320.5 733 l 1
 363.5 670.5 l 1
 327.5 542.5 l 1
476 525.5 m 1
 344 518 l 1
 340 532.5 l 1
 449.5 605 l 1
 522 583.5 l 1
 476 525.5 l 1
EndSplineSet
EndChar

StartChar: plus
Encoding: 43 43 10
Width: 1024
VWidth: 1024
GlyphClass: 2
Flags: HW
LayerCount: 2
Back
Fore
SplineSet
543.5 275.5 m 1
 543.5 0 l 1
 480.5 0 l 1
 480.5 275.5 l 1
 205 275.5 l 1
 205 339 l 1
 480.5 339 l 1
 480.5 614.5 l 1
 543.5 614.5 l 1
 543.5 339 l 1
 819 339 l 1
 819 275.5 l 1
 543.5 275.5 l 1
EndSplineSet
EndChar

StartChar: less
Encoding: 60 60 11
Width: 1024
VWidth: 1024
GlyphClass: 2
Flags: HW
LayerCount: 2
Back
Fore
SplineSet
205 275.5 m 1
 205 339 l 1
 819 574.5 l 1
 819 511 l 1
 270.5 307 l 1
 819 103.5 l 1
 819 40 l 1
 205 275.5 l 1
EndSplineSet
EndChar

StartChar: equal
Encoding: 61 61 12
Width: 1024
VWidth: 1024
GlyphClass: 2
Flags: HW
LayerCount: 2
Back
Fore
SplineSet
205 182.5 m 1
 205 246 l 1
 819 246 l 1
 819 182.5 l 1
 205 182.5 l 1
205 368.5 m 1
 205 432 l 1
 819 432 l 1
 819 368.5 l 1
 205 368.5 l 1
EndSplineSet
EndChar

StartChar: greater
Encoding: 62 62 13
Width: 1024
VWidth: 1024
GlyphClass: 2
Flags: HW
LayerCount: 2
Back
Fore
SplineSet
205 40 m 1
 205 103.5 l 1
 753.5 307 l 1
 205 511 l 1
 205 574.5 l 1
 819 339 l 1
 819 275.5 l 1
 205 40 l 1
EndSplineSet
EndChar

StartChar: at
Encoding: 64 64 14
Width: 958
VWidth: 1024
GlyphClass: 2
Flags: HW
LayerCount: 2
Back
Fore
SplineSet
608.5 402.5 m 2
 609.5 406.833007812 608.583007812 412.333007812 605.75 419 c 128
 602.916992188 425.666992188 598.75 432.083007812 593.25 438.25 c 128
 587.75 444.416992188 581.083007812 449.75 573.25 454.25 c 128
 565.416992188 458.75 557 461 548 461 c 0
 522.666992188 461 499.833007812 455.083007812 479.5 443.25 c 128
 459.166992188 431.416992188 441.833007812 415.25 427.5 394.75 c 128
 413.166992188 374.25 402.166992188 350.25 394.5 322.75 c 128
 386.833007812 295.25 383 265.833007812 383 234.5 c 0
 383 197.5 389.833007812 169.833007812 403.5 151.5 c 128
 417.166992188 133.166992188 437 124 463 124 c 0
 474.333007812 124 485.166992188 126.25 495.5 130.75 c 128
 505.833007812 135.25 515.416992188 140.833007812 524.25 147.5 c 128
 533.083007812 154.166992188 541.166992188 161.333007812 548.5 169 c 128
 555.833007812 176.666992188 562.166992188 183.833007812 567.5 190.5 c 1
 608.5 402.5 l 2
895 382 m 0
 895 347.333007812 891.166992188 315.25 883.5 285.75 c 128
 875.833007812 256.25 865.583007812 229.5 852.75 205.5 c 128
 839.916992188 181.5 825 160.25 808 141.75 c 128
 791 123.25 773.166992188 107.75 754.5 95.25 c 128
 735.833007812 82.75 717 73.3330078125 698 67 c 128
 679 60.6669921875 661 57.5 644 57.5 c 0
 615.666992188 57.5 595.25 64.5830078125 582.75 78.75 c 128
 570.25 92.9169921875 564 114.166992188 564 142.5 c 1
 537.333007812 115.5 512.166992188 94.75 488.5 80.25 c 128
 464.833007812 65.75 441 58.5 417 58.5 c 0
 398.333007812 58.5 381.166992188 62.4169921875 365.5 70.25 c 128
 349.833007812 78.0830078125 336.333007812 89.25 325 103.75 c 128
 313.666992188 118.25 304.833007812 135.75 298.5 156.25 c 128
 292.166992188 176.75 289 199.833007812 289 225.5 c 0
 289 264.5 296.166992188 301 310.5 335 c 128
 324.833007812 369 343.833007812 398.5 367.5 423.5 c 128
 391.166992188 448.5 418.166992188 468.166992188 448.5 482.5 c 128
 478.833007812 496.833007812 510.166992188 504 542.5 504 c 0
 549.833007812 504 557.833007812 503.333007812 566.5 502 c 128
 575.166992188 500.666992188 583.916992188 498.75 592.75 496.25 c 128
 601.583007812 493.75 610.333007812 490.75 619 487.25 c 128
 627.666992188 483.75 635.666992188 480 643 476 c 1
 661.5 499.5 l 1
 720 499.5 l 1
 719.333007812 497.5 717.833007812 491.583007812 715.5 481.75 c 128
 713.166992188 471.916992188 710.25 459.75 706.75 445.25 c 128
 703.25 430.75 699.416992188 414.416992188 695.25 396.25 c 128
 691.083007812 378.083007812 686.833007812 359.833007812 682.5 341.5 c 0
 672.5 298.166992188 661.333007812 249.5 649 195.5 c 0
 646.333007812 183.833007812 645 173.083007812 645 163.25 c 128
 645 153.416992188 646.5 145 649.5 138 c 128
 652.5 131 657.083007812 125.5 663.25 121.5 c 128
 669.416992188 117.5 677.333007812 115.5 687 115.5 c 0
 697 115.5 707.916992188 118.25 719.75 123.75 c 128
 731.583007812 129.25 743.333007812 137.333007812 755 148 c 128
 766.666992188 158.666992188 777.916992188 171.666992188 788.75 187 c 128
 799.583007812 202.333007812 809.166992188 219.833007812 817.5 239.5 c 128
 825.833007812 259.166992188 832.5 280.916992188 837.5 304.75 c 128
 842.5 328.583007812 845 354 845 381 c 0
 845 413 841.25 442.25 833.75 468.75 c 128
 826.25 495.25 815.833007812 518.916992188 802.5 539.75 c 128
 789.166992188 560.583007812 773.416992188 578.666992188 755.25 594 c 128
 737.083007812 609.333007812 717.333007812 622.083007812 696 632.25 c 128
 674.666992188 642.416992188 652.166992188 650 628.5 655 c 128
 604.833007812 660 581 662.5 557 662.5 c 0
 518 662.5 481.083007812 657.916992188 446.25 648.75 c 128
 411.416992188 639.583007812 379.25 626.583007812 349.75 609.75 c 128
 320.25 592.916992188 293.583007812 572.5 269.75 548.5 c 128
 245.916992188 524.5 225.75 497.666992188 209.25 468 c 128
 192.75 438.333007812 180 406.25 171 371.75 c 128
 162 337.25 157.5 301 157.5 263 c 0
 157.5 211 165.583007812 162.5 181.75 117.5 c 128
 197.916992188 72.5 221.333007812 33.5 252 0.5 c 128
 282.666992188 -32.5 320.166992188 -58.4169921875 364.5 -77.25 c 128
 408.833007812 -96.0830078125 459.333007812 -105.5 516 -105.5 c 0
 546 -105.5 574.083007812 -103.166992188 600.25 -98.5 c 128
 626.416992188 -93.8330078125 650.75 -87.8330078125 673.25 -80.5 c 128
 695.75 -73.1669921875 716.5 -65 735.5 -56 c 128
 754.5 -47 771.833007812 -38.1669921875 787.5 -29.5 c 1
 802 -66.5 l 1
 779 -78.8330078125 755.416992188 -90.4169921875 731.25 -101.25 c 128
 707.083007812 -112.083007812 682.25 -121.583007812 656.75 -129.75 c 128
 631.25 -137.916992188 604.75 -144.416992188 577.25 -149.25 c 128
 549.75 -154.083007812 521.166992188 -156.5 491.5 -156.5 c 0
 454.833007812 -156.5 419.416992188 -152.333007812 385.25 -144 c 128
 351.083007812 -135.666992188 318.916992188 -123.583007812 288.75 -107.75 c 128
 258.583007812 -91.9169921875 231 -72.4169921875 206 -49.25 c 128
 181 -26.0830078125 159.583007812 0.3330078125 141.75 30 c 128
 123.916992188 59.6669921875 110 92.5 100 128.5 c 128
 90 164.5 85 203.166992188 85 244.5 c 0
 85 295.166992188 91.0830078125 341.75 103.25 384.25 c 128
 115.416992188 426.75 132.166992188 465.166992188 153.5 499.5 c 128
 174.833007812 533.833007812 200.083007812 564 229.25 590 c 128
 258.416992188 616 290.083007812 637.666992188 324.25 655 c 128
 358.416992188 672.333007812 394.25 685.416992188 431.75 694.25 c 128
 469.25 703.083007812 507 707.5 545 707.5 c 0
 595.666992188 707.5 642.416992188 700.416992188 685.25 686.25 c 128
 728.083007812 672.083007812 765 651.25 796 623.75 c 128
 827 596.25 851.25 562.25 868.75 521.75 c 128
 886.25 481.25 895 434.666992188 895 382 c 0
EndSplineSet
EndChar

StartChar: A
Encoding: 65 65 15
Width: 689
VWidth: 1024
GlyphClass: 2
Flags: HW
LayerCount: 2
Back
Fore
SplineSet
383 577.5 m 1
 231.5 311.5 l 1
 427 311.5 l 1
 383 577.5 l 1
400.5 0 m 1
 400.5 43 l 1
 447.5 48 l 1
 462.5 50 469 56.5 467 67.5 c 2
 436 263 l 1
 204 263 l 1
 99.5 67.5 l 2
 95.8330078125 60.8330078125 95.75 56.1669921875 99.25 53.5 c 128
 102.75 50.8330078125 109.333007812 49 119 48 c 2
 166 43 l 1
 166 0 l 1
 -54.5 0 l 1
 -54.5 43 l 1
 3 49 l 1
 381 703.5 l 1
 463 703.5 l 1
 573.5 67.5 l 2
 574.5 60.8330078125 576.333007812 56.0830078125 579 53.25 c 128
 581.666992188 50.4169921875 586.666992188 48.6669921875 594 48 c 2
 641 43 l 1
 641 0 l 1
 400.5 0 l 1
EndSplineSet
EndChar

StartChar: B
Encoding: 66 66 16
Width: 621
VWidth: 1024
GlyphClass: 2
Flags: HW
LayerCount: 2
Back
Fore
SplineSet
588 556 m 0
 588 529.666992188 583.5 506.333007812 574.5 486 c 128
 565.5 465.666992188 553.25 447.916992188 537.75 432.75 c 128
 522.25 417.583007812 504.083007812 404.5 483.25 393.5 c 128
 462.416992188 382.5 440.333007812 373.166992188 417 365.5 c 1
 439.333007812 362.5 459.666992188 357.916992188 478 351.75 c 128
 496.333007812 345.583007812 512.166992188 337.166992188 525.5 326.5 c 128
 538.833007812 315.833007812 549.166992188 302.583007812 556.5 286.75 c 128
 563.833007812 270.916992188 567.5 251.833007812 567.5 229.5 c 0
 567.5 187.5 559.833007812 151.916992188 544.5 122.75 c 128
 529.166992188 93.5830078125 507.916992188 69.9169921875 480.75 51.75 c 128
 453.583007812 33.5830078125 421.583007812 20.4169921875 384.75 12.25 c 128
 347.916992188 4.0830078125 308 0 265 0 c 2
 -15.5 0 l 1
 -15.5 43 l 1
 49 48 l 2
 55.3330078125 48.6669921875 59.9169921875 50.5830078125 62.75 53.75 c 128
 65.5830078125 56.9169921875 67.5 61.5 68.5 67.5 c 2
 175 618.5 l 2
 176 624.166992188 175.166992188 628.833007812 172.5 632.5 c 128
 169.833007812 636.166992188 163.833007812 638.333007812 154.5 639 c 2
 97.5 644 l 1
 97.5 687 l 1
 385 687 l 2
 422 687 453.416992188 683.916992188 479.25 677.75 c 128
 505.083007812 671.583007812 526.083007812 662.75 542.25 651.25 c 128
 558.416992188 639.75 570.083007812 625.916992188 577.25 609.75 c 128
 584.416992188 593.583007812 588 575.666992188 588 556 c 0
455.5 219 m 0
 455.5 240 451.833007812 257.75 444.5 272.25 c 128
 437.166992188 286.75 426.75 298.5 413.25 307.5 c 128
 399.75 316.5 383.333007812 323 364 327 c 128
 344.666992188 331 323 333 299 333 c 0
 286.333007812 333 273.166992188 332.5 259.5 331.5 c 128
 245.833007812 330.5 233.333007812 329.166992188 222 327.5 c 1
 168 49 l 1
 172 48.6669921875 176.75 48.3330078125 182.25 48 c 128
 187.75 47.6669921875 193.416992188 47.3330078125 199.25 47 c 128
 205.083007812 46.6669921875 210.833007812 46.4169921875 216.5 46.25 c 128
 222.166992188 46.0830078125 227.166992188 46 231.5 46 c 0
 304.833007812 46 360.5 61.25 398.5 91.75 c 128
 436.5 122.25 455.5 164.666992188 455.5 219 c 0
474 549 m 0
 474 581.333007812 461.75 605.083007812 437.25 620.25 c 128
 412.75 635.416992188 378.666992188 643 335 643 c 0
 324.333007812 643 314.333007812 642.666992188 305 642 c 128
 295.666992188 641.333007812 288.166992188 640.666992188 282.5 640 c 1
 232.5 380 l 1
 236.5 379.666992188 240.666992188 379.333007812 245 379 c 2
 258.5 378.5 l 2
 263.166992188 378.5 267.416992188 378.416992188 271.25 378.25 c 128
 275.083007812 378.083007812 278.166992188 378 280.5 378 c 0
 312.5 378 340.583007812 382.583007812 364.75 391.75 c 128
 388.916992188 400.916992188 409.083007812 413.25 425.25 428.75 c 128
 441.416992188 444.25 453.583007812 462.416992188 461.75 483.25 c 128
 469.916992188 504.083007812 474 526 474 549 c 0
EndSplineSet
EndChar

StartChar: C
Encoding: 67 67 17
Width: 645
VWidth: 1024
GlyphClass: 2
Flags: HW
LayerCount: 2
Back
Fore
SplineSet
632 503 m 1
 571.5 503 l 1
 571.5 598 l 2
 571.5 603.333007812 569.583007812 608.833007812 565.75 614.5 c 128
 561.916992188 620.166992188 557.666992188 623.833007812 553 625.5 c 0
 551.666992188 626.166992188 548.666992188 627.916992188 544 630.75 c 128
 539.333007812 633.583007812 533.25 636.5 525.75 639.5 c 128
 518.25 642.5 509.5 645.25 499.5 647.75 c 128
 489.5 650.25 478.333007812 651.5 466 651.5 c 0
 439.666992188 651.5 413.833007812 647.333007812 388.5 639 c 128
 363.166992188 630.666992188 339.083007812 618.666992188 316.25 603 c 128
 293.416992188 587.333007812 272.333007812 568.166992188 253 545.5 c 128
 233.666992188 522.833007812 216.916992188 497.083007812 202.75 468.25 c 128
 188.583007812 439.416992188 177.5 407.666992188 169.5 373 c 128
 161.5 338.333007812 157.5 301.333007812 157.5 262 c 0
 157.5 223.333007812 163.083007812 189.833007812 174.25 161.5 c 128
 185.416992188 133.166992188 200.5 109.666992188 219.5 91 c 128
 238.5 72.3330078125 260.75 58.5 286.25 49.5 c 128
 311.75 40.5 338.833007812 36 367.5 36 c 0
 378.5 36 388.5 36.75 397.5 38.25 c 128
 406.5 39.75 414.25 41.5 420.75 43.5 c 128
 427.25 45.5 432.5 47.4169921875 436.5 49.25 c 128
 440.5 51.0830078125 443.166992188 52.3330078125 444.5 53 c 1
 448.5 53.6669921875 452.916992188 56.0830078125 457.75 60.25 c 128
 462.583007812 64.4169921875 466 68.8330078125 468 73.5 c 2
 512 190.5 l 1
 572.5 190.5 l 1
 545 24.5 l 1
 541 23.1669921875 532.416992188 20.3330078125 519.25 16 c 128
 506.083007812 11.6669921875 489.916992188 7.0830078125 470.75 2.25 c 128
 451.583007812 -2.5830078125 430.166992188 -6.9169921875 406.5 -10.75 c 128
 382.833007812 -14.5830078125 358.666992188 -16.5 334 -16.5 c 0
 300 -16.5 269.333007812 -12.6669921875 242 -5 c 128
 214.666992188 2.6669921875 190.5 13.1669921875 169.5 26.5 c 128
 148.5 39.8330078125 130.333007812 55.6669921875 115 74 c 128
 99.6669921875 92.3330078125 87.1669921875 112.25 77.5 133.75 c 128
 67.8330078125 155.25 60.6669921875 177.833007812 56 201.5 c 128
 51.3330078125 225.166992188 49 249.166992188 49 273.5 c 0
 49 309.833007812 53.5 345.666992188 62.5 381 c 128
 71.5 416.333007812 84.5 449.916992188 101.5 481.75 c 128
 118.5 513.583007812 139.166992188 543.083007812 163.5 570.25 c 128
 187.833007812 597.416992188 215.25 620.833007812 245.75 640.5 c 128
 276.25 660.166992188 309.583007812 675.583007812 345.75 686.75 c 128
 381.916992188 697.916992188 420.333007812 703.5 461 703.5 c 0
 477.666992188 703.5 493.666992188 702.583007812 509 700.75 c 128
 524.333007812 698.916992188 539.833007812 696.25 555.5 692.75 c 128
 571.166992188 689.25 587.5 684.916992188 604.5 679.75 c 128
 621.5 674.583007812 639.833007812 668.833007812 659.5 662.5 c 1
 632 503 l 1
EndSplineSet
EndChar

StartChar: D
Encoding: 68 68 18
Width: 687
VWidth: 1024
GlyphClass: 2
Flags: HW
LayerCount: 2
Back
Fore
SplineSet
558 434 m 0
 558 476.666992188 551.5 511 538.5 537 c 128
 525.5 563 508 583.166992188 486 597.5 c 128
 464 611.833007812 438.5 621.583007812 409.5 626.75 c 128
 380.5 631.916992188 350.166992188 635 318.5 636 c 1
 281.5 636 l 1
 169 53 l 1
 243.5 53 l 1
 295.166992188 53.6669921875 340.666992188 64.75 380 86.25 c 128
 419.333007812 107.75 452.166992188 136.166992188 478.5 171.5 c 128
 504.833007812 206.833007812 524.666992188 247.25 538 292.75 c 128
 551.333007812 338.25 558 385.333007812 558 434 c 0
668.5 425 m 0
 668.5 383 663.666992188 343.333007812 654 306 c 128
 644.333007812 268.666992188 630.333007812 234.25 612 202.75 c 128
 593.666992188 171.25 571.416992188 143 545.25 118 c 128
 519.083007812 93 489.583007812 71.75 456.75 54.25 c 128
 423.916992188 36.75 388.083007812 23.3330078125 349.25 14 c 128
 310.416992188 4.6669921875 269.166992188 0 225.5 0 c 2
 -15.5 0 l 1
 -15.5 43 l 1
 48 48 l 2
 54.6669921875 48.6669921875 59.3330078125 50.5830078125 62 53.75 c 128
 64.6669921875 56.9169921875 66.8330078125 61.5 68.5 67.5 c 1
 175 618.5 l 2
 176 624.166992188 175.166992188 628.833007812 172.5 632.5 c 128
 169.833007812 636.166992188 163.833007812 638.333007812 154.5 639 c 2
 97.5 644 l 1
 97.5 687 l 1
 342 687 l 2
 388.666992188 687 431.916992188 682.5 471.75 673.5 c 128
 511.583007812 664.5 546.083007812 649.666992188 575.25 629 c 128
 604.416992188 608.333007812 627.25 581.333007812 643.75 548 c 128
 660.25 514.666992188 668.5 473.666992188 668.5 425 c 0
EndSplineSet
EndChar

StartChar: E
Encoding: 69 69 19
Width: 571
VWidth: 1024
GlyphClass: 2
Flags: HW
LayerCount: 2
Back
Fore
SplineSet
563 533.5 m 1
 497.5 533.5 l 1
 497.5 616.5 l 2
 497.5 623.833007812 496.166992188 628.916992188 493.5 631.75 c 128
 490.833007812 634.583007812 485.666992188 636 478 636 c 2
 281.5 636 l 1
 234.5 384 l 1
 371.5 384 l 2
 378.833007812 384 384.416992188 385.416992188 388.25 388.25 c 128
 392.083007812 391.083007812 395.166992188 396.166992188 397.5 403.5 c 2
 417 472 l 1
 474 472 l 1
 429 237.5 l 1
 370.5 237.5 l 1
 381 310.5 l 2
 383 324.166992188 376.5 331 361.5 331 c 2
 223 331 l 1
 170 51 l 1
 410.5 51 l 2
 417.833007812 51 423.416992188 52.9169921875 427.25 56.75 c 128
 431.083007812 60.5830078125 434 65.5 436 71.5 c 2
 468 170 l 1
 530.5 170 l 1
 496.5 0 l 1
 -15.5 0 l 1
 -15.5 43 l 1
 44 48 l 2
 58.3330078125 49 66.5 55.5 68.5 67.5 c 2
 175 618.5 l 2
 176 624.166992188 175.166992188 628.833007812 172.5 632.5 c 128
 169.833007812 636.166992188 164.166992188 638.333007812 155.5 639 c 2
 98.5 644 l 1
 98.5 687 l 1
 594 687 l 1
 563 533.5 l 1
EndSplineSet
EndChar

StartChar: F
Encoding: 70 70 20
Width: 526
VWidth: 1024
GlyphClass: 2
Flags: HW
LayerCount: 2
Back
Fore
SplineSet
551 522 m 1
 485.5 522 l 1
 485.5 616.5 l 2
 485.5 623.833007812 484 628.916992188 481 631.75 c 128
 478 634.583007812 472.666992188 636 465 636 c 2
 281.5 636 l 1
 231.5 372.5 l 1
 362.5 372.5 l 2
 369.833007812 372.5 375.333007812 374 379 377 c 128
 382.666992188 380 385.333007812 385 387 392 c 2
 406.5 462 l 1
 465 462 l 1
 420 228.5 l 1
 361.5 228.5 l 1
 371.5 300 l 1
 372.833007812 306.666992188 371.583007812 311.75 367.75 315.25 c 128
 363.916992188 318.75 358.333007812 320.5 351 320.5 c 2
 221 320.5 l 1
 172 67.5 l 2
 171 62.5 171.833007812 58.1669921875 174.5 54.5 c 128
 177.166992188 50.8330078125 182.833007812 48.6669921875 191.5 48 c 2
 258 43 l 1
 258 0 l 1
 -15.5 0 l 1
 -15.5 43 l 1
 43 48 l 2
 57 49 65.5 55.5 68.5 67.5 c 1
 175 618.5 l 2
 176 624.166992188 175.166992188 628.833007812 172.5 632.5 c 128
 169.833007812 636.166992188 163.833007812 638.333007812 154.5 639 c 2
 97.5 644 l 1
 97.5 687 l 1
 582.5 687 l 1
 551 522 l 1
EndSplineSet
EndChar

StartChar: G
Encoding: 71 71 21
Width: 704
VWidth: 1024
GlyphClass: 2
Flags: HW
LayerCount: 2
Back
Fore
SplineSet
633 283.5 m 2
 626.333007812 282.833007812 620.75 281.083007812 616.25 278.25 c 128
 611.75 275.416992188 608.666992188 270.666992188 607 264 c 1
 561 23.5 l 1
 557.666992188 22.5 551.833007812 20.9169921875 543.5 18.75 c 128
 535.166992188 16.5830078125 525.166992188 14 513.5 11 c 128
 501.833007812 8 488.916992188 4.9169921875 474.75 1.75 c 128
 460.583007812 -1.4169921875 445.833007812 -4.4169921875 430.5 -7.25 c 128
 415.166992188 -10.0830078125 399.75 -12.3330078125 384.25 -14 c 128
 368.75 -15.6669921875 354 -16.5 340 -16.5 c 0
 301 -16.5 266.75 -12 237.25 -3 c 128
 207.75 6 182.25 18.0830078125 160.75 33.25 c 128
 139.25 48.4169921875 121.333007812 65.9169921875 107 85.75 c 128
 92.6669921875 105.583007812 81.1669921875 126.333007812 72.5 148 c 128
 63.8330078125 169.666992188 57.75 191.416992188 54.25 213.25 c 128
 50.75 235.083007812 49 255.5 49 274.5 c 0
 49 318.166992188 54.8330078125 359.083007812 66.5 397.25 c 128
 78.1669921875 435.416992188 94.25 470.416992188 114.75 502.25 c 128
 135.25 534.083007812 159.416992188 562.416992188 187.25 587.25 c 128
 215.083007812 612.083007812 245.416992188 633.166992188 278.25 650.5 c 128
 311.083007812 667.833007812 345.5 681 381.5 690 c 128
 417.5 699 453.833007812 703.5 490.5 703.5 c 0
 507.166992188 703.5 522.75 702.833007812 537.25 701.5 c 128
 551.75 700.166992188 566.333007812 698.083007812 581 695.25 c 128
 595.666992188 692.416992188 611.083007812 688.75 627.25 684.25 c 128
 643.416992188 679.75 661.333007812 674.5 681 668.5 c 1
 649 504 l 1
 579.5 504 l 1
 582.5 598 l 1
 583.166992188 605.666992188 581.666992188 611.916992188 578 616.75 c 128
 574.333007812 621.583007812 569.333007812 624.833007812 563 626.5 c 0
 561.666992188 626.833007812 558.833007812 628.166992188 554.5 630.5 c 128
 550.166992188 632.833007812 544.416992188 635.333007812 537.25 638 c 128
 530.083007812 640.666992188 521.5 643 511.5 645 c 128
 501.5 647 490.333007812 648 478 648 c 0
 452.333007812 648 426.75 643.833007812 401.25 635.5 c 128
 375.75 627.166992188 351.25 615.166992188 327.75 599.5 c 128
 304.25 583.833007812 282.416992188 564.583007812 262.25 541.75 c 128
 242.083007812 518.916992188 224.583007812 493.083007812 209.75 464.25 c 128
 194.916992188 435.416992188 183.25 403.666992188 174.75 369 c 128
 166.25 334.333007812 162 297.333007812 162 258 c 0
 162 230.333007812 165.166992188 205.75 171.5 184.25 c 128
 177.833007812 162.75 186.333007812 143.833007812 197 127.5 c 128
 207.666992188 111.166992188 219.833007812 97.3330078125 233.5 86 c 128
 247.166992188 74.6669921875 261.333007812 65.4169921875 276 58.25 c 128
 290.666992188 51.0830078125 305.333007812 45.9169921875 320 42.75 c 128
 334.666992188 39.5830078125 348.166992188 38 360.5 38 c 0
 370.833007812 38 381.25 38.6669921875 391.75 40 c 128
 402.25 41.3330078125 412.166992188 43 421.5 45 c 128
 430.833007812 47 439.25 49 446.75 51 c 128
 454.25 53 460 54.5 464 55.5 c 1
 504 264 l 2
 505 269.666992188 504.166992188 274.166992188 501.5 277.5 c 128
 498.833007812 280.833007812 492.833007812 282.833007812 483.5 283.5 c 2
 427 289 l 1
 427 332 l 1
 691 332 l 1
 691 289 l 1
 633 283.5 l 2
EndSplineSet
EndChar

StartChar: H
Encoding: 72 72 22
Width: 742
VWidth: 1024
GlyphClass: 2
Flags: HW
LayerCount: 2
Back
Fore
SplineSet
726 639 m 2
 719.666992188 638.333007812 714.416992188 636.416992188 710.25 633.25 c 128
 706.083007812 630.083007812 703.166992188 625.166992188 701.5 618.5 c 1
 595 67.5 l 2
 594 62.5 594.833007812 58.1669921875 597.5 54.5 c 128
 600.166992188 50.8330078125 606.166992188 48.6669921875 615.5 48 c 2
 673 43 l 1
 673 0 l 1
 405.5 0 l 1
 405.5 43 l 1
 467 48 l 2
 473 48.6669921875 478.333007812 50.5830078125 483 53.75 c 128
 487.666992188 56.9169921875 490.5 61.5 491.5 67.5 c 2
 542.5 334 l 1
 223 334 l 1
 172 67.5 l 2
 171 62.5 171.833007812 58.1669921875 174.5 54.5 c 128
 177.166992188 50.8330078125 182.833007812 48.6669921875 191.5 48 c 2
 251 43 l 1
 251 0 l 1
 -15.5 0 l 1
 -15.5 43 l 1
 43 48 l 2
 57 49 65.5 55.5 68.5 67.5 c 1
 175 618.5 l 2
 176 624.166992188 175.166992188 628.833007812 172.5 632.5 c 128
 169.833007812 636.166992188 163.833007812 638.333007812 154.5 639 c 2
 97.5 644 l 1
 97.5 687 l 1
 363.5 687 l 1
 363.5 644 l 1
 303 639 l 2
 297 638.333007812 291.666992188 636.416992188 287 633.25 c 128
 282.333007812 630.083007812 279.5 625.166992188 278.5 618.5 c 2
 233.5 385 l 1
 553 385 l 1
 598 618.5 l 2
 599 624.166992188 598.166992188 628.833007812 595.5 632.5 c 128
 592.833007812 636.166992188 586.833007812 638.333007812 577.5 639 c 2
 519 644 l 1
 519 687 l 1
 785.5 687 l 1
 785.5 644 l 1
 726 639 l 2
EndSplineSet
EndChar

StartChar: I
Encoding: 73 73 23
Width: 321
VWidth: 1024
GlyphClass: 2
Flags: HW
LayerCount: 2
Back
Fore
SplineSet
299 639 m 2
 292.333007812 638.333007812 287.666992188 636.416992188 285 633.25 c 128
 282.333007812 630.083007812 280.166992188 625.166992188 278.5 618.5 c 1
 172 67.5 l 2
 171 62.5 171.833007812 58.1669921875 174.5 54.5 c 128
 177.166992188 50.8330078125 183.166992188 48.6669921875 192.5 48 c 2
 252 43 l 1
 252 0 l 1
 -15.5 0 l 1
 -15.5 43 l 1
 49 48 l 2
 55.3330078125 48.6669921875 59.9169921875 50.5830078125 62.75 53.75 c 128
 65.5830078125 56.9169921875 67.5 61.5 68.5 67.5 c 2
 175 618.5 l 2
 176 624.166992188 175.166992188 628.833007812 172.5 632.5 c 128
 169.833007812 636.166992188 164.166992188 638.333007812 155.5 639 c 2
 98.5 644 l 1
 98.5 687 l 1
 364.5 687 l 1
 364.5 644 l 1
 299 639 l 2
EndSplineSet
EndChar

StartChar: J
Encoding: 74 74 24
Width: 479
VWidth: 1024
GlyphClass: 2
Flags: HW
LayerCount: 2
Back
Fore
SplineSet
461 639 m 2
 447 638 438.333007812 631.166992188 435 618.5 c 1
 369.5 262 l 2
 361.833007812 219.666992188 352.5 181.333007812 341.5 147 c 128
 330.5 112.666992188 315.5 83.4169921875 296.5 59.25 c 128
 277.5 35.0830078125 253.416992188 16.4169921875 224.25 3.25 c 128
 195.083007812 -9.9169921875 158.5 -16.5 114.5 -16.5 c 0
 94.5 -16.5 76.6669921875 -15.1669921875 61 -12.5 c 128
 45.3330078125 -9.8330078125 31.9169921875 -6.75 20.75 -3.25 c 128
 9.5830078125 0.25 0.5830078125 3.75 -6.25 7.25 c 128
 -13.0830078125 10.75 -17.8330078125 13.1669921875 -20.5 14.5 c 1
 13.5 189.5 l 1
 81 189.5 l 1
 81 64.5 l 2
 81 55.8330078125 85.1669921875 49.0830078125 93.5 44.25 c 128
 101.833007812 39.4169921875 111.333007812 37 122 37 c 0
 143.666992188 37 162.166992188 41.8330078125 177.5 51.5 c 128
 192.833007812 61.1669921875 205.833007812 75.1669921875 216.5 93.5 c 128
 227.166992188 111.833007812 236.25 134.416992188 243.75 161.25 c 128
 251.25 188.083007812 258 218.666992188 264 253 c 1
 332 618.5 l 2
 333 624.166992188 332.166992188 628.833007812 329.5 632.5 c 128
 326.833007812 636.166992188 321.166992188 638.333007812 312.5 639 c 2
 253 644 l 1
 253 687 l 1
 519 687 l 1
 519 644 l 1
 461 639 l 2
EndSplineSet
EndChar

StartChar: K
Encoding: 75 75 25
Width: 671
VWidth: 1024
GlyphClass: 2
Flags: HW
LayerCount: 2
Back
Fore
SplineSet
622.5 636 m 1
 354.5 377 l 1
 496.5 101.5 l 2
 502.833007812 88.8330078125 508.916992188 78.5830078125 514.75 70.75 c 128
 520.583007812 62.9169921875 526.666992188 56.75 533 52.25 c 128
 539.333007812 47.75 546.083007812 44.75 553.25 43.25 c 128
 560.416992188 41.75 568.5 41 577.5 41 c 0
 583.833007812 41 590.5 41.1669921875 597.5 41.5 c 128
 604.5 41.8330078125 612.166992188 42.3330078125 620.5 43 c 1
 620.5 0 l 1
 604.5 -4.6669921875 587.833007812 -8.5830078125 570.5 -11.75 c 128
 553.166992188 -14.9169921875 537.833007812 -16.5 524.5 -16.5 c 0
 509.5 -16.5 496.416992188 -15.3330078125 485.25 -13 c 128
 474.083007812 -10.6669921875 463.833007812 -6.5830078125 454.5 -0.75 c 128
 445.166992188 5.0830078125 436.666992188 12.8330078125 429 22.5 c 128
 421.333007812 32.1669921875 413.5 44.5 405.5 59.5 c 2
 279.5 302 l 1
 217 302 l 1
 171 67.5 l 2
 170 62.5 171 58.1669921875 174 54.5 c 128
 177 50.8330078125 182.833007812 48.6669921875 191.5 48 c 2
 251 43 l 1
 251 0 l 1
 -16.5 0 l 1
 -16.5 43 l 1
 43 48 l 2
 57.3330078125 49 65.5 55.5 67.5 67.5 c 1
 175 618.5 l 2
 176 624.166992188 175.166992188 628.833007812 172.5 632.5 c 128
 169.833007812 636.166992188 164.166992188 638.333007812 155.5 639 c 2
 98.5 644 l 1
 98.5 687 l 1
 364.5 687 l 1
 364.5 644 l 1
 304 639 l 2
 297.333007812 638.333007812 291.833007812 636.416992188 287.5 633.25 c 128
 283.166992188 630.083007812 280.166992188 625.166992188 278.5 618.5 c 1
 226.5 350 l 1
 243.5 350 l 1
 516 618.5 l 2
 520.333007812 622.5 522.083007812 626.75 521.25 631.25 c 128
 520.416992188 635.75 516.333007812 638.333007812 509 639 c 2
 443.5 644 l 1
 443.5 687 l 1
 708.5 687 l 1
 708.5 644 l 1
 622.5 636 l 1
EndSplineSet
EndChar

StartChar: L
Encoding: 76 76 26
Width: 530
VWidth: 1024
GlyphClass: 2
Flags: HW
LayerCount: 2
Back
Fore
SplineSet
457.5 0 m 1
 -15.5 0 l 1
 -15.5 43 l 1
 44 48 l 2
 58.3330078125 49 66.5 55.5 68.5 67.5 c 2
 175 618.5 l 2
 176 624.166992188 175.166992188 628.833007812 172.5 632.5 c 128
 169.833007812 636.166992188 164.166992188 638.333007812 155.5 639 c 2
 98.5 644 l 1
 98.5 687 l 1
 364.5 687 l 1
 364.5 644 l 1
 304 639 l 2
 296.333007812 638.333007812 290.416992188 636 286.25 632 c 128
 282.083007812 628 279.5 623.5 278.5 618.5 c 2
 170 51 l 1
 371.5 51 l 2
 378.166992188 51 383.583007812 52.9169921875 387.75 56.75 c 128
 391.916992188 60.5830078125 395.166992188 65.5 397.5 71.5 c 1
 434 189.5 l 1
 494.5 189.5 l 1
 457.5 0 l 1
EndSplineSet
EndChar

StartChar: M
Encoding: 77 77 27
Width: 882
VWidth: 1024
GlyphClass: 2
Flags: HW
LayerCount: 2
Back
Fore
SplineSet
866.5 639 m 2
 852.5 638 843.833007812 631.166992188 840.5 618.5 c 1
 735 67.5 l 2
 734 62.5 734.916992188 58.1669921875 737.75 54.5 c 128
 740.583007812 50.8330078125 746.5 48.6669921875 755.5 48 c 2
 813 43 l 1
 813 0 l 1
 547 0 l 1
 547 43 l 1
 607 48 l 2
 613.333007812 48.6669921875 618.833007812 50.5830078125 623.5 53.75 c 128
 628.166992188 56.9169921875 631 61.5 632 67.5 c 2
 731 587 l 1
 402.5 0 l 1
 341 0 l 1
 238.5 581.5 l 1
 143.5 67.5 l 2
 142.5 62.5 143.333007812 58.1669921875 146 54.5 c 128
 148.666992188 50.8330078125 154.333007812 48.6669921875 163 48 c 2
 220 43 l 1
 220 0 l 1
 -14.5 0 l 1
 -14.5 43 l 1
 44 48 l 2
 58 49 66.5 55.5 69.5 67.5 c 1
 175 618.5 l 2
 176 624.166992188 175.166992188 628.833007812 172.5 632.5 c 128
 169.833007812 636.166992188 163.833007812 638.333007812 154.5 639 c 2
 97.5 644 l 1
 97.5 687 l 1
 326.5 687 l 1
 326.5 658.5 l 1
 414.5 163 l 1
 688 653.5 l 1
 688 687 l 1
 924.5 687 l 1
 924.5 644 l 1
 866.5 639 l 2
EndSplineSet
EndChar

StartChar: N
Encoding: 78 78 28
Width: 728
VWidth: 1024
GlyphClass: 2
Flags: HW
LayerCount: 2
Back
Fore
SplineSet
715 639 m 2
 708.333007812 638.333007812 702.75 636.416992188 698.25 633.25 c 128
 693.75 630.083007812 690.666992188 625.166992188 689 618.5 c 1
 568.5 0 l 1
 494.5 0 l 1
 236.5 543.5 l 1
 145.5 67.5 l 2
 144.5 62.5 145.333007812 58.1669921875 148 54.5 c 128
 150.666992188 50.8330078125 156.666992188 48.6669921875 166 48 c 2
 223 43 l 1
 223 0 l 1
 -14.5 0 l 1
 -14.5 43 l 1
 44 48 l 2
 58 49 66.5 55.5 69.5 67.5 c 1
 175 618.5 l 2
 176 624.166992188 175.166992188 628.833007812 172.5 632.5 c 128
 169.833007812 636.166992188 164.166992188 638.333007812 155.5 639 c 2
 98.5 644 l 1
 98.5 687 l 1
 296 687 l 1
 296 660.5 l 1
 526.5 172 l 1
 613.5 618.5 l 2
 614.5 624.166992188 613.666992188 628.833007812 611 632.5 c 128
 608.333007812 636.166992188 602.666992188 638.333007812 594 639 c 2
 535.5 644 l 1
 535.5 687 l 1
 773 687 l 1
 773 644 l 1
 715 639 l 2
EndSplineSet
EndChar

StartChar: O
Encoding: 79 79 29
Width: 727
VWidth: 1024
GlyphClass: 2
Flags: HW
LayerCount: 2
Back
Fore
SplineSet
591 427 m 0
 591 461 586.75 491.833007812 578.25 519.5 c 128
 569.75 547.166992188 557.916992188 570.916992188 542.75 590.75 c 128
 527.583007812 610.583007812 509.583007812 625.833007812 488.75 636.5 c 128
 467.916992188 647.166992188 445.333007812 652.5 421 652.5 c 0
 396 652.5 372.333007812 647 350 636 c 128
 327.666992188 625 307 610 288 591 c 128
 269 572 251.916992188 549.75 236.75 524.25 c 128
 221.583007812 498.75 208.666992188 471.5 198 442.5 c 128
 187.333007812 413.5 179.166992188 383.416992188 173.5 352.25 c 128
 167.833007812 321.083007812 165 290.333007812 165 260 c 0
 165 225.333007812 169.416992188 194.25 178.25 166.75 c 128
 187.083007812 139.25 199.083007812 115.916992188 214.25 96.75 c 128
 229.416992188 77.5830078125 247.333007812 62.8330078125 268 52.5 c 128
 288.666992188 42.1669921875 311 37 335 37 c 0
 360 37 383.666992188 42.5830078125 406 53.75 c 128
 428.333007812 64.9169921875 449 80.1669921875 468 99.5 c 128
 487 118.833007812 504.083007812 141.25 519.25 166.75 c 128
 534.416992188 192.25 547.333007812 219.5 558 248.5 c 128
 568.666992188 277.5 576.833007812 307.25 582.5 337.75 c 128
 588.166992188 368.25 591 398 591 427 c 0
707.5 427 m 0
 707.5 391 703.666992188 355.083007812 696 319.25 c 128
 688.333007812 283.416992188 677.166992188 249 662.5 216 c 128
 647.833007812 183 629.666992188 152.416992188 608 124.25 c 128
 586.333007812 96.0830078125 561.416992188 71.5 533.25 50.5 c 128
 505.083007812 29.5 473.75 13.0830078125 439.25 1.25 c 128
 404.75 -10.5830078125 367.5 -16.5 327.5 -16.5 c 0
 286.5 -16.5 249 -9.75 215 3.75 c 128
 181 17.25 151.666992188 36.5 127 61.5 c 128
 102.333007812 86.5 83.1669921875 116.5 69.5 151.5 c 128
 55.8330078125 186.5 49 225.5 49 268.5 c 0
 49 305.166992188 53.1669921875 341.333007812 61.5 377 c 128
 69.8330078125 412.666992188 81.9169921875 446.666992188 97.75 479 c 128
 113.583007812 511.333007812 132.75 541.166992188 155.25 568.5 c 128
 177.75 595.833007812 203.083007812 619.5 231.25 639.5 c 128
 259.416992188 659.5 290.25 675.166992188 323.75 686.5 c 128
 357.25 697.833007812 392.666992188 703.5 430 703.5 c 0
 472.333007812 703.5 510.666992188 696.25 545 681.75 c 128
 579.333007812 667.25 608.5 647.5 632.5 622.5 c 128
 656.5 597.5 675 568.166992188 688 534.5 c 128
 701 500.833007812 707.5 465 707.5 427 c 0
EndSplineSet
EndChar

StartChar: P
Encoding: 80 80 30
Width: 579
VWidth: 1024
GlyphClass: 2
Flags: HW
LayerCount: 2
Back
Fore
SplineSet
478 506 m 0
 478 525.666992188 475.25 543.666992188 469.75 560 c 128
 464.25 576.333007812 455.25 590.333007812 442.75 602 c 128
 430.25 613.666992188 413.916992188 622.75 393.75 629.25 c 128
 373.583007812 635.75 348.833007812 639 319.5 639 c 0
 313.166992188 639 306.416992188 638.833007812 299.25 638.5 c 128
 292.083007812 638.166992188 285.833007812 637.666992188 280.5 637 c 1
 217 311.5 l 1
 232 310.166992188 247.083007812 309.75 262.25 310.25 c 128
 277.416992188 310.75 292.333007812 312.25 307 314.75 c 128
 321.666992188 317.25 335.833007812 320.916992188 349.5 325.75 c 128
 363.166992188 330.583007812 376 336.666992188 388 344 c 0
 401 351.666992188 413 360.666992188 424 371 c 128
 435 381.333007812 444.5 393.166992188 452.5 406.5 c 128
 460.5 419.833007812 466.75 434.75 471.25 451.25 c 128
 475.75 467.75 478 486 478 506 c 0
584.5 523.5 m 0
 584.5 482.166992188 576.666992188 445 561 412 c 128
 545.333007812 379 523.583007812 350.916992188 495.75 327.75 c 128
 467.916992188 304.583007812 434.916992188 286.833007812 396.75 274.5 c 128
 358.583007812 262.166992188 317.166992188 256 272.5 256 c 0
 267.166992188 256 260.833007812 256.083007812 253.5 256.25 c 128
 246.166992188 256.416992188 239.166992188 256.666992188 232.5 257 c 0
 224.5 257.333007812 216.333007812 257.666992188 208 258 c 1
 170 67.5 l 2
 169 62.5 169.833007812 58.1669921875 172.5 54.5 c 128
 175.166992188 50.8330078125 181.166992188 48.6669921875 190.5 48 c 2
 249 43 l 1
 249 0 l 1
 -17.5 0 l 1
 -17.5 43 l 1
 42 48 l 2
 55.3330078125 49 63.5 55.5 66.5 67.5 c 1
 174 618.5 l 2
 175 624.166992188 174.166992188 628.833007812 171.5 632.5 c 128
 168.833007812 636.166992188 162.833007812 638.333007812 153.5 639 c 2
 96.5 644 l 1
 96.5 687 l 1
 351 687 l 2
 393 687 428.75 682.916992188 458.25 674.75 c 128
 487.75 666.583007812 511.916992188 655.25 530.75 640.75 c 128
 549.583007812 626.25 563.25 609 571.75 589 c 128
 580.25 569 584.5 547.166992188 584.5 523.5 c 0
EndSplineSet
EndChar

StartChar: Q
Encoding: 81 81 31
Width: 727
VWidth: 1024
GlyphClass: 2
Flags: HW
LayerCount: 2
Back
Fore
SplineSet
591 428 m 0
 591 460.333007812 587 490.166992188 579 517.5 c 128
 571 544.833007812 559.75 568.416992188 545.25 588.25 c 128
 530.75 608.083007812 513.416992188 623.583007812 493.25 634.75 c 128
 473.083007812 645.916992188 450.666992188 651.5 426 651.5 c 0
 400.666992188 651.5 376.5 646.25 353.5 635.75 c 128
 330.5 625.25 309.25 610.833007812 289.75 592.5 c 128
 270.25 574.166992188 252.583007812 552.5 236.75 527.5 c 128
 220.916992188 502.5 207.5 475.5 196.5 446.5 c 128
 185.5 417.5 177 387.166992188 171 355.5 c 128
 165 323.833007812 162 292 162 260 c 256
 162 228 166 198.416992188 174 171.25 c 128
 182 144.083007812 193.416992188 120.666992188 208.25 101 c 128
 223.083007812 81.3330078125 241.083007812 65.9169921875 262.25 54.75 c 128
 283.416992188 43.5830078125 307.333007812 38 334 38 c 0
 358.333007812 38 381.583007812 43.5 403.75 54.5 c 128
 425.916992188 65.5 446.583007812 80.5 465.75 99.5 c 128
 484.916992188 118.5 502.166992188 140.75 517.5 166.25 c 128
 532.833007812 191.75 546 218.916992188 557 247.75 c 128
 568 276.583007812 576.416992188 306.416992188 582.25 337.25 c 128
 588.083007812 368.083007812 591 398.333007812 591 428 c 0
739.5 -113.5 m 1
 735.5 -115.5 727.666992188 -119.333007812 716 -125 c 128
 704.333007812 -130.666992188 690.333007812 -136.333007812 674 -142 c 128
 657.666992188 -147.666992188 640.166992188 -152.75 621.5 -157.25 c 128
 602.833007812 -161.75 584.5 -164 566.5 -164 c 0
 540.166992188 -164 517.166992188 -160.166992188 497.5 -152.5 c 128
 477.833007812 -144.833007812 460.583007812 -134.166992188 445.75 -120.5 c 128
 430.916992188 -106.833007812 417.916992188 -90.8330078125 406.75 -72.5 c 128
 395.583007812 -54.1669921875 385.333007812 -34.1669921875 376 -12.5 c 1
 368.333007812 -13.1669921875 359.916992188 -14 350.75 -15 c 128
 341.583007812 -16 332.833007812 -16.5 324.5 -16.5 c 0
 286.833007812 -16.5 251.166992188 -10.25 217.5 2.25 c 128
 183.833007812 14.75 154.416992188 33 129.25 57 c 128
 104.083007812 81 84.0830078125 110.5 69.25 145.5 c 128
 54.4169921875 180.5 47 220.333007812 47 265 c 0
 47 300.333007812 51.25 335.666992188 59.75 371 c 128
 68.25 406.333007812 80.4169921875 440.25 96.25 472.75 c 128
 112.083007812 505.25 131.333007812 535.583007812 154 563.75 c 128
 176.666992188 591.916992188 202.166992188 616.333007812 230.5 637 c 128
 258.833007812 657.666992188 289.916992188 673.916992188 323.75 685.75 c 128
 357.583007812 697.583007812 393.333007812 703.5 431 703.5 c 0
 472.666992188 703.5 510.5 696.5 544.5 682.5 c 128
 578.5 668.5 607.5 649.166992188 631.5 624.5 c 128
 655.5 599.833007812 674 570.666992188 687 537 c 128
 700 503.333007812 706.5 467 706.5 428 c 0
 706.5 409.666992188 705.333007812 389.333007812 703 367 c 128
 700.666992188 344.666992188 696.5 321.416992188 690.5 297.25 c 128
 684.5 273.083007812 676.166992188 248.5 665.5 223.5 c 128
 654.833007812 198.5 641.166992188 173.916992188 624.5 149.75 c 128
 607.833007812 125.583007812 587.833007812 102.5 564.5 80.5 c 128
 541.166992188 58.5 513.833007812 38.5 482.5 20.5 c 1
 492.833007812 1.5 502.666992188 -15.6669921875 512 -31 c 128
 521.333007812 -46.3330078125 531.333007812 -59.5 542 -70.5 c 128
 552.666992188 -81.5 564.333007812 -89.9169921875 577 -95.75 c 128
 589.666992188 -101.583007812 604.5 -104.5 621.5 -104.5 c 0
 631.5 -104.5 641.75 -103.416992188 652.25 -101.25 c 128
 662.75 -99.0830078125 673.166992188 -96.3330078125 683.5 -93 c 128
 693.833007812 -89.6669921875 703.75 -86 713.25 -82 c 128
 722.75 -78 731.5 -74.1669921875 739.5 -70.5 c 1
 739.5 -113.5 l 1
EndSplineSet
EndChar

StartChar: R
Encoding: 82 82 32
Width: 656
VWidth: 1024
GlyphClass: 2
Flags: HW
LayerCount: 2
Back
Fore
SplineSet
479 521 m 0
 479 546 473.583007812 566.166992188 462.75 581.5 c 128
 451.916992188 596.833007812 438 608.666992188 421 617 c 128
 404 625.333007812 385.166992188 630.75 364.5 633.25 c 128
 343.833007812 635.75 323.666992188 636.666992188 304 636 c 0
 301.333007812 636 297.666992188 635.833007812 293 635.5 c 128
 288.333007812 635.166992188 284.5 635 281.5 635 c 1
 229.5 355.5 l 1
 252 355.5 l 2
 279.666992188 355.5 307 358 334 363 c 128
 361 368 385.25 376.833007812 406.75 389.5 c 128
 428.25 402.166992188 445.666992188 419.083007812 459 440.25 c 128
 472.333007812 461.416992188 479 488.333007812 479 521 c 0
630 0 m 1
 616 -6.3330078125 602.916992188 -10.6669921875 590.75 -13 c 128
 578.583007812 -15.3330078125 566.666992188 -16.5 555 -16.5 c 0
 524 -16.5 499.083007812 -11.5 480.25 -1.5 c 128
 461.416992188 8.5 446.583007812 21.5 435.75 37.5 c 128
 424.916992188 53.5 416.916992188 71.25 411.75 90.75 c 128
 406.583007812 110.25 402.166992188 129.5 398.5 148.5 c 0
 394.5 167.5 390.083007812 186.25 385.25 204.75 c 128
 380.416992188 223.25 373.583007812 239.75 364.75 254.25 c 128
 355.916992188 268.75 344.166992188 280.5 329.5 289.5 c 128
 314.833007812 298.5 295.5 303 271.5 303 c 0
 266.833007812 303 261.5 302.916992188 255.5 302.75 c 128
 249.5 302.583007812 243.666992188 302.5 238 302.5 c 0
 231.666992188 302.166992188 225 302 218 302 c 1
 174 67.5 l 2
 173 62.5 173.833007812 58.1669921875 176.5 54.5 c 128
 179.166992188 50.8330078125 184.833007812 48.6669921875 193.5 48 c 2
 253 43 l 1
 253 0 l 1
 -13.5 0 l 1
 -13.5 43 l 1
 45 48 l 2
 59 49 67.5 55.5 70.5 67.5 c 1
 175 618.5 l 2
 176 624.166992188 175.166992188 628.833007812 172.5 632.5 c 128
 169.833007812 636.166992188 164.166992188 638.333007812 155.5 639 c 2
 98.5 644 l 1
 98.5 687 l 1
 372.5 687 l 2
 400.833007812 687 428.416992188 684.666992188 455.25 680 c 128
 482.083007812 675.333007812 505.833007812 667.166992188 526.5 655.5 c 128
 547.166992188 643.833007812 563.75 628.25 576.25 608.75 c 128
 588.75 589.25 595 564.833007812 595 535.5 c 0
 595 507.833007812 589.5 482.833007812 578.5 460.5 c 128
 567.5 438.166992188 552.5 418.25 533.5 400.75 c 128
 514.5 383.25 492.333007812 368.166992188 467 355.5 c 128
 441.666992188 342.833007812 414.666992188 332.5 386 324.5 c 1
 407 315.5 423.75 305.416992188 436.25 294.25 c 128
 448.75 283.083007812 458.833007812 270.666992188 466.5 257 c 128
 474.166992188 243.333007812 480.166992188 228.166992188 484.5 211.5 c 128
 488.833007812 194.833007812 493.5 176.833007812 498.5 157.5 c 0
 503.5 138.5 509 121.75 515 107.25 c 128
 521 92.75 528.916992188 80.6669921875 538.75 71 c 128
 548.583007812 61.3330078125 560.75 54.0830078125 575.25 49.25 c 128
 589.75 44.4169921875 608 42 630 42 c 1
 630 0 l 1
EndSplineSet
EndChar

StartChar: S
Encoding: 83 83 33
Width: 533
VWidth: 1024
GlyphClass: 2
Flags: HW
LayerCount: 2
Back
Fore
SplineSet
492.5 510 m 1
 432 510 l 1
 436 613.5 l 2
 436 616.833007812 433.5 620.75 428.5 625.25 c 128
 423.5 629.75 416.75 634.083007812 408.25 638.25 c 128
 399.75 642.416992188 390 646 379 649 c 128
 368 652 356.333007812 653.5 344 653.5 c 0
 324.333007812 653.5 305.25 650 286.75 643 c 128
 268.25 636 251.833007812 626.25 237.5 613.75 c 128
 223.166992188 601.25 211.75 586.416992188 203.25 569.25 c 128
 194.75 552.083007812 190.5 533.333007812 190.5 513 c 0
 190.5 494.666992188 195.5 478.583007812 205.5 464.75 c 128
 215.5 450.916992188 227.833007812 438.666992188 242.5 428 c 128
 257.166992188 417.333007812 272.833007812 408 289.5 400 c 128
 306.166992188 392 321.333007812 384.666992188 335 378 c 1
 353 368.666992188 370.583007812 358.833007812 387.75 348.5 c 128
 404.916992188 338.166992188 420.166992188 326.5 433.5 313.5 c 128
 446.833007812 300.5 457.583007812 285.583007812 465.75 268.75 c 128
 473.916992188 251.916992188 478 232.333007812 478 210 c 0
 478 185.333007812 472.916992188 159.666992188 462.75 133 c 128
 452.583007812 106.333007812 436.166992188 81.9169921875 413.5 59.75 c 128
 390.833007812 37.5830078125 361.416992188 19.3330078125 325.25 5 c 128
 289.083007812 -9.3330078125 244.833007812 -16.5 192.5 -16.5 c 0
 166.166992188 -16.5 141.75 -14.0830078125 119.25 -9.25 c 128
 96.75 -4.4169921875 76.9169921875 1.0830078125 59.75 7.25 c 128
 42.5830078125 13.4169921875 28.4169921875 19.4169921875 17.25 25.25 c 128
 6.0830078125 31.0830078125 -1.3330078125 35 -5 37 c 1
 29.5 201.5 l 1
 99.5 201.5 l 1
 88 84 l 2
 87.6669921875 80 90 76 95 72 c 128
 100 68 106.5 64.25 114.5 60.75 c 128
 122.5 57.25 131.333007812 54.0830078125 141 51.25 c 128
 150.666992188 48.4169921875 159.916992188 45.9169921875 168.75 43.75 c 128
 177.583007812 41.5830078125 185.416992188 39.9169921875 192.25 38.75 c 128
 199.083007812 37.5830078125 203.666992188 37 206 37 c 0
 228 37 249 40.4169921875 269 47.25 c 128
 289 54.0830078125 306.583007812 63.9169921875 321.75 76.75 c 128
 336.916992188 89.5830078125 349 105.25 358 123.75 c 128
 367 142.25 371.5 163.166992188 371.5 186.5 c 0
 371.5 203.833007812 366.416992188 219.25 356.25 232.75 c 128
 346.083007812 246.25 333.583007812 258.333007812 318.75 269 c 128
 303.916992188 279.666992188 288.166992188 289.083007812 271.5 297.25 c 128
 254.833007812 305.416992188 240.166992188 312.833007812 227.5 319.5 c 0
 209.5 328.833007812 192 338.583007812 175 348.75 c 128
 158 358.916992188 142.916992188 370.25 129.75 382.75 c 128
 116.583007812 395.25 106 409.333007812 98 425 c 128
 90 440.666992188 86 458.666992188 86 479 c 0
 86 513 92.6669921875 543.833007812 106 571.5 c 128
 119.333007812 599.166992188 137.916992188 622.75 161.75 642.25 c 128
 185.583007812 661.75 213.75 676.833007812 246.25 687.5 c 128
 278.75 698.166992188 314.166992188 703.5 352.5 703.5 c 0
 375.5 703.5 396.833007812 701.916992188 416.5 698.75 c 128
 436.166992188 695.583007812 453.5 691.833007812 468.5 687.5 c 128
 483.5 683.166992188 495.916992188 679 505.75 675 c 128
 515.583007812 671 522.166992188 668.166992188 525.5 666.5 c 1
 492.5 510 l 1
EndSplineSet
EndChar

StartChar: T
Encoding: 84 84 34
Width: 600
VWidth: 1024
GlyphClass: 2
Flags: HW
LayerCount: 2
Back
Fore
SplineSet
633 530.5 m 1
 568.5 530.5 l 1
 572.5 620.5 l 1
 573.5 634.166992188 567 641 553 641 c 2
 421 641 l 1
 314.5 67.5 l 2
 313.5 62.5 314.333007812 58.1669921875 317 54.5 c 128
 319.666992188 50.8330078125 325.666992188 48.6669921875 335 48 c 2
 393 43 l 1
 393 0 l 1
 127 0 l 1
 127 43 l 1
 186.5 48 l 2
 192.5 48.6669921875 197.833007812 50.5830078125 202.5 53.75 c 128
 207.166992188 56.9169921875 210 61.5 211 67.5 c 2
 317.5 641 l 1
 189.5 641 l 2
 176.5 641 168 634.166992188 164 620.5 c 1
 132 530.5 l 1
 67.5 530.5 l 1
 97.5 687 l 1
 664.5 687 l 1
 633 530.5 l 1
EndSplineSet
EndChar

StartChar: U
Encoding: 85 85 35
Width: 724
VWidth: 1024
GlyphClass: 2
Flags: HW
LayerCount: 2
Back
Fore
SplineSet
707.5 639 m 2
 701.5 638.333007812 696.166992188 636.416992188 691.5 633.25 c 128
 686.833007812 630.083007812 684 625.166992188 683 618.5 c 2
 604 219 l 2
 597 182 585.833007812 148.916992188 570.5 119.75 c 128
 555.166992188 90.5830078125 535.583007812 65.9169921875 511.75 45.75 c 128
 487.916992188 25.5830078125 459.916992188 10.1669921875 427.75 -0.5 c 128
 395.583007812 -11.1669921875 359.166992188 -16.5 318.5 -16.5 c 0
 286.833007812 -16.5 257.416992188 -13.25 230.25 -6.75 c 128
 203.083007812 -0.25 179.333007812 10.1669921875 159 24.5 c 128
 138.666992188 38.8330078125 122.75 57.3330078125 111.25 80 c 128
 99.75 102.666992188 94 130.333007812 94 163 c 0
 94 173.333007812 95.0830078125 187.833007812 97.25 206.5 c 128
 99.4169921875 225.166992188 102.833007812 246.5 107.5 270.5 c 2
 179 618.5 l 2
 180 624.166992188 179.166992188 628.833007812 176.5 632.5 c 128
 173.833007812 636.166992188 167.833007812 638.333007812 158.5 639 c 2
 101.5 644 l 1
 101.5 687 l 1
 367.5 687 l 1
 367.5 644 l 1
 307 639 l 2
 301 638.333007812 295.666992188 636.416992188 291 633.25 c 128
 286.333007812 630.083007812 283.5 625.166992188 282.5 618.5 c 1
 212 270.5 l 2
 208 250.5 205.083007812 232.583007812 203.25 216.75 c 128
 201.416992188 200.916992188 200.5 188.333007812 200.5 179 c 0
 200.5 157.333007812 203.916992188 138.5 210.75 122.5 c 128
 217.583007812 106.5 227.25 93.0830078125 239.75 82.25 c 128
 252.25 71.4169921875 267.416992188 63.3330078125 285.25 58 c 128
 303.083007812 52.6669921875 323 50 345 50 c 0
 378.333007812 50 406.25 55.5830078125 428.75 66.75 c 128
 451.25 77.9169921875 470 92.8330078125 485 111.5 c 128
 500 130.166992188 511.833007812 151.916992188 520.5 176.75 c 128
 529.166992188 201.583007812 536.166992188 227.666992188 541.5 255 c 2
 613.5 618.5 l 2
 614.5 624.166992188 613.666992188 628.833007812 611 632.5 c 128
 608.333007812 636.166992188 602.333007812 638.333007812 593 639 c 2
 535.5 644 l 1
 535.5 687 l 1
 767 687 l 1
 767 644 l 1
 707.5 639 l 2
EndSplineSet
EndChar

StartChar: V
Encoding: 86 86 36
Width: 658
VWidth: 1024
GlyphClass: 2
Flags: HW
LayerCount: 2
Back
Fore
SplineSet
679 638 m 1
 325.5 -16.5 l 1
 248 -16.5 l 1
 148.5 621.5 l 2
 147.5 628.166992188 144.833007812 633.083007812 140.5 636.25 c 128
 136.166992188 639.416992188 130.666992188 641.333007812 124 642 c 2
 85 644 l 1
 85 687 l 1
 317.5 687 l 1
 317.5 644 l 1
 273.5 642 l 2
 265.833007812 641.333007812 260.25 639.583007812 256.75 636.75 c 128
 253.25 633.916992188 252 628.833007812 253 621.5 c 2
 329.5 126 l 1
 590 621.5 l 2
 592.666992188 626.833007812 593.166992188 631.416992188 591.5 635.25 c 128
 589.833007812 639.083007812 584.166992188 641.333007812 574.5 642 c 2
 524.5 644 l 1
 524.5 687 l 1
 733 687 l 1
 733 644 l 1
 679 638 l 1
EndSplineSet
EndChar

StartChar: W
Encoding: 87 87 37
Width: 949
VWidth: 1024
GlyphClass: 2
Flags: HW
LayerCount: 2
Back
Fore
SplineSet
963.5 638 m 1
 656.5 -16.5 l 1
 591 -16.5 l 1
 531.5 530.5 l 1
 275.5 -16.5 l 1
 204 -16.5 l 1
 152.5 621.5 l 2
 151.833007812 628.166992188 149.75 633.083007812 146.25 636.25 c 128
 142.75 639.416992188 136.666992188 641.333007812 128 642 c 2
 85 644 l 1
 85 687 l 1
 321.5 687 l 1
 321.5 644 l 1
 276.5 642 l 2
 268.833007812 641.333007812 263.5 639.333007812 260.5 636 c 128
 257.5 632.666992188 256 627.833007812 256 621.5 c 1
 292 177 l 1
 532.5 687 l 1
 615.5 687 l 1
 667.5 170 l 1
 875.5 621.5 l 2
 881.5 634.166992188 875 641 856 642 c 2
 810 644 l 1
 810 687 l 1
 1024 687 l 1
 1024 644 l 1
 963.5 638 l 1
EndSplineSet
EndChar

StartChar: X
Encoding: 88 88 38
Width: 648
VWidth: 1024
GlyphClass: 2
Flags: HW
LayerCount: 2
Back
Fore
SplineSet
633 640 m 2
 627.666992188 639.333007812 622.75 637.25 618.25 633.75 c 128
 613.75 630.25 610.5 627.166992188 608.5 624.5 c 2
 383 368.5 l 1
 517 62.5 l 1
 520.333007812 56.1669921875 523.666992188 52.1669921875 527 50.5 c 128
 530.333007812 48.8330078125 533.833007812 47.6669921875 537.5 47 c 1
 593 43 l 1
 593 0 l 1
 328.5 0 l 1
 328.5 43 l 1
 394 47 l 2
 399.666992188 47.6669921875 404.166992188 50 407.5 54 c 128
 410.833007812 58 411.166992188 62.5 408.5 67.5 c 1
 316.5 282.5 l 1
 123 67.5 l 1
 118.666992188 63.5 116.916992188 59.25 117.75 54.75 c 128
 118.583007812 50.25 123.333007812 47.6669921875 132 47 c 2
 193.5 43 l 1
 193.5 0 l 1
 -45 0 l 1
 -45 43 l 1
 4 47 l 2
 9.6669921875 47.6669921875 14.6669921875 49.75 19 53.25 c 128
 23.3330078125 56.75 26.5 59.8330078125 28.5 62.5 c 2
 283.5 348 l 1
 161 624.5 l 2
 158.333007812 630.833007812 155.333007812 634.833007812 152 636.5 c 128
 148.666992188 638.166992188 145.166992188 639.333007812 141.5 640 c 1
 85 644 l 1
 85 687 l 1
 351 687 l 1
 351 644 l 1
 284.5 640 l 2
 278.833007812 639.333007812 274.333007812 637.083007812 271 633.25 c 128
 267.666992188 629.416992188 267.166992188 624.833007812 269.5 619.5 c 2
 353.5 428 l 1
 521 619.5 l 2
 524.666992188 623.5 526.25 627.75 525.75 632.25 c 128
 525.25 636.75 520.666992188 639.333007812 512 640 c 2
 463 644 l 1
 463 687 l 1
 694.5 687 l 1
 694.5 644 l 1
 633 640 l 2
EndSplineSet
EndChar

StartChar: Y
Encoding: 89 89 39
Width: 654
VWidth: 1024
GlyphClass: 2
Flags: HW
LayerCount: 2
Back
Fore
SplineSet
670.5 640 m 2
 665.5 639.333007812 660.5 637.25 655.5 633.75 c 128
 650.5 630.25 646.666992188 627.166992188 644 624.5 c 1
 384 287.5 l 1
 341 67.5 l 1
 339.333007812 62.5 340 58.1669921875 343 54.5 c 128
 346 50.8330078125 351.833007812 48.6669921875 360.5 48 c 2
 418 43 l 1
 418 0 l 1
 151.5 0 l 1
 151.5 43 l 1
 211 48 l 2
 217 48.6669921875 222.166992188 50.5830078125 226.5 53.75 c 128
 230.833007812 56.9169921875 233.833007812 61.5 235.5 67.5 c 1
 277.5 278.5 l 1
 163 624.5 l 2
 160.666992188 631.166992188 157.75 635.25 154.25 636.75 c 128
 150.75 638.25 147.166992188 639.333007812 143.5 640 c 1
 86 644 l 1
 86 687 l 1
 351 687 l 1
 351 644 l 1
 285.5 640 l 2
 279.833007812 639.333007812 275.583007812 637.166992188 272.75 633.5 c 128
 269.916992188 629.833007812 269.5 625.166992188 271.5 619.5 c 2
 355.5 353.5 l 1
 553 619.5 l 2
 554.333007812 621.833007812 555.5 624.166992188 556.5 626.5 c 128
 557.5 628.833007812 557.833007812 630.916992188 557.5 632.75 c 128
 557.166992188 634.583007812 556.083007812 636.166992188 554.25 637.5 c 128
 552.416992188 638.833007812 549.333007812 639.666992188 545 640 c 2
 481.5 644 l 1
 481.5 687 l 1
 728 687 l 1
 728 644 l 1
 670.5 640 l 2
EndSplineSet
EndChar

StartChar: Z
Encoding: 90 90 40
Width: 576
VWidth: 1024
GlyphClass: 2
Flags: HW
LayerCount: 2
Back
Fore
SplineSet
600 641 m 1
 118 54.5 l 1
 396.5 54.5 l 2
 409.833007812 54.5 418.333007812 61.3330078125 422 75 c 2
 452.5 189.5 l 1
 522 189.5 l 1
 486.5 0 l 1
 -20.5 0 l 1
 -11.5 45 l 1
 469 634 l 1
 229.5 634 l 2
 222.166992188 634 216.75 632.416992188 213.25 629.25 c 128
 209.75 626.083007812 207 621.166992188 205 614.5 c 2
 177 524.5 l 1
 106.5 524.5 l 1
 139.5 687 l 1
 609.5 687 l 1
 600 641 l 1
EndSplineSet
EndChar

StartChar: bracketleft
Encoding: 91 91 41
Width: 431
VWidth: 1024
GlyphClass: 2
Flags: HW
LayerCount: 2
Back
Fore
SplineSet
315.5 677 m 1
 163 -87 l 1
 319.5 -87 l 1
 319.5 -135 l 1
 55.5 -135 l 1
 227.5 725 l 1
 482.5 725 l 1
 482.5 677 l 1
 315.5 677 l 1
EndSplineSet
EndChar

StartChar: backslash
Encoding: 92 92 42
Width: 500
VWidth: 1024
GlyphClass: 2
Flags: HW
LayerCount: 2
Back
Fore
SplineSet
435 -95 m 1
 0 687 l 1
 65.5 687 l 1
 500.5 -95 l 1
 435 -95 l 1
EndSplineSet
EndChar

StartChar: bracketright
Encoding: 93 93 43
Width: 431
VWidth: 1024
GlyphClass: 2
Flags: HW
LayerCount: 2
Back
Fore
SplineSet
213 -135 m 1
 -42 -135 l 1
 -42 -86 l 1
 126 -86 l 1
 277.5 678 l 1
 121 678 l 1
 121 725 l 1
 385 725 l 1
 213 -135 l 1
EndSplineSet
EndChar

StartChar: asciicircum
Encoding: 94 94 44
Width: 351
VWidth: 1024
GlyphClass: 2
Flags: HW
LayerCount: 2
Back
Fore
SplineSet
338 564 m 1
 254 658.5 l 1
 131 564 l 1
 59.5 564 l 1
 228.5 737.5 l 1
 309 737.5 l 1
 409.5 564 l 1
 338 564 l 1
EndSplineSet
EndChar

StartChar: underscore
Encoding: 95 95 45
Width: 311
VWidth: 1024
GlyphClass: 2
Flags: HW
LayerCount: 2
Back
Fore
SplineSet
231 -157.5 m 1
 -80 -157.5 l 1
 -65.5 -90 l 1
 244 -90 l 1
 231 -157.5 l 1
EndSplineSet
EndChar

StartChar: grave
Encoding: 96 96 46
Width: 402
VWidth: 1024
GlyphClass: 2
Flags: HW
LayerCount: 2
Back
Fore
SplineSet
263 564 m 1
 114.5 661.5 l 2
 107.5 666.166992188 101.833007812 671.916992188 97.5 678.75 c 128
 93.1669921875 685.583007812 91 694.166992188 91 704.5 c 0
 91 709.5 91.75 714.666992188 93.25 720 c 128
 94.75 725.333007812 97.25 730.166992188 100.75 734.5 c 128
 104.25 738.833007812 108.916992188 742.416992188 114.75 745.25 c 128
 120.583007812 748.083007812 128 749.5 137 749.5 c 0
 144.333007812 749.5 150.583007812 748.833007812 155.75 747.5 c 128
 160.916992188 746.166992188 165.5 744.416992188 169.5 742.25 c 128
 173.5 740.083007812 177.083007812 737.416992188 180.25 734.25 c 128
 183.416992188 731.083007812 186.5 727.666992188 189.5 724 c 2
 326.5 564 l 1
 263 564 l 1
EndSplineSet
EndChar

StartChar: a
Encoding: 97 97 47
Width: 533
VWidth: 1024
GlyphClass: 2
Flags: HW
LayerCount: 2
Back
Fore
SplineSet
380 401.5 m 2
 380.333007812 403.166992188 379.083007812 407 376.25 413 c 128
 373.416992188 419 370 425.25 366 431.75 c 128
 362 438.25 357.75 444 353.25 449 c 128
 348.75 454 345 456.5 342 456.5 c 0
 316 456.5 292.75 452.25 272.25 443.75 c 128
 251.75 435.25 233.833007812 423.75 218.5 409.25 c 128
 203.166992188 394.75 190.083007812 378 179.25 359 c 128
 168.416992188 340 159.666992188 320.166992188 153 299.5 c 128
 146.333007812 278.833007812 141.5 258 138.5 237 c 128
 135.5 216 134 196 134 177 c 0
 134 162.666992188 135.166992188 148.333007812 137.5 134 c 128
 139.833007812 119.666992188 143.916992188 106.666992188 149.75 95 c 128
 155.583007812 83.3330078125 163.583007812 73.8330078125 173.75 66.5 c 128
 183.916992188 59.1669921875 197 55.5 213 55.5 c 0
 225 55.5 237 58.1669921875 249 63.5 c 128
 261 68.8330078125 272.166992188 75 282.5 82 c 128
 292.833007812 89 301.833007812 96 309.5 103 c 128
 317.166992188 110 322.833007812 115.333007812 326.5 119 c 1
 380 401.5 l 2
530.5 27.5 m 1
 526.5 25.8330078125 519.166992188 22.75 508.5 18.25 c 128
 497.833007812 13.75 485.916992188 9.25 472.75 4.75 c 128
 459.583007812 0.25 446.25 -3.75 432.75 -7.25 c 128
 419.25 -10.75 407.5 -12.5 397.5 -12.5 c 0
 385.166992188 -12.5 374.75 -11 366.25 -8 c 128
 357.75 -5 350.75 -0.5 345.25 5.5 c 128
 339.75 11.5 335.5 18.8330078125 332.5 27.5 c 128
 329.5 36.1669921875 327.5 46.1669921875 326.5 57.5 c 1
 318.833007812 50.1669921875 309.833007812 42.4169921875 299.5 34.25 c 128
 289.166992188 26.0830078125 277.75 18.5 265.25 11.5 c 128
 252.75 4.5 239.416992188 -1.25 225.25 -5.75 c 128
 211.083007812 -10.25 196.333007812 -12.5 181 -12.5 c 0
 161 -12.5 143.416992188 -9.6669921875 128.25 -4 c 128
 113.083007812 1.6669921875 100 9.25 89 18.75 c 128
 78 28.25 68.9169921875 39.25 61.75 51.75 c 128
 54.5830078125 64.25 48.8330078125 77.25 44.5 90.75 c 128
 40.1669921875 104.25 37.1669921875 117.916992188 35.5 131.75 c 128
 33.8330078125 145.583007812 33 158.666992188 33 171 c 0
 33 197.333007812 35.8330078125 223.916992188 41.5 250.75 c 128
 47.1669921875 277.583007812 55.5830078125 303.416992188 66.75 328.25 c 128
 77.9169921875 353.083007812 91.8330078125 376.333007812 108.5 398 c 128
 125.166992188 419.666992188 144.416992188 438.5 166.25 454.5 c 128
 188.083007812 470.5 212.416992188 483.083007812 239.25 492.25 c 128
 266.083007812 501.416992188 295.5 506 327.5 506 c 0
 336.833007812 506 346.083007812 504.916992188 355.25 502.75 c 128
 364.416992188 500.583007812 373 497.75 381 494.25 c 128
 389 490.75 396.333007812 486.833007812 403 482.5 c 128
 409.666992188 478.166992188 415.333007812 473.666992188 420 469 c 1
 435 493.5 l 1
 505 493.5 l 1
 503.333007812 489.5 501.5 484.75 499.5 479.25 c 128
 497.5 473.75 495.5 468.166992188 493.5 462.5 c 128
 491.5 456.833007812 489.75 451.5 488.25 446.5 c 128
 486.75 441.5 485.833007812 437.666992188 485.5 435 c 1
 483.166992188 426 479.833007812 412.416992188 475.5 394.25 c 128
 471.166992188 376.083007812 466.583007812 355.666992188 461.75 333 c 128
 456.916992188 310.333007812 451.916992188 286.583007812 446.75 261.75 c 128
 441.583007812 236.916992188 437 213.416992188 433 191.25 c 128
 429 169.083007812 425.666992188 149.416992188 423 132.25 c 128
 420.333007812 115.083007812 419 102.666992188 419 95 c 0
 419 77 422.833007812 64.6669921875 430.5 58 c 128
 438.166992188 51.3330078125 449 48 463 48 c 0
 466.333007812 48 471.25 48.75 477.75 50.25 c 128
 484.25 51.75 491 53.5 498 55.5 c 128
 505 57.5 511.5 59.3330078125 517.5 61 c 128
 523.5 62.6669921875 527.833007812 63.8330078125 530.5 64.5 c 1
 530.5 27.5 l 1
EndSplineSet
EndChar

StartChar: b
Encoding: 98 98 48
Width: 504
VWidth: 1024
GlyphClass: 2
Flags: HW
LayerCount: 2
Back
Fore
SplineSet
369.5 313.5 m 0
 369.5 336.5 366.833007812 355.916992188 361.5 371.75 c 128
 356.166992188 387.583007812 349.666992188 400.5 342 410.5 c 128
 334.333007812 420.5 326.25 427.666992188 317.75 432 c 128
 309.25 436.333007812 302 438.5 296 438.5 c 0
 287.666992188 438.5 278.5 437.166992188 268.5 434.5 c 128
 258.5 431.833007812 248.25 428.083007812 237.75 423.25 c 128
 227.25 418.416992188 216.833007812 412.833007812 206.5 406.5 c 128
 196.166992188 400.166992188 186.666992188 393.333007812 178 386 c 1
 121 76 l 1
 124.333007812 71 128.833007812 66.1669921875 134.5 61.5 c 128
 140.166992188 56.8330078125 146.666992188 52.5830078125 154 48.75 c 128
 161.333007812 44.9169921875 169.333007812 41.8330078125 178 39.5 c 128
 186.666992188 37.1669921875 195.666992188 36 205 36 c 0
 220.666992188 36 235.583007812 40 249.75 48 c 128
 263.916992188 56 277.083007812 66.8330078125 289.25 80.5 c 128
 301.416992188 94.1669921875 312.5 110.166992188 322.5 128.5 c 128
 332.5 146.833007812 340.916992188 166.25 347.75 186.75 c 128
 354.583007812 207.25 359.916992188 228.416992188 363.75 250.25 c 128
 367.583007812 272.083007812 369.5 293.166992188 369.5 313.5 c 0
471 317.5 m 256
 471 296.166992188 468.666992188 273.25 464 248.75 c 128
 459.333007812 224.25 452.083007812 199.833007812 442.25 175.5 c 128
 432.416992188 151.166992188 419.833007812 127.666992188 404.5 105 c 128
 389.166992188 82.3330078125 370.833007812 62.3330078125 349.5 45 c 128
 328.166992188 27.6669921875 303.666992188 13.75 276 3.25 c 128
 248.333007812 -7.25 217.166992188 -12.5 182.5 -12.5 c 0
 153.5 -12.5 124.916992188 -8.5 96.75 -0.5 c 128
 68.5830078125 7.5 42.5 19.3330078125 18.5 35 c 1
 139.5 684 l 1
 48 693 l 1
 48 724 l 1
 208 754.5 l 1
 248 754.5 l 1
 189.5 444.5 l 1
 198.833007812 452.833007812 209.083007812 460.75 220.25 468.25 c 128
 231.416992188 475.75 243 482.25 255 487.75 c 128
 267 493.25 279.333007812 497.666992188 292 501 c 128
 304.666992188 504.333007812 317.166992188 506 329.5 506 c 0
 355.833007812 506 378 500.166992188 396 488.5 c 128
 414 476.833007812 428.583007812 461.833007812 439.75 443.5 c 128
 450.916992188 425.166992188 458.916992188 404.916992188 463.75 382.75 c 128
 468.583007812 360.583007812 471 338.833007812 471 317.5 c 256
EndSplineSet
EndChar

StartChar: c
Encoding: 99 99 49
Width: 445
VWidth: 1024
GlyphClass: 2
Flags: HW
LayerCount: 2
Back
Fore
SplineSet
412.5 434 m 0
 412.5 427.333007812 411.5 420.5 409.5 413.5 c 128
 407.5 406.5 403.583007812 400 397.75 394 c 128
 391.916992188 388 383.916992188 382.583007812 373.75 377.75 c 128
 363.583007812 372.916992188 350.333007812 369.5 334 367.5 c 1
 275.5 446.5 l 1
 257.166992188 445.5 240.833007812 440.416992188 226.5 431.25 c 128
 212.166992188 422.083007812 199.583007812 410.333007812 188.75 396 c 128
 177.916992188 381.666992188 168.75 365.416992188 161.25 347.25 c 128
 153.75 329.083007812 147.666992188 310.666992188 143 292 c 128
 138.333007812 273.333007812 135 255.166992188 133 237.5 c 128
 131 219.833007812 130 204.166992188 130 190.5 c 0
 130 173.833007812 131.583007812 157.416992188 134.75 141.25 c 128
 137.916992188 125.083007812 143.083007812 110.583007812 150.25 97.75 c 128
 157.416992188 84.9169921875 166.75 74.5 178.25 66.5 c 128
 189.75 58.5 204 54.5 221 54.5 c 0
 234.666992188 54.5 248.5 56.9169921875 262.5 61.75 c 128
 276.5 66.5830078125 290.583007812 73.3330078125 304.75 82 c 128
 318.916992188 90.6669921875 333.166992188 101 347.5 113 c 128
 361.833007812 125 376.333007812 138.166992188 391 152.5 c 1
 391 88 l 1
 380.333007812 77.6669921875 368.166992188 66.6669921875 354.5 55 c 128
 340.833007812 43.3330078125 325.666992188 32.5 309 22.5 c 128
 292.333007812 12.5 274.083007812 4.1669921875 254.25 -2.5 c 128
 234.416992188 -9.1669921875 213.166992188 -12.5 190.5 -12.5 c 0
 166.166992188 -12.5 144.25 -8.25 124.75 0.25 c 128
 105.25 8.75 88.75 21.0830078125 75.25 37.25 c 128
 61.75 53.4169921875 51.3330078125 73.3330078125 44 97 c 128
 36.6669921875 120.666992188 33 147.666992188 33 178 c 0
 33 208.666992188 36.5830078125 238 43.75 266 c 128
 50.9169921875 294 60.8330078125 320.166992188 73.5 344.5 c 128
 86.1669921875 368.833007812 101.166992188 390.916992188 118.5 410.75 c 128
 135.833007812 430.583007812 154.666992188 447.583007812 175 461.75 c 128
 195.333007812 475.916992188 216.833007812 486.833007812 239.5 494.5 c 128
 262.166992188 502.166992188 285 506 308 506 c 0
 326.333007812 506 342.166992188 503.666992188 355.5 499 c 128
 368.833007812 494.333007812 379.666992188 488.5 388 481.5 c 128
 396.333007812 474.5 402.5 466.75 406.5 458.25 c 128
 410.5 449.75 412.5 441.666992188 412.5 434 c 0
EndSplineSet
EndChar

StartChar: d
Encoding: 100 100 50
Width: 538
VWidth: 1024
GlyphClass: 2
Flags: HW
LayerCount: 2
Back
Fore
SplineSet
425 88 m 2
 423.333007812 78.3330078125 423.833007812 70.5 426.5 64.5 c 128
 429.166992188 58.5 432.75 53.75 437.25 50.25 c 128
 441.75 46.75 446.416992188 44.3330078125 451.25 43 c 128
 456.083007812 41.6669921875 459.666992188 41 462 41 c 256
 464.333007812 41 469.083007812 41.9169921875 476.25 43.75 c 128
 483.416992188 45.5830078125 491 47.6669921875 499 50 c 128
 507 52.3330078125 514.5 54.5 521.5 56.5 c 2
 535.5 60.5 l 1
 535.5 22.5 l 1
 531.5 20.8330078125 524.166992188 18.0830078125 513.5 14.25 c 128
 502.833007812 10.4169921875 491 6.5 478 2.5 c 128
 465 -1.5 451.583007812 -5 437.75 -8 c 128
 423.916992188 -11 411.833007812 -12.5 401.5 -12.5 c 0
 385.833007812 -12.5 373 -10.5830078125 363 -6.75 c 128
 353 -2.9169921875 345.166992188 2.4169921875 339.5 9.25 c 128
 333.833007812 16.0830078125 329.916992188 24.1669921875 327.75 33.5 c 128
 325.583007812 42.8330078125 324.5 53.1669921875 324.5 64.5 c 1
 315.5 54.8330078125 305.583007812 45.4169921875 294.75 36.25 c 128
 283.916992188 27.0830078125 272.333007812 18.9169921875 260 11.75 c 128
 247.666992188 4.5830078125 234.666992188 -1.25 221 -5.75 c 128
 207.333007812 -10.25 193.333007812 -12.5 179 -12.5 c 0
 150.333007812 -12.5 126.583007812 -7 107.75 4 c 128
 88.9169921875 15 74 29.3330078125 63 47 c 128
 52 64.6669921875 44.25 84.3330078125 39.75 106 c 128
 35.25 127.666992188 33 149.333007812 33 171 c 0
 33 198 35.9169921875 225.083007812 41.75 252.25 c 128
 47.5830078125 279.416992188 56.25 305.416992188 67.75 330.25 c 128
 79.25 355.083007812 93.3330078125 378.166992188 110 399.5 c 128
 126.666992188 420.833007812 145.666992188 439.416992188 167 455.25 c 128
 188.333007812 471.083007812 212.083007812 483.5 238.25 492.5 c 128
 264.416992188 501.5 292.5 506 322.5 506 c 0
 330.166992188 506 337.666992188 505.25 345 503.75 c 128
 352.333007812 502.25 359.333007812 500.5 366 498.5 c 128
 372.666992188 496.5 378.833007812 494.333007812 384.5 492 c 128
 390.166992188 489.666992188 395.166992188 487.833007812 399.5 486.5 c 1
 434 684 l 1
 341 693 l 1
 341 724 l 1
 499.5 754.5 l 1
 541.5 754.5 l 1
 425 88 l 2
385 403.5 m 2
 385.333007812 404.833007812 383.416992188 408.583007812 379.25 414.75 c 128
 375.083007812 420.916992188 369.75 427.333007812 363.25 434 c 128
 356.75 440.666992188 349.666992188 446.666992188 342 452 c 128
 334.333007812 457.333007812 327.166992188 460 320.5 460 c 0
 295.5 460 271.666992188 452.75 249 438.25 c 128
 226.333007812 423.75 206.333007812 403.833007812 189 378.5 c 128
 171.666992188 353.166992188 157.833007812 323.25 147.5 288.75 c 128
 137.166992188 254.25 132 217 132 177 c 0
 132 155 134.25 136 138.75 120 c 128
 143.25 104 149.25 90.8330078125 156.75 80.5 c 128
 164.25 70.1669921875 172.833007812 62.5 182.5 57.5 c 128
 192.166992188 52.5 202 50 212 50 c 0
 221.333007812 50 231.416992188 52.3330078125 242.25 57 c 128
 253.083007812 61.6669921875 264 67.9169921875 275 75.75 c 128
 286 83.5830078125 296.916992188 92.5830078125 307.75 102.75 c 128
 318.583007812 112.916992188 328.666992188 123.333007812 338 134 c 1
 385 403.5 l 2
EndSplineSet
EndChar

StartChar: e
Encoding: 101 101 51
Width: 444
VWidth: 1024
GlyphClass: 2
Flags: HW
LayerCount: 2
Back
Fore
SplineSet
336 403.5 m 0
 336 410.166992188 334.666992188 416.75 332 423.25 c 128
 329.333007812 429.75 325.666992188 435.5 321 440.5 c 128
 316.333007812 445.5 310.5 449.583007812 303.5 452.75 c 128
 296.5 455.916992188 288.833007812 457.5 280.5 457.5 c 0
 269.166992188 457.5 258.333007812 454.5 248 448.5 c 128
 237.666992188 442.5 227.75 434.5 218.25 424.5 c 128
 208.75 414.5 199.916992188 403 191.75 390 c 128
 183.583007812 377 176.25 363.333007812 169.75 349 c 128
 163.25 334.666992188 157.5 320.166992188 152.5 305.5 c 128
 147.5 290.833007812 143.5 277 140.5 264 c 1
 162.166992188 266 184.583007812 271 207.75 279 c 128
 230.916992188 287 252 297.25 271 309.75 c 128
 290 322.25 305.583007812 336.5 317.75 352.5 c 128
 329.916992188 368.5 336 385.5 336 403.5 c 0
427 402.5 m 0
 427 383.833007812 422.666992188 366.666992188 414 351 c 128
 405.333007812 335.333007812 393.583007812 321.166992188 378.75 308.5 c 128
 363.916992188 295.833007812 346.75 284.583007812 327.25 274.75 c 128
 307.75 264.916992188 287.25 256.583007812 265.75 249.75 c 128
 244.25 242.916992188 222.333007812 237.416992188 200 233.25 c 128
 177.666992188 229.083007812 156.333007812 226.5 136 225.5 c 1
 135 218.833007812 134.083007812 210.833007812 133.25 201.5 c 128
 132.416992188 192.166992188 132 184.333007812 132 178 c 0
 132 159.333007812 134.25 142.166992188 138.75 126.5 c 128
 143.25 110.833007812 149.75 97.25 158.25 85.75 c 128
 166.75 74.25 177 65.25 189 58.75 c 128
 201 52.25 214.5 49 229.5 49 c 0
 252.5 49 277.833007812 57.3330078125 305.5 74 c 128
 333.166992188 90.6669921875 365.833007812 115.5 403.5 148.5 c 1
 403.5 84 l 1
 393.833007812 74.6669921875 382 64.4169921875 368 53.25 c 128
 354 42.0830078125 338.083007812 31.5830078125 320.25 21.75 c 128
 302.416992188 11.9169921875 283 3.75 262 -2.75 c 128
 241 -9.25 218.833007812 -12.5 195.5 -12.5 c 0
 185.166992188 -12.5 173.916992188 -11.5 161.75 -9.5 c 128
 149.583007812 -7.5 137.5 -3.9169921875 125.5 1.25 c 128
 113.5 6.4169921875 101.916992188 13.5 90.75 22.5 c 128
 79.5830078125 31.5 69.75 42.9169921875 61.25 56.75 c 128
 52.75 70.5830078125 45.9169921875 87.0830078125 40.75 106.25 c 128
 35.5830078125 125.416992188 33 148 33 174 c 0
 33 201 36.25 227.916992188 42.75 254.75 c 128
 49.25 281.583007812 58.4169921875 307.25 70.25 331.75 c 128
 82.0830078125 356.25 96.3330078125 379.083007812 113 400.25 c 128
 129.666992188 421.416992188 148 439.75 168 455.25 c 128
 188 470.75 209.416992188 482.916992188 232.25 491.75 c 128
 255.083007812 500.583007812 278.666992188 505 303 505 c 0
 326.666992188 505 346.416992188 501.083007812 362.25 493.25 c 128
 378.083007812 485.416992188 390.833007812 476 400.5 465 c 128
 410.166992188 454 417 442.666992188 421 431 c 128
 425 419.333007812 427 409.833007812 427 402.5 c 0
EndSplineSet
EndChar

StartChar: f
Encoding: 102 102 52
Width: 329
VWidth: 1024
GlyphClass: 2
Flags: HW
LayerCount: 2
Back
Fore
SplineSet
451.5 691 m 0
 451.5 674.666992188 445.5 662.083007812 433.5 653.25 c 128
 421.5 644.416992188 406 638.666992188 387 636 c 1
 307 700.5 l 1
 299.666992188 694.5 292.833007812 685.833007812 286.5 674.5 c 128
 280.166992188 663.166992188 274.333007812 650.333007812 269 636 c 128
 263.666992188 621.666992188 258.75 606.416992188 254.25 590.25 c 128
 249.75 574.083007812 245.833007812 558.416992188 242.5 543.25 c 128
 239.166992188 528.083007812 236.333007812 513.916992188 234 500.75 c 128
 231.666992188 487.583007812 229.833007812 476.666992188 228.5 468 c 1
 353.5 468 l 1
 353.5 417 l 1
 219 417 l 1
 218 409.333007812 216.25 396 213.75 377 c 128
 211.25 358 208.166992188 336 204.5 311 c 128
 200.833007812 286 196.916992188 259.25 192.75 230.75 c 128
 188.583007812 202.25 184.416992188 174.75 180.25 148.25 c 128
 176.083007812 121.75 172 97.3330078125 168 75 c 128
 164 52.6669921875 160.5 35.1669921875 157.5 22.5 c 0
 152.833007812 3.5 146.416992188 -16.0830078125 138.25 -36.25 c 128
 130.083007812 -56.4169921875 120.416992188 -76 109.25 -95 c 128
 98.0830078125 -114 85.75 -132 72.25 -149 c 128
 58.75 -166 44.4169921875 -180.833007812 29.25 -193.5 c 128
 14.0830078125 -206.166992188 -1.75 -216.166992188 -18.25 -223.5 c 128
 -34.75 -230.833007812 -51.5 -234.5 -68.5 -234.5 c 0
 -81.5 -234.5 -92.25 -232.333007812 -100.75 -228 c 128
 -109.25 -223.666992188 -115.833007812 -218.583007812 -120.5 -212.75 c 128
 -125.166992188 -206.916992188 -128.416992188 -201.25 -130.25 -195.75 c 128
 -132.083007812 -190.25 -133 -186.166992188 -133 -183.5 c 0
 -133 -170.5 -130.5 -160.416992188 -125.5 -153.25 c 128
 -120.5 -146.083007812 -114.166992188 -139.666992188 -106.5 -134 c 1
 -2 -161 l 1
 7 -150 15.25 -136.5 22.75 -120.5 c 128
 30.25 -104.5 37.0830078125 -86.8330078125 43.25 -67.5 c 128
 49.4169921875 -48.1669921875 55 -27.4169921875 60 -5.25 c 128
 65 16.9169921875 69.5 39.8330078125 73.5 63.5 c 0
 82.1669921875 111.833007812 90.1669921875 165.75 97.5 225.25 c 128
 104.833007812 284.75 113.666992188 348.166992188 124 415.5 c 1
 45 407.5 l 1
 46 447.5 l 1
 135 477 l 1
 138.333007812 495 142.916992188 514.416992188 148.75 535.25 c 128
 154.583007812 556.083007812 161.833007812 576.75 170.5 597.25 c 128
 179.166992188 617.75 189.416992188 637.5 201.25 656.5 c 128
 213.083007812 675.5 226.666992188 692.25 242 706.75 c 128
 257.333007812 721.25 274.583007812 732.833007812 293.75 741.5 c 128
 312.916992188 750.166992188 334.166992188 754.5 357.5 754.5 c 0
 374.833007812 754.5 389.5 752.333007812 401.5 748 c 128
 413.5 743.666992188 423.166992188 738.25 430.5 731.75 c 128
 437.833007812 725.25 443.166992188 718.333007812 446.5 711 c 128
 449.833007812 703.666992188 451.5 697 451.5 691 c 0
EndSplineSet
EndChar

StartChar: g
Encoding: 103 103 53
Width: 450
VWidth: 1024
GlyphClass: 2
Flags: HW
LayerCount: 2
Back
Fore
SplineSet
328.5 -90 m 0
 328.5 -77.6669921875 324.833007812 -66.3330078125 317.5 -56 c 128
 310.166992188 -45.6669921875 296.5 -35.8330078125 276.5 -26.5 c 2
 148.5 31.5 l 1
 132.166992188 27.5 118.583007812 22 107.75 15 c 128
 96.9169921875 8 88.3330078125 0.0830078125 82 -8.75 c 128
 75.6669921875 -17.5830078125 71.1669921875 -27 68.5 -37 c 128
 65.8330078125 -47 64.5 -57.1669921875 64.5 -67.5 c 0
 64.5 -79.1669921875 67 -92 72 -106 c 128
 77 -120 84.75 -133 95.25 -145 c 128
 105.75 -157 119 -167.083007812 135 -175.25 c 128
 151 -183.416992188 169.833007812 -187.5 191.5 -187.5 c 0
 216.166992188 -187.5 237.166992188 -184 254.5 -177 c 128
 271.833007812 -170 286 -161.5 297 -151.5 c 128
 308 -141.5 316 -130.916992188 321 -119.75 c 128
 326 -108.583007812 328.5 -98.6669921875 328.5 -90 c 0
317.5 367.5 m 0
 317.5 380.166992188 316.333007812 392.25 314 403.75 c 128
 311.666992188 415.25 308.083007812 425.416992188 303.25 434.25 c 128
 298.416992188 443.083007812 292.25 450.083007812 284.75 455.25 c 128
 277.25 460.416992188 268.333007812 463 258 463 c 0
 245.666992188 463 233 458.5 220 449.5 c 128
 207 440.5 195.083007812 428.166992188 184.25 412.5 c 128
 173.416992188 396.833007812 164.583007812 378.5 157.75 357.5 c 128
 150.916992188 336.5 147.5 314 147.5 290 c 0
 147.5 277.666992188 148.833007812 266.25 151.5 255.75 c 128
 154.166992188 245.25 158.083007812 236.25 163.25 228.75 c 128
 168.416992188 221.25 174.583007812 215.416992188 181.75 211.25 c 128
 188.916992188 207.083007812 197 205 206 205 c 0
 223 205 238.416992188 210.416992188 252.25 221.25 c 128
 266.083007812 232.083007812 277.833007812 245.666992188 287.5 262 c 128
 297.166992188 278.333007812 304.583007812 296 309.75 315 c 128
 314.916992188 334 317.5 351.5 317.5 367.5 c 0
402.5 431 m 1
 405.5 423.333007812 408.416992188 413.5 411.25 401.5 c 128
 414.083007812 389.5 415.5 376.5 415.5 362.5 c 0
 415.5 329.833007812 409.5 301.333007812 397.5 277 c 128
 385.5 252.666992188 369.333007812 232.333007812 349 216 c 128
 328.666992188 199.666992188 305.083007812 187.416992188 278.25 179.25 c 128
 251.416992188 171.083007812 223.166992188 167 193.5 167 c 1
 191.166992188 162 189.166992188 156.5 187.5 150.5 c 128
 185.833007812 144.5 184.5 138.583007812 183.5 132.75 c 128
 182.5 126.916992188 181.833007812 121.583007812 181.5 116.75 c 128
 181.166992188 111.916992188 181.5 108.166992188 182.5 105.5 c 1
 319.5 43 l 2
 335.166992188 36 349.416992188 28.9169921875 362.25 21.75 c 128
 375.083007812 14.5830078125 386.083007812 6.75 395.25 -1.75 c 128
 404.416992188 -10.25 411.5 -19.9169921875 416.5 -30.75 c 128
 421.5 -41.5830078125 424 -54.5 424 -69.5 c 0
 424 -84.1669921875 420.583007812 -98.4169921875 413.75 -112.25 c 128
 406.916992188 -126.083007812 397.583007812 -139.083007812 385.75 -151.25 c 128
 373.916992188 -163.416992188 359.75 -174.666992188 343.25 -185 c 128
 326.75 -195.333007812 308.916992188 -204.166992188 289.75 -211.5 c 128
 270.583007812 -218.833007812 250.416992188 -224.5 229.25 -228.5 c 128
 208.083007812 -232.5 186.666992188 -234.5 165 -234.5 c 0
 131.333007812 -234.5 102.166992188 -230.333007812 77.5 -222 c 128
 52.8330078125 -213.666992188 32.4169921875 -202.666992188 16.25 -189 c 128
 0.0830078125 -175.333007812 -11.9169921875 -159.5 -19.75 -141.5 c 128
 -27.5830078125 -123.5 -31.5 -104.666992188 -31.5 -85 c 0
 -31.5 -67.6669921875 -27.9169921875 -51.6669921875 -20.75 -37 c 128
 -13.5830078125 -22.3330078125 -3.8330078125 -9.1669921875 8.5 2.5 c 128
 20.8330078125 14.1669921875 35.25 24.5 51.75 33.5 c 128
 68.25 42.5 85.8330078125 50.1669921875 104.5 56.5 c 1
 102.833007812 64.5 102.75 73.9169921875 104.25 84.75 c 128
 105.75 95.5830078125 108.25 106.583007812 111.75 117.75 c 128
 115.25 128.916992188 119.833007812 139.666992188 125.5 150 c 128
 131.166992188 160.333007812 137.5 169 144.5 176 c 1
 130.833007812 182 118.166992188 188.916992188 106.5 196.75 c 128
 94.8330078125 204.583007812 84.75 213.583007812 76.25 223.75 c 128
 67.75 233.916992188 61.0830078125 245.583007812 56.25 258.75 c 128
 51.4169921875 271.916992188 49 286.666992188 49 303 c 0
 49 328 53.6669921875 352.583007812 63 376.75 c 128
 72.3330078125 400.916992188 85.9169921875 422.583007812 103.75 441.75 c 128
 121.583007812 460.916992188 143.25 476.416992188 168.75 488.25 c 128
 194.25 500.083007812 223.333007812 506 256 506 c 0
 268.333007812 506 279.916992188 504.916992188 290.75 502.75 c 128
 301.583007812 500.583007812 311.416992188 498.083007812 320.25 495.25 c 128
 329.083007812 492.416992188 336.75 489.5 343.25 486.5 c 128
 349.75 483.5 354.5 481 357.5 479 c 1
 496.5 479 l 1
 496.5 431 l 1
 402.5 431 l 1
EndSplineSet
EndChar

StartChar: h
Encoding: 104 104 54
Width: 536
VWidth: 1024
GlyphClass: 2
Flags: HW
LayerCount: 2
Back
Fore
SplineSet
534.5 25.5 m 1
 530.166992188 23.8330078125 522.583007812 21 511.75 17 c 128
 500.916992188 13 488.833007812 8.75 475.5 4.25 c 128
 462.166992188 -0.25 448.5 -4.1669921875 434.5 -7.5 c 128
 420.5 -10.8330078125 408.166992188 -12.5 397.5 -12.5 c 0
 391.166992188 -12.5 383.166992188 -11.5830078125 373.5 -9.75 c 128
 363.833007812 -7.9169921875 354.75 -4.5830078125 346.25 0.25 c 128
 337.75 5.0830078125 331 11.8330078125 326 20.5 c 128
 321 29.1669921875 319.833007812 40.5 322.5 54.5 c 2
 385 356.5 l 2
 388 369.833007812 387.75 381.666992188 384.25 392 c 128
 380.75 402.333007812 375.833007812 410.916992188 369.5 417.75 c 128
 363.166992188 424.583007812 356.166992188 429.75 348.5 433.25 c 128
 340.833007812 436.75 334.166992188 438.5 328.5 438.5 c 0
 320.5 438.5 310.75 436.5 299.25 432.5 c 128
 287.75 428.5 275.583007812 423 262.75 416 c 128
 249.916992188 409 237 400.583007812 224 390.75 c 128
 211 380.916992188 198.833007812 370.166992188 187.5 358.5 c 1
 112.5 0 l 1
 18.5 0 l 1
 159.5 684 l 1
 68.5 693 l 1
 68.5 724 l 1
 228.5 754.5 l 1
 269.5 754.5 l 1
 200.5 424 l 1
 210.833007812 435.333007812 223.083007812 446 237.25 456 c 128
 251.416992188 466 266.583007812 474.75 282.75 482.25 c 128
 298.916992188 489.75 315.75 495.583007812 333.25 499.75 c 128
 350.75 503.916992188 368 506 385 506 c 0
 403.666992188 506 420.166992188 503.083007812 434.5 497.25 c 128
 448.833007812 491.416992188 460.416992188 482.75 469.25 471.25 c 128
 478.083007812 459.75 483.75 445.333007812 486.25 428 c 128
 488.75 410.666992188 487.5 390.5 482.5 367.5 c 2
 426 92 l 2
 424 82.3330078125 424.5 74.25 427.5 67.75 c 128
 430.5 61.25 434.583007812 56.0830078125 439.75 52.25 c 128
 444.916992188 48.4169921875 450.333007812 45.75 456 44.25 c 128
 461.666992188 42.75 466 42 469 42 c 0
 478.333007812 42 488.5 44.3330078125 499.5 49 c 128
 510.5 53.6669921875 521.833007812 57.8330078125 533.5 61.5 c 1
 534.5 25.5 l 1
EndSplineSet
EndChar

StartChar: i
Encoding: 105 105 55
Width: 272
VWidth: 1024
GlyphClass: 2
Flags: HW
LayerCount: 2
Back
Fore
SplineSet
269.5 29.5 m 1
 265.5 27.8330078125 258.166992188 24.6669921875 247.5 20 c 128
 236.833007812 15.3330078125 224.333007812 10.5830078125 210 5.75 c 128
 195.666992188 0.9169921875 180.583007812 -3.3330078125 164.75 -7 c 128
 148.916992188 -10.6669921875 134 -12.5 120 -12.5 c 0
 102.333007812 -12.5 88.3330078125 -9.5 78 -3.5 c 128
 67.6669921875 2.5 60 10.3330078125 55 20 c 128
 50 29.6669921875 47.1669921875 40.5 46.5 52.5 c 128
 45.8330078125 64.5 46.6669921875 76.3330078125 49 88 c 2
 114.5 435 l 1
 26.5 444.5 l 1
 26.5 474 l 1
 181 506 l 1
 223 506 l 1
 145.5 96.5 l 2
 144.166992188 89.5 144.25 82.8330078125 145.75 76.5 c 128
 147.25 70.1669921875 149.75 64.5830078125 153.25 59.75 c 128
 156.75 54.9169921875 161.25 51.0830078125 166.75 48.25 c 128
 172.25 45.4169921875 178.5 44 185.5 44 c 0
 191.5 44 198.583007812 45.0830078125 206.75 47.25 c 128
 214.916992188 49.4169921875 223.083007812 51.9169921875 231.25 54.75 c 128
 239.416992188 57.5830078125 247 60.3330078125 254 63 c 128
 261 65.6669921875 266.166992188 67.5 269.5 68.5 c 1
 269.5 29.5 l 1
265 656.5 m 0
 265 648.833007812 263.583007812 641.583007812 260.75 634.75 c 128
 257.916992188 627.916992188 253.916992188 621.833007812 248.75 616.5 c 128
 243.583007812 611.166992188 237.166992188 606.916992188 229.5 603.75 c 128
 221.833007812 600.583007812 213 599 203 599 c 0
 182 599 166.166992188 604.583007812 155.5 615.75 c 128
 144.833007812 626.916992188 139.5 640.5 139.5 656.5 c 0
 139.5 663.166992188 140.916992188 669.833007812 143.75 676.5 c 128
 146.583007812 683.166992188 150.75 689.25 156.25 694.75 c 128
 161.75 700.25 168.5 704.75 176.5 708.25 c 128
 184.5 711.75 193.666992188 713.5 204 713.5 c 0
 213.666992188 713.5 222.25 711.833007812 229.75 708.5 c 128
 237.25 705.166992188 243.666992188 700.833007812 249 695.5 c 128
 254.333007812 690.166992188 258.333007812 684.083007812 261 677.25 c 128
 263.666992188 670.416992188 265 663.5 265 656.5 c 0
EndSplineSet
EndChar

StartChar: j
Encoding: 106 106 56
Width: 279
VWidth: 1024
GlyphClass: 2
Flags: HW
LayerCount: 2
Back
Fore
SplineSet
164 82 m 2
 161 65 156.5 45.3330078125 150.5 23 c 128
 144.5 0.6669921875 136.916992188 -22.25 127.75 -45.75 c 128
 118.583007812 -69.25 107.75 -92.25 95.25 -114.75 c 128
 82.75 -137.25 68.5 -157.416992188 52.5 -175.25 c 128
 36.5 -193.083007812 18.8330078125 -207.416992188 -0.5 -218.25 c 128
 -19.8330078125 -229.083007812 -40.8330078125 -234.5 -63.5 -234.5 c 0
 -85.1669921875 -234.5 -102 -229.333007812 -114 -219 c 128
 -126 -208.666992188 -132 -195.666992188 -132 -180 c 0
 -132 -173.666992188 -131 -168 -129 -163 c 128
 -127 -158 -124.5 -153.666992188 -121.5 -150 c 128
 -118.5 -146.333007812 -115.416992188 -143.166992188 -112.25 -140.5 c 128
 -109.083007812 -137.833007812 -106.166992188 -135.666992188 -103.5 -134 c 1
 -1 -162 l 1
 4 -156.666992188 9.0830078125 -148.5 14.25 -137.5 c 128
 19.4169921875 -126.5 24.5 -114.083007812 29.5 -100.25 c 128
 34.5 -86.4169921875 39 -71.8330078125 43 -56.5 c 128
 47 -41.1669921875 50.3330078125 -26.5 53 -12.5 c 2
 130 435 l 1
 44 444.5 l 1
 44 474 l 1
 198.5 506 l 1
 236.5 506 l 1
 164 82 l 2
272.5 656.5 m 0
 272.5 650.5 271 644.083007812 268 637.25 c 128
 265 630.416992188 260.666992188 624.166992188 255 618.5 c 128
 249.333007812 612.833007812 242.583007812 608.166992188 234.75 604.5 c 128
 226.916992188 600.833007812 218.333007812 599 209 599 c 0
 190.333007812 599 175.083007812 604.416992188 163.25 615.25 c 128
 151.416992188 626.083007812 145.5 639.833007812 145.5 656.5 c 0
 145.5 664.166992188 146.75 671.5 149.25 678.5 c 128
 151.75 685.5 155.666992188 691.75 161 697.25 c 128
 166.333007812 702.75 173 707.083007812 181 710.25 c 128
 189 713.416992188 198.333007812 715 209 715 c 0
 219.333007812 715 228.416992188 713.416992188 236.25 710.25 c 128
 244.083007812 707.083007812 250.666992188 702.75 256 697.25 c 128
 261.333007812 691.75 265.416992188 685.5 268.25 678.5 c 128
 271.083007812 671.5 272.5 664.166992188 272.5 656.5 c 0
EndSplineSet
EndChar

StartChar: k
Encoding: 107 107 57
Width: 521
VWidth: 1024
GlyphClass: 2
Flags: HW
LayerCount: 2
Back
Fore
SplineSet
509 23.5 m 1
 500.333007812 19.1669921875 490.416992188 14.8330078125 479.25 10.5 c 128
 468.083007812 6.1669921875 456.666992188 2.3330078125 445 -1 c 128
 433.333007812 -4.3330078125 421.916992188 -7.0830078125 410.75 -9.25 c 128
 399.583007812 -11.4169921875 390 -12.5 382 -12.5 c 0
 373.666992188 -12.5 365.5 -11.0830078125 357.5 -8.25 c 128
 349.5 -5.4169921875 341.916992188 -1.75 334.75 2.75 c 128
 327.583007812 7.25 321 12.4169921875 315 18.25 c 128
 309 24.0830078125 304 30 300 36 c 0
 295.333007812 43 290.083007812 52.0830078125 284.25 63.25 c 128
 278.416992188 74.4169921875 272.25 86.6669921875 265.75 100 c 128
 259.25 113.333007812 252.666992188 127.25 246 141.75 c 128
 239.333007812 156.25 232.916992188 170.25 226.75 183.75 c 128
 220.583007812 197.25 214.916992188 209.833007812 209.75 221.5 c 128
 204.583007812 233.166992188 200.166992188 242.666992188 196.5 250 c 1
 149.5 208 l 1
 107.5 0 l 1
 13.5 0 l 1
 149.5 684 l 1
 59.5 693 l 1
 59.5 724 l 1
 218 754.5 l 1
 259 754.5 l 1
 164 278.5 l 1
 329.5 449.5 l 2
 339.166992188 459.5 348 468.083007812 356 475.25 c 128
 364 482.416992188 371.75 488.25 379.25 492.75 c 128
 386.75 497.25 394.333007812 500.583007812 402 502.75 c 128
 409.666992188 504.916992188 418 506 427 506 c 0
 438.333007812 506 448.25 504.333007812 456.75 501 c 128
 465.25 497.666992188 472.25 493.333007812 477.75 488 c 128
 483.25 482.666992188 487.333007812 476.666992188 490 470 c 128
 492.666992188 463.333007812 493.833007812 456.833007812 493.5 450.5 c 1
 493.5 438.833007812 488.083007812 426.75 477.25 414.25 c 128
 466.416992188 401.75 449 391.333007812 425 383 c 1
 390 420 l 1
 380.666992188 412.666992188 370.583007812 404.5 359.75 395.5 c 128
 348.916992188 386.5 338 377.333007812 327 368 c 128
 316 358.666992188 305.5 349.5 295.5 340.5 c 128
 285.5 331.5 276.5 323.5 268.5 316.5 c 1
 272.833007812 307.833007812 277.583007812 297 282.75 284 c 128
 287.916992188 271 293.416992188 257.083007812 299.25 242.25 c 128
 305.083007812 227.416992188 311.416992188 212.25 318.25 196.75 c 128
 325.083007812 181.25 332.333007812 166.5 340 152.5 c 0
 347.666992188 138.166992188 355.75 124.416992188 364.25 111.25 c 128
 372.75 98.0830078125 381.5 86.4169921875 390.5 76.25 c 128
 399.5 66.0830078125 408.666992188 58 418 52 c 128
 427.333007812 46 436.5 43 445.5 43 c 0
 449.166992188 43 453.666992188 43.4169921875 459 44.25 c 128
 464.333007812 45.0830078125 470 46.1669921875 476 47.5 c 128
 482 48.8330078125 487.916992188 50.5 493.75 52.5 c 128
 499.583007812 54.5 504.666992188 56.5 509 58.5 c 1
 509 23.5 l 1
EndSplineSet
EndChar

StartChar: l
Encoding: 108 108 58
Width: 271
VWidth: 1024
GlyphClass: 2
Flags: HW
LayerCount: 2
Back
Fore
SplineSet
269.5 26.5 m 1
 265.5 24.8330078125 258 21.9169921875 247 17.75 c 128
 236 13.5830078125 223.666992188 9.25 210 4.75 c 128
 196.333007812 0.25 182.083007812 -3.75 167.25 -7.25 c 128
 152.416992188 -10.75 139 -12.5 127 -12.5 c 0
 111.333007812 -12.5 98 -10.6669921875 87 -7 c 128
 76 -3.3330078125 67 1.8330078125 60 8.5 c 128
 53 15.1669921875 47.9169921875 23.0830078125 44.75 32.25 c 128
 41.5830078125 41.4169921875 40 51.5 40 62.5 c 0
 40 72.8330078125 41 84.8330078125 43 98.5 c 1
 155.5 684 l 1
 64.5 693 l 1
 64.5 724 l 1
 224.5 754.5 l 1
 264 754.5 l 1
 139.5 101.5 l 2
 138.166992188 94.5 138.5 87.5830078125 140.5 80.75 c 128
 142.5 73.9169921875 145.666992188 67.9169921875 150 62.75 c 128
 154.333007812 57.5830078125 159.666992188 53.3330078125 166 50 c 128
 172.333007812 46.6669921875 179.166992188 45 186.5 45 c 0
 191.5 45 198.083007812 45.9169921875 206.25 47.75 c 128
 214.416992188 49.5830078125 222.666992188 51.6669921875 231 54 c 128
 239.333007812 56.3330078125 247.083007812 58.6669921875 254.25 61 c 128
 261.416992188 63.3330078125 266.5 64.8330078125 269.5 65.5 c 1
 269.5 26.5 l 1
EndSplineSet
EndChar

StartChar: m
Encoding: 109 109 59
Width: 794
VWidth: 1024
GlyphClass: 2
Flags: HW
LayerCount: 2
Back
Fore
SplineSet
791.5 26.5 m 1
 782.833007812 22.8330078125 773.083007812 18.75 762.25 14.25 c 128
 751.416992188 9.75 740.25 5.5 728.75 1.5 c 128
 717.25 -2.5 705.833007812 -5.8330078125 694.5 -8.5 c 128
 683.166992188 -11.1669921875 672.5 -12.5 662.5 -12.5 c 0
 648.5 -12.5 635.916992188 -10.9169921875 624.75 -7.75 c 128
 613.583007812 -4.5830078125 604.25 0 596.75 6 c 128
 589.25 12 583.916992188 19.5 580.75 28.5 c 128
 577.583007812 37.5 577.166992188 47.8330078125 579.5 59.5 c 2
 636 333 l 2
 639.333007812 350 640.5 364.833007812 639.5 377.5 c 128
 638.5 390.166992188 635.916992188 400.666992188 631.75 409 c 128
 627.583007812 417.333007812 622.416992188 423.583007812 616.25 427.75 c 128
 610.083007812 431.916992188 603.666992188 434 597 434 c 0
 581.333007812 434 566.083007812 430.5 551.25 423.5 c 128
 536.416992188 416.5 522.833007812 408.25 510.5 398.75 c 128
 498.166992188 389.25 487.5 379.583007812 478.5 369.75 c 128
 469.5 359.916992188 463.333007812 352 460 346 c 1
 388 0 l 1
 293 0 l 1
 361.5 334 l 2
 363.833007812 345 364.916992188 356.416992188 364.75 368.25 c 128
 364.583007812 380.083007812 362.916992188 390.833007812 359.75 400.5 c 128
 356.583007812 410.166992188 351.666992188 418.166992188 345 424.5 c 128
 338.333007812 430.833007812 329.5 434 318.5 434 c 0
 306.5 434 293.75 430.5 280.25 423.5 c 128
 266.75 416.5 253.75 408.166992188 241.25 398.5 c 128
 228.75 388.833007812 217.416992188 378.916992188 207.25 368.75 c 128
 197.083007812 358.583007812 189.5 350.333007812 184.5 344 c 1
 112.5 0 l 1
 18.5 0 l 1
 106.5 435 l 1
 21.5 444.5 l 1
 21.5 474 l 1
 175 506 l 1
 217 506 l 1
 197.5 411.5 l 1
 210.166992188 423.5 223.666992188 435.25 238 446.75 c 128
 252.333007812 458.25 267.166992188 468.333007812 282.5 477 c 128
 297.833007812 485.666992188 313.333007812 492.666992188 329 498 c 128
 344.666992188 503.333007812 360 506 375 506 c 0
 392 506 406.083007812 502.833007812 417.25 496.5 c 128
 428.416992188 490.166992188 437.416992188 482.25 444.25 472.75 c 128
 451.083007812 463.25 456.083007812 453 459.25 442 c 128
 462.416992188 431 464.666992188 420.833007812 466 411.5 c 1
 478.333007812 423.833007812 492 435.666992188 507 447 c 128
 522 458.333007812 537.666992188 468.416992188 554 477.25 c 128
 570.333007812 486.083007812 586.916992188 493.083007812 603.75 498.25 c 128
 620.583007812 503.416992188 636.833007812 506 652.5 506 c 0
 669.5 506 684.416992188 502.916992188 697.25 496.75 c 128
 710.083007812 490.583007812 720.416992188 481.833007812 728.25 470.5 c 128
 736.083007812 459.166992188 741.083007812 445.5 743.25 429.5 c 128
 745.416992188 413.5 744.5 395.666992188 740.5 376 c 2
 683 99.5 l 2
 681.333007812 91.1669921875 681.5 83.5830078125 683.5 76.75 c 128
 685.5 69.9169921875 688.583007812 64 692.75 59 c 128
 696.916992188 54 702 50.0830078125 708 47.25 c 128
 714 44.4169921875 720.333007812 43 727 43 c 0
 735.333007812 43 745 45 756 49 c 128
 767 53 778.833007812 57.1669921875 791.5 61.5 c 1
 791.5 26.5 l 1
EndSplineSet
EndChar

StartChar: n
Encoding: 110 110 60
Width: 542
VWidth: 1024
GlyphClass: 2
Flags: HW
LayerCount: 2
Back
Fore
SplineSet
539.5 20.5 m 1
 535.166992188 18.8330078125 527.583007812 16.25 516.75 12.75 c 128
 505.916992188 9.25 493.833007812 5.5830078125 480.5 1.75 c 128
 467.166992188 -2.0830078125 453.5 -5.4169921875 439.5 -8.25 c 128
 425.5 -11.0830078125 413.166992188 -12.5 402.5 -12.5 c 0
 396.5 -12.5 388.25 -11.9169921875 377.75 -10.75 c 128
 367.25 -9.5830078125 357.166992188 -6.9169921875 347.5 -2.75 c 128
 337.833007812 1.4169921875 330 7.5 324 15.5 c 128
 318 23.5 316.5 34.3330078125 319.5 48 c 2
 382 362.5 l 1
 384.333007812 376.166992188 384.416992188 387.5 382.25 396.5 c 128
 380.083007812 405.5 376.583007812 412.75 371.75 418.25 c 128
 366.916992188 423.75 361.333007812 427.583007812 355 429.75 c 128
 348.666992188 431.916992188 342.666992188 433 337 433 c 0
 328.666992188 433 318.416992188 430.583007812 306.25 425.75 c 128
 294.083007812 420.916992188 281.25 414.5 267.75 406.5 c 128
 254.25 398.5 240.666992188 389.083007812 227 378.25 c 128
 213.333007812 367.416992188 200.833007812 356 189.5 344 c 1
 119 0 l 1
 23.5 0 l 1
 112.5 435 l 1
 26.5 444.5 l 1
 26.5 474 l 1
 181 506 l 1
 222 506 l 1
 203 410.5 l 1
 214.333007812 421.833007812 227.333007812 433.25 242 444.75 c 128
 256.666992188 456.25 272.333007812 466.5 289 475.5 c 128
 305.666992188 484.5 322.916992188 491.833007812 340.75 497.5 c 128
 358.583007812 503.166992188 376 506 393 506 c 0
 430.333007812 506 456.916992188 495.666992188 472.75 475 c 128
 488.583007812 454.333007812 492.5 421 484.5 375 c 1
 430 86 l 2
 428.333007812 76.3330078125 429.083007812 68.6669921875 432.25 63 c 128
 435.416992188 57.3330078125 439.583007812 53 444.75 50 c 128
 449.916992188 47 455.333007812 45.0830078125 461 44.25 c 128
 466.666992188 43.4169921875 471 43 474 43 c 0
 483.333007812 43 493.5 44.3330078125 504.5 47 c 128
 515.5 49.6669921875 526.833007812 52.8330078125 538.5 56.5 c 1
 539.5 20.5 l 1
EndSplineSet
EndChar

StartChar: o
Encoding: 111 111 61
Width: 518
VWidth: 1024
GlyphClass: 2
Flags: HW
LayerCount: 2
Back
Fore
SplineSet
383 311.5 m 0
 383 335.833007812 380.666992188 357.333007812 376 376 c 128
 371.333007812 394.666992188 365 410.333007812 357 423 c 128
 349 435.666992188 339.416992188 445.333007812 328.25 452 c 128
 317.083007812 458.666992188 305 462 292 462 c 0
 269.666992188 462 248.916992188 453.916992188 229.75 437.75 c 128
 210.583007812 421.583007812 194 400.416992188 180 374.25 c 128
 166 348.083007812 155 318.583007812 147 285.75 c 128
 139 252.916992188 135 219.833007812 135 186.5 c 0
 135 161.166992188 137.333007812 139 142 120 c 128
 146.666992188 101 153.166992188 85.0830078125 161.5 72.25 c 128
 169.833007812 59.4169921875 179.5 49.8330078125 190.5 43.5 c 128
 201.5 37.1669921875 213.5 34 226.5 34 c 0
 242.5 34 257.583007812 38.0830078125 271.75 46.25 c 128
 285.916992188 54.4169921875 298.75 65.4169921875 310.25 79.25 c 128
 321.75 93.0830078125 332 109.166992188 341 127.5 c 128
 350 145.833007812 357.666992188 165.25 364 185.75 c 128
 370.333007812 206.25 375.083007812 227.333007812 378.25 249 c 128
 381.416992188 270.666992188 383 291.5 383 311.5 c 0
486.5 307 m 0
 486.5 279.333007812 483.416992188 252.25 477.25 225.75 c 128
 471.083007812 199.25 462.25 174.166992188 450.75 150.5 c 128
 439.25 126.833007812 425.416992188 105.083007812 409.25 85.25 c 128
 393.083007812 65.4169921875 374.916992188 48.25 354.75 33.75 c 128
 334.583007812 19.25 312.666992188 7.9169921875 289 -0.25 c 128
 265.333007812 -8.4169921875 240.333007812 -12.5 214 -12.5 c 0
 186 -12.5 160.666992188 -8 138 1 c 128
 115.333007812 10 96.1669921875 22.9169921875 80.5 39.75 c 128
 64.8330078125 56.5830078125 52.75 76.9169921875 44.25 100.75 c 128
 35.75 124.583007812 31.5 151.333007812 31.5 181 c 0
 31.5 208.666992188 34.5 235.916992188 40.5 262.75 c 128
 46.5 289.583007812 55.0830078125 315 66.25 339 c 128
 77.4169921875 363 91 385.25 107 405.75 c 128
 123 426.25 141.083007812 443.916992188 161.25 458.75 c 128
 181.416992188 473.583007812 203.416992188 485.166992188 227.25 493.5 c 128
 251.083007812 501.833007812 276.333007812 506 303 506 c 0
 327.666992188 506 351.083007812 502.166992188 373.25 494.5 c 128
 395.416992188 486.833007812 414.916992188 474.833007812 431.75 458.5 c 128
 448.583007812 442.166992188 461.916992188 421.5 471.75 396.5 c 128
 481.583007812 371.5 486.5 341.666992188 486.5 307 c 0
EndSplineSet
EndChar

StartChar: p
Encoding: 112 112 62
Width: 506
VWidth: 1024
GlyphClass: 2
Flags: HW
LayerCount: 2
Back
Fore
SplineSet
371.5 312.5 m 0
 371.5 327.5 369.916992188 342.75 366.75 358.25 c 128
 363.583007812 373.75 358.75 387.833007812 352.25 400.5 c 128
 345.75 413.166992188 337.5 423.5 327.5 431.5 c 128
 317.5 439.5 305.666992188 443.5 292 443.5 c 0
 279.666992188 443.5 267.333007812 440.75 255 435.25 c 128
 242.666992188 429.75 231.416992188 423.583007812 221.25 416.75 c 128
 211.083007812 409.916992188 202.333007812 403.25 195 396.75 c 128
 187.666992188 390.25 182.666992188 386 180 384 c 1
 119 66.5 l 1
 122 64.8330078125 126.25 62.25 131.75 58.75 c 128
 137.25 55.25 143.666992188 51.8330078125 151 48.5 c 128
 158.333007812 45.1669921875 166.166992188 42.25 174.5 39.75 c 128
 182.833007812 37.25 191.5 36 200.5 36 c 0
 219.166992188 36 236.333007812 40.1669921875 252 48.5 c 128
 267.666992188 56.8330078125 281.833007812 68.0830078125 294.5 82.25 c 128
 307.166992188 96.4169921875 318.333007812 112.833007812 328 131.5 c 128
 337.666992188 150.166992188 345.666992188 169.75 352 190.25 c 128
 358.333007812 210.75 363.166992188 231.5 366.5 252.5 c 128
 369.833007812 273.5 371.5 293.5 371.5 312.5 c 0
473 316.5 m 0
 473 288.5 469.666992188 260.916992188 463 233.75 c 128
 456.333007812 206.583007812 446.75 180.833007812 434.25 156.5 c 128
 421.75 132.166992188 406.666992188 109.666992188 389 89 c 128
 371.333007812 68.3330078125 351.666992188 50.5 330 35.5 c 128
 308.333007812 20.5 284.833007812 8.75 259.5 0.25 c 128
 234.166992188 -8.25 207.666992188 -12.5 180 -12.5 c 0
 164.666992188 -12.5 150.833007812 -10.3330078125 138.5 -6 c 128
 126.166992188 -1.6669921875 115.833007812 2.3330078125 107.5 6 c 1
 75 -158.5 l 2
 73.6669921875 -164.166992188 74.4169921875 -168.75 77.25 -172.25 c 128
 80.0830078125 -175.75 86 -178 95 -179 c 2
 159.5 -184.5 l 1
 159.5 -223 l 1
 -98.5 -223 l 1
 -98.5 -184.5 l 1
 -45 -179 l 1
 -30.6669921875 -178 -22.5 -171.166992188 -20.5 -158.5 c 1
 95 435 l 1
 9 444.5 l 1
 9 474 l 1
 164 506 l 1
 204 506 l 1
 191.5 442.5 l 1
 200.166992188 448.166992188 210.083007812 454.666992188 221.25 462 c 128
 232.416992188 469.333007812 244.333007812 476.25 257 482.75 c 128
 269.666992188 489.25 282.916992188 494.75 296.75 499.25 c 128
 310.583007812 503.75 324.666992188 506 339 506 c 0
 365 506 386.583007812 500.416992188 403.75 489.25 c 128
 420.916992188 478.083007812 434.583007812 463.5 444.75 445.5 c 128
 454.916992188 427.5 462.166992188 407.166992188 466.5 384.5 c 128
 470.833007812 361.833007812 473 339.166992188 473 316.5 c 0
EndSplineSet
EndChar

StartChar: q
Encoding: 113 113 63
Width: 534
VWidth: 1024
GlyphClass: 2
Flags: HW
LayerCount: 2
Back
Fore
SplineSet
386 397.5 m 2
 386.666992188 401.166992188 385.083007812 406.416992188 381.25 413.25 c 128
 377.416992188 420.083007812 372.583007812 426.916992188 366.75 433.75 c 128
 360.916992188 440.583007812 354.916992188 446.5 348.75 451.5 c 128
 342.583007812 456.5 337.666992188 459 334 459 c 0
 306 459 279.75 451.833007812 255.25 437.5 c 128
 230.75 423.166992188 209.333007812 403.333007812 191 378 c 128
 172.666992188 352.666992188 158.25 322.833007812 147.75 288.5 c 128
 137.25 254.166992188 132 217 132 177 c 0
 132 157.666992188 133.916992188 140.166992188 137.75 124.5 c 128
 141.583007812 108.833007812 147.083007812 95.5 154.25 84.5 c 128
 161.416992188 73.5 170.166992188 65 180.5 59 c 128
 190.833007812 53 202.333007812 50 215 50 c 0
 225.333007812 50 235.583007812 51.9169921875 245.75 55.75 c 128
 255.916992188 59.5830078125 265.75 64.6669921875 275.25 71 c 128
 284.75 77.3330078125 294.166992188 84.3330078125 303.5 92 c 128
 312.833007812 99.6669921875 322 107.5 331 115.5 c 1
 386 397.5 l 2
371.5 -158.5 m 2
 370.5 -164.166992188 371.416992188 -168.75 374.25 -172.25 c 128
 377.083007812 -175.75 383 -178 392 -179 c 2
 455.5 -184.5 l 1
 455.5 -223 l 1
 197.5 -223 l 1
 197.5 -184.5 l 1
 252 -179 l 2
 258.666992188 -178.333007812 264.166992188 -176.416992188 268.5 -173.25 c 128
 272.833007812 -170.083007812 275.833007812 -165.166992188 277.5 -158.5 c 1
 319.5 54.5 l 1
 295.833007812 34.8330078125 271.666992188 18.75 247 6.25 c 128
 222.333007812 -6.25 198 -12.5 174 -12.5 c 0
 153.333007812 -12.5 134.416992188 -8.5830078125 117.25 -0.75 c 128
 100.083007812 7.0830078125 85.25 18.8330078125 72.75 34.5 c 128
 60.25 50.1669921875 50.5 69.5 43.5 92.5 c 128
 36.5 115.5 33 142.333007812 33 173 c 0
 33 199.333007812 36.1669921875 225.833007812 42.5 252.5 c 128
 48.8330078125 279.166992188 57.8330078125 304.833007812 69.5 329.5 c 128
 81.1669921875 354.166992188 95.5 377.25 112.5 398.75 c 128
 129.5 420.25 148.666992188 438.916992188 170 454.75 c 128
 191.333007812 470.583007812 214.666992188 483.083007812 240 492.25 c 128
 265.333007812 501.416992188 292.166992188 506 320.5 506 c 0
 342.166992188 506 361.333007812 502.833007812 378 496.5 c 128
 394.666992188 490.166992188 407.666992188 483.333007812 417 476 c 1
 441.5 506 l 1
 503 506 l 1
 371.5 -158.5 l 2
EndSplineSet
EndChar

StartChar: r
Encoding: 114 114 64
Width: 383
VWidth: 1024
GlyphClass: 2
Flags: HW
LayerCount: 2
Back
Fore
SplineSet
419 437 m 0
 419 425 416.833007812 415.416992188 412.5 408.25 c 128
 408.166992188 401.083007812 402 395.666992188 394 392 c 128
 386 388.333007812 376.416992188 385.916992188 365.25 384.75 c 128
 354.083007812 383.583007812 341.5 383 327.5 383 c 1
 303 432 l 1
 290.333007812 426.666992188 276.75 417.416992188 262.25 404.25 c 128
 247.75 391.083007812 234 376.083007812 221 359.25 c 128
 208 342.416992188 196.666992188 325.083007812 187 307.25 c 128
 177.333007812 289.416992188 171 273 168 258 c 2
 114.5 0 l 1
 19.5 0 l 1
 107.5 435 l 1
 21.5 444.5 l 1
 21.5 474 l 1
 176 506 l 1
 217 506 l 1
 195.5 402.5 l 1
 216.5 434.833007812 240.333007812 460.166992188 267 478.5 c 128
 293.666992188 496.833007812 322.5 506 353.5 506 c 0
 365.833007812 506 376.166992188 503.75 384.5 499.25 c 128
 392.833007812 494.75 399.583007812 489 404.75 482 c 128
 409.916992188 475 413.583007812 467.5 415.75 459.5 c 128
 417.916992188 451.5 419 444 419 437 c 0
EndSplineSet
EndChar

StartChar: s
Encoding: 115 115 65
Width: 379
VWidth: 1024
GlyphClass: 2
Flags: HW
LayerCount: 2
Back
Fore
SplineSet
357.5 441.5 m 0
 357.5 429.5 354.833007812 419.916992188 349.5 412.75 c 128
 344.166992188 405.583007812 337.666992188 400 330 396 c 128
 322.333007812 392 314.25 389.25 305.75 387.75 c 128
 297.25 386.25 289.833007812 385.333007812 283.5 385 c 1
 237.5 447.5 l 1
 235.5 449.166992188 232.333007812 450.916992188 228 452.75 c 128
 223.666992188 454.583007812 218.333007812 455.5 212 455.5 c 0
 200.666992188 455.5 191.166992188 453.083007812 183.5 448.25 c 128
 175.833007812 443.416992188 169.583007812 437.416992188 164.75 430.25 c 128
 159.916992188 423.083007812 156.5 415.416992188 154.5 407.25 c 128
 152.5 399.083007812 151.5 391.666992188 151.5 385 c 0
 151.5 375.666992188 154.166992188 366.25 159.5 356.75 c 128
 164.833007812 347.25 171.833007812 337.75 180.5 328.25 c 128
 189.166992188 318.75 198.916992188 309.416992188 209.75 300.25 c 128
 220.583007812 291.083007812 231.5 282.166992188 242.5 273.5 c 0
 253.833007812 264.5 264.75 255.25 275.25 245.75 c 128
 285.75 236.25 295.166992188 226.416992188 303.5 216.25 c 128
 311.833007812 206.083007812 318.5 195.333007812 323.5 184 c 128
 328.5 172.666992188 331 160.833007812 331 148.5 c 0
 331 127.5 326.75 107.333007812 318.25 88 c 128
 309.75 68.6669921875 297.25 51.5 280.75 36.5 c 128
 264.25 21.5 243.75 9.5830078125 219.25 0.75 c 128
 194.75 -8.0830078125 166.666992188 -12.5 135 -12.5 c 0
 110.333007812 -12.5 89 -9.75 71 -4.25 c 128
 53 1.25 38.1669921875 8.4169921875 26.5 17.25 c 128
 14.8330078125 26.0830078125 6.1669921875 36.1669921875 0.5 47.5 c 128
 -5.1669921875 58.8330078125 -8 70.3330078125 -8 82 c 0
 -8 98.3330078125 -3.0830078125 111.583007812 6.75 121.75 c 128
 16.5830078125 131.916992188 32 137 53 137 c 0
 59.3330078125 137 65.3330078125 136.166992188 71 134.5 c 128
 76.6669921875 132.833007812 81.8330078125 130.916992188 86.5 128.75 c 128
 91.1669921875 126.583007812 95.25 124.25 98.75 121.75 c 128
 102.25 119.25 104.833007812 117.166992188 106.5 115.5 c 1
 87 65.5 l 1
 94.3330078125 55.1669921875 103.416992188 46.4169921875 114.25 39.25 c 128
 125.083007812 32.0830078125 139.166992188 28.5 156.5 28.5 c 0
 166.833007812 28.5 176.833007812 30.5 186.5 34.5 c 128
 196.166992188 38.5 204.75 44.1669921875 212.25 51.5 c 128
 219.75 58.8330078125 225.666992188 67.75 230 78.25 c 128
 234.333007812 88.75 236.5 100.5 236.5 113.5 c 0
 236.5 123.833007812 234.416992188 133.583007812 230.25 142.75 c 128
 226.083007812 151.916992188 220.25 160.833007812 212.75 169.5 c 128
 205.25 178.166992188 196.416992188 186.75 186.25 195.25 c 128
 176.083007812 203.75 164.833007812 212.666992188 152.5 222 c 0
 141.833007812 230.333007812 131.583007812 239.333007812 121.75 249 c 128
 111.916992188 258.666992188 103.083007812 268.916992188 95.25 279.75 c 128
 87.4169921875 290.583007812 81.1669921875 302 76.5 314 c 128
 71.8330078125 326 69.5 338.333007812 69.5 351 c 0
 69.5 376 75.1669921875 398.166992188 86.5 417.5 c 128
 97.8330078125 436.833007812 112.416992188 453.083007812 130.25 466.25 c 128
 148.083007812 479.416992188 167.916992188 489.333007812 189.75 496 c 128
 211.583007812 502.666992188 233 506 254 506 c 0
 273.333007812 506 289.583007812 503.75 302.75 499.25 c 128
 315.916992188 494.75 326.583007812 489.25 334.75 482.75 c 128
 342.916992188 476.25 348.75 469.25 352.25 461.75 c 128
 355.75 454.25 357.5 447.5 357.5 441.5 c 0
EndSplineSet
EndChar

StartChar: t
Encoding: 116 116 66
Width: 307
VWidth: 1024
GlyphClass: 2
Flags: HW
LayerCount: 2
Back
Fore
SplineSet
207 429 m 1
 142.5 107.5 l 2
 140.5 98.5 140.833007812 90.4169921875 143.5 83.25 c 128
 146.166992188 76.0830078125 150.416992188 70.0830078125 156.25 65.25 c 128
 162.083007812 60.4169921875 168.916992188 56.6669921875 176.75 54 c 128
 184.583007812 51.3330078125 192.833007812 50 201.5 50 c 0
 211.166992188 50 221.166992188 50.9169921875 231.5 52.75 c 128
 241.833007812 54.5830078125 251.75 56.8330078125 261.25 59.5 c 128
 270.75 62.1669921875 279.583007812 64.9169921875 287.75 67.75 c 128
 295.916992188 70.5830078125 302.666992188 73 308 75 c 1
 308 34 l 1
 303.666992188 32 295.333007812 28.5 283 23.5 c 128
 270.666992188 18.5 256.5 13.3330078125 240.5 8 c 128
 224.5 2.6669921875 207.666992188 -2.0830078125 190 -6.25 c 128
 172.333007812 -10.4169921875 156.166992188 -12.5 141.5 -12.5 c 0
 122.833007812 -12.5 107.333007812 -10.25 95 -5.75 c 128
 82.6669921875 -1.25 72.8330078125 4.9169921875 65.5 12.75 c 128
 58.1669921875 20.5830078125 52.9169921875 29.9169921875 49.75 40.75 c 128
 46.5830078125 51.5830078125 45 63.3330078125 45 76 c 0
 45 82.6669921875 45.25 89.5 45.75 96.5 c 128
 46.25 103.5 47.3330078125 110.666992188 49 118 c 2
 111.5 429 l 1
 47 423 l 1
 47 456.5 l 1
 124 490.5 l 1
 174 593 l 1
 236.5 593 l 1
 216 476 l 1
 357.5 476 l 1
 357.5 429 l 1
 207 429 l 1
EndSplineSet
EndChar

StartChar: u
Encoding: 117 117 67
Width: 539
VWidth: 1024
GlyphClass: 2
Flags: HW
LayerCount: 2
Back
Fore
SplineSet
536.5 24.5 m 1
 530.166992188 20.8330078125 521.416992188 16.8330078125 510.25 12.5 c 128
 499.083007812 8.1669921875 487 4.1669921875 474 0.5 c 128
 461 -3.1669921875 447.75 -6.25 434.25 -8.75 c 128
 420.75 -11.25 408.5 -12.5 397.5 -12.5 c 0
 378.166992188 -12.5 363.833007812 -9.25 354.5 -2.75 c 128
 345.166992188 3.75 338.75 11.25 335.25 19.75 c 128
 331.75 28.25 330.166992188 36.8330078125 330.5 45.5 c 128
 330.833007812 54.1669921875 331 60.5 331 64.5 c 1
 304 38.8330078125 275.75 19.5830078125 246.25 6.75 c 128
 216.75 -6.0830078125 184.833007812 -12.5 150.5 -12.5 c 0
 126.833007812 -12.5 107.5 -8.3330078125 92.5 0 c 128
 77.5 8.3330078125 66.1669921875 18.8330078125 58.5 31.5 c 128
 50.8330078125 44.1669921875 46.1669921875 58 44.5 73 c 128
 42.8330078125 88 43.3330078125 102.166992188 46 115.5 c 2
 112.5 435 l 1
 26.5 444.5 l 1
 26.5 474 l 1
 181 506 l 1
 223 506 l 1
 141.5 115.5 l 2
 139.5 106.833007812 139.916992188 98.5830078125 142.75 90.75 c 128
 145.583007812 82.9169921875 149.75 76.0830078125 155.25 70.25 c 128
 160.75 64.4169921875 167 59.75 174 56.25 c 128
 181 52.75 187.833007812 51 194.5 51 c 0
 206.833007812 51 219.25 52.75 231.75 56.25 c 128
 244.25 59.75 256.666992188 64.5 269 70.5 c 128
 281.333007812 76.5 293.166992188 83.4169921875 304.5 91.25 c 128
 315.833007812 99.0830078125 326.333007812 107.5 336 116.5 c 1
 413.5 493.5 l 1
 509 493.5 l 1
 427 99.5 l 2
 424.666992188 88.8330078125 424.666992188 79.9169921875 427 72.75 c 128
 429.333007812 65.5830078125 432.916992188 59.6669921875 437.75 55 c 128
 442.583007812 50.3330078125 448.083007812 47 454.25 45 c 128
 460.416992188 43 466.333007812 42 472 42 c 0
 478.666992188 42 487.5 43 498.5 45 c 128
 509.5 47 522.166992188 52.1669921875 536.5 60.5 c 1
 536.5 24.5 l 1
EndSplineSet
EndChar

StartChar: v
Encoding: 118 118 68
Width: 473
VWidth: 1024
GlyphClass: 2
Flags: HW
LayerCount: 2
Back
Fore
SplineSet
478 444.5 m 0
 478 435.833007812 477.166992188 427.666992188 475.5 420 c 128
 473.833007812 412.333007812 471.916992188 405.166992188 469.75 398.5 c 128
 467.583007812 391.833007812 465.25 385.833007812 462.75 380.5 c 128
 460.25 375.166992188 458.166992188 370.833007812 456.5 367.5 c 0
 433.833007812 325.5 409.5 285.333007812 383.5 247 c 128
 357.5 208.666992188 332 173.25 307 140.75 c 128
 282 108.25 258.333007812 78.9169921875 236 52.75 c 128
 213.666992188 26.5830078125 194.666992188 4.8330078125 179 -12.5 c 1
 120 -12.5 l 1
 127 2.5 132.333007812 16.4169921875 136 29.25 c 128
 139.666992188 42.0830078125 141.166992188 54.1669921875 140.5 65.5 c 0
 140.5 66.5 140.166992188 71.5830078125 139.5 80.75 c 128
 138.833007812 89.9169921875 137.916992188 101.75 136.75 116.25 c 128
 135.583007812 130.75 134.166992188 147.333007812 132.5 166 c 128
 130.833007812 184.666992188 129 204 127 224 c 128
 125 244 122.916992188 264.083007812 120.75 284.25 c 128
 118.583007812 304.416992188 116.25 323.25 113.75 340.75 c 128
 111.25 358.25 108.75 373.75 106.25 387.25 c 128
 103.75 400.75 101.166992188 411 98.5 418 c 1
 95.1669921875 425 91.8330078125 430.166992188 88.5 433.5 c 128
 85.1669921875 436.833007812 80.6669921875 438.5 75 438.5 c 2
 2 442.5 l 1
 2 472 l 1
 111.5 506 l 1
 139.5 505.333007812 159.833007812 499.083007812 172.5 487.25 c 128
 185.166992188 475.416992188 192.833007812 457.333007812 195.5 433 c 2
 227.5 118 l 1
 244.833007812 140.666992188 260.833007812 162.25 275.5 182.75 c 128
 290.166992188 203.25 303.583007812 223.166992188 315.75 242.5 c 128
 327.916992188 261.833007812 339 281.083007812 349 300.25 c 128
 359 319.416992188 368 339.166992188 376 359.5 c 1
 356.5 483.5 l 1
 363.166992188 490.166992188 371.5 495.583007812 381.5 499.75 c 128
 391.5 503.916992188 402.833007812 506 415.5 506 c 0
 437.5 506 453.416992188 500.416992188 463.25 489.25 c 128
 473.083007812 478.083007812 478 463.166992188 478 444.5 c 0
EndSplineSet
EndChar

StartChar: w
Encoding: 119 119 69
Width: 719
VWidth: 1024
GlyphClass: 2
Flags: HW
LayerCount: 2
Back
Fore
SplineSet
723 445.5 m 0
 723 431.166992188 719.333007812 414 712 394 c 128
 704.666992188 374 695 352.416992188 683 329.25 c 128
 671 306.083007812 657.166992188 282 641.5 257 c 128
 625.833007812 232 609.75 207.333007812 593.25 183 c 128
 576.75 158.666992188 560.416992188 135.416992188 544.25 113.25 c 128
 528.083007812 91.0830078125 513.333007812 71.1669921875 500 53.5 c 128
 486.666992188 35.8330078125 475.416992188 21.1669921875 466.25 9.5 c 128
 457.083007812 -2.1669921875 451.166992188 -9.5 448.5 -12.5 c 1
 385 -12.5 l 1
 362.5 337 l 1
 347.5 304.666992188 331.833007812 272.416992188 315.5 240.25 c 128
 299.166992188 208.083007812 282.833007812 177 266.5 147 c 128
 250.166992188 117 234.083007812 88.4169921875 218.25 61.25 c 128
 202.416992188 34.0830078125 187.333007812 9.5 173 -12.5 c 1
 97.5 -12.5 l 1
 107.5 11.5 l 1
 79 434 l 1
 2 442.5 l 1
 2 471 l 1
 126 506 l 1
 172 503 l 1
 194.5 120 l 1
 207.833007812 144.333007812 221.833007812 171.166992188 236.5 200.5 c 128
 251.166992188 229.833007812 266 260.083007812 281 291.25 c 128
 296 322.416992188 310.833007812 354.083007812 325.5 386.25 c 128
 340.166992188 418.416992188 354.166992188 449.833007812 367.5 480.5 c 1
 444.5 489.5 l 1
 470 99.5 l 1
 501.666992188 140.166992188 529.5 182 553.5 225 c 128
 577.5 268 599.833007812 313.166992188 620.5 360.5 c 1
 600 480.5 l 1
 601.333007812 481.833007812 603.583007812 483.916992188 606.75 486.75 c 128
 609.916992188 489.583007812 614.166992188 492.416992188 619.5 495.25 c 128
 624.833007812 498.083007812 631 500.583007812 638 502.75 c 128
 645 504.916992188 652.833007812 506 661.5 506 c 0
 673.833007812 506 683.916992188 503.583007812 691.75 498.75 c 128
 699.583007812 493.916992188 705.833007812 488.25 710.5 481.75 c 128
 715.166992188 475.25 718.416992188 468.583007812 720.25 461.75 c 128
 722.083007812 454.916992188 723 449.5 723 445.5 c 0
EndSplineSet
EndChar

StartChar: x
Encoding: 120 120 70
Width: 540
VWidth: 1024
GlyphClass: 2
Flags: HW
LayerCount: 2
Back
Fore
SplineSet
552 445.5 m 0
 552 432.166992188 547.583007812 419.416992188 538.75 407.25 c 128
 529.916992188 395.083007812 515.5 385.666992188 495.5 379 c 1
 450.5 419 l 1
 441.5 415.333007812 431.5 408.75 420.5 399.25 c 128
 409.5 389.75 398.25 377.583007812 386.75 362.75 c 128
 375.25 347.916992188 363.833007812 330.666992188 352.5 311 c 128
 341.166992188 291.333007812 330.5 269.666992188 320.5 246 c 1
 322.5 239.666992188 324.916992188 231.75 327.75 222.25 c 128
 330.583007812 212.75 333.833007812 202.416992188 337.5 191.25 c 128
 341.166992188 180.083007812 345.083007812 168.583007812 349.25 156.75 c 128
 353.416992188 144.916992188 357.833007812 133.666992188 362.5 123 c 0
 367.5 112 372.75 101.666992188 378.25 92 c 128
 383.75 82.3330078125 389.5 73.8330078125 395.5 66.5 c 128
 401.5 59.1669921875 407.583007812 53.4169921875 413.75 49.25 c 128
 419.916992188 45.0830078125 426 43 432 43 c 0
 439.666992188 43 447.916992188 43.75 456.75 45.25 c 128
 465.583007812 46.75 476.833007812 50.8330078125 490.5 57.5 c 1
 490.5 20.5 l 1
 470.833007812 10.1669921875 451.416992188 2.0830078125 432.25 -3.75 c 128
 413.083007812 -9.5830078125 392.5 -12.5 370.5 -12.5 c 0
 359.166992188 -12.5 348.666992188 -9.4169921875 339 -3.25 c 128
 329.333007812 2.9169921875 320.416992188 11 312.25 21 c 128
 304.083007812 31 296.583007812 42.5830078125 289.75 55.75 c 128
 282.916992188 68.9169921875 276.833007812 82.5 271.5 96.5 c 128
 266.166992188 110.5 261.416992188 124.5 257.25 138.5 c 128
 253.083007812 152.5 249.666992188 165.333007812 247 177 c 1
 237.333007812 159 226.25 139.083007812 213.75 117.25 c 128
 201.25 95.4169921875 187 74.8330078125 171 55.5 c 128
 155 36.1669921875 137.25 20 117.75 7 c 128
 98.25 -6 76.6669921875 -12.5 53 -12.5 c 0
 32 -12.5 14.8330078125 -7.5830078125 1.5 2.25 c 128
 -11.8330078125 12.0830078125 -18.5 26 -18.5 44 c 0
 -18.5 60.6669921875 -13.0830078125 74 -2.25 84 c 128
 8.5830078125 94 24.3330078125 100.833007812 45 104.5 c 1
 88 63.5 l 1
 98.3330078125 69.8330078125 109.25 78.5 120.75 89.5 c 128
 132.25 100.5 143.916992188 113.75 155.75 129.25 c 128
 167.583007812 144.75 179.083007812 162.5 190.25 182.5 c 128
 201.416992188 202.5 211.666992188 224.666992188 221 249 c 1
 219.333007812 255.666992188 216.666992188 264.833007812 213 276.5 c 128
 209.333007812 288.166992188 204.916992188 300.583007812 199.75 313.75 c 128
 194.583007812 326.916992188 189.166992188 340.333007812 183.5 354 c 128
 177.833007812 367.666992188 172.333007812 380.083007812 167 391.25 c 128
 161.666992188 402.416992188 156.833007812 411.583007812 152.5 418.75 c 128
 148.166992188 425.916992188 144.833007812 429.666992188 142.5 430 c 2
 53 441.5 l 1
 53 469 l 1
 56 470 60.8330078125 471.583007812 67.5 473.75 c 128
 74.1669921875 475.916992188 81.75 478.416992188 90.25 481.25 c 128
 98.75 484.083007812 107.583007812 486.916992188 116.75 489.75 c 128
 125.916992188 492.583007812 134.5 495.25 142.5 497.75 c 128
 150.5 500.25 157.5 502.25 163.5 503.75 c 128
 169.5 505.25 173.666992188 506 176 506 c 0
 188 506 199.333007812 501.666992188 210 493 c 128
 220.666992188 484.333007812 230.75 471.666992188 240.25 455 c 128
 249.75 438.333007812 258.75 418 267.25 394 c 128
 275.75 370 284 342.5 292 311.5 c 1
 302 330.833007812 313.916992188 351.833007812 327.75 374.5 c 128
 341.583007812 397.166992188 356.833007812 418.25 373.5 437.75 c 128
 390.166992188 457.25 408.25 473.5 427.75 486.5 c 128
 447.25 499.5 467.833007812 506 489.5 506 c 0
 508.166992188 506 523.25 500.416992188 534.75 489.25 c 128
 546.25 478.083007812 552 463.5 552 445.5 c 0
EndSplineSet
EndChar

StartChar: y
Encoding: 121 121 71
Width: 509
VWidth: 1024
GlyphClass: 2
Flags: HW
LayerCount: 2
Back
Fore
SplineSet
485.5 423 m 1
 481.5 419 475.666992188 411.666992188 468 401 c 128
 460.333007812 390.333007812 452.416992188 378.333007812 444.25 365 c 128
 436.083007812 351.666992188 428.083007812 337.916992188 420.25 323.75 c 128
 412.416992188 309.583007812 406.166992188 297.166992188 401.5 286.5 c 0
 394.166992188 270.166992188 385.583007812 250.333007812 375.75 227 c 128
 365.916992188 203.666992188 354.916992188 178.583007812 342.75 151.75 c 128
 330.583007812 124.916992188 317.333007812 97.0830078125 303 68.25 c 128
 288.666992188 39.4169921875 273.333007812 11.1669921875 257 -16.5 c 0
 241 -43.5 223.916992188 -70.0830078125 205.75 -96.25 c 128
 187.583007812 -122.416992188 168.333007812 -145.75 148 -166.25 c 128
 127.666992188 -186.75 106.25 -203.25 83.75 -215.75 c 128
 61.25 -228.25 37.8330078125 -234.5 13.5 -234.5 c 0
 -5.1669921875 -234.5 -20.6669921875 -232.166992188 -33 -227.5 c 128
 -45.3330078125 -222.833007812 -55.1669921875 -217.083007812 -62.5 -210.25 c 128
 -69.8330078125 -203.416992188 -74.9169921875 -196.083007812 -77.75 -188.25 c 128
 -80.5830078125 -180.416992188 -82 -173.333007812 -82 -167 c 0
 -82 -159.333007812 -80.25 -151.916992188 -76.75 -144.75 c 128
 -73.25 -137.583007812 -68.3330078125 -131.25 -62 -125.75 c 128
 -55.6669921875 -120.25 -48.1669921875 -115.833007812 -39.5 -112.5 c 128
 -30.8330078125 -109.166992188 -21.5 -107.166992188 -11.5 -106.5 c 1
 48 -166 l 1
 58.6669921875 -165 69.1669921875 -160.75 79.5 -153.25 c 128
 89.8330078125 -145.75 100.75 -134.5 112.25 -119.5 c 128
 123.75 -104.5 136.333007812 -85.6669921875 150 -63 c 128
 163.666992188 -40.3330078125 179.166992188 -13.1669921875 196.5 18.5 c 1
 195.833007812 22.5 194.166992188 31.4169921875 191.5 45.25 c 128
 188.833007812 59.0830078125 185.583007812 75.9169921875 181.75 95.75 c 128
 177.916992188 115.583007812 173.583007812 137.5 168.75 161.5 c 128
 163.916992188 185.5 158.833007812 209.833007812 153.5 234.5 c 0
 148.166992188 258.5 142.583007812 282.583007812 136.75 306.75 c 128
 130.916992188 330.916992188 125.25 352.666992188 119.75 372 c 128
 114.25 391.333007812 109.333007812 407.166992188 105 419.5 c 128
 100.666992188 431.833007812 97.3330078125 438.166992188 95 438.5 c 2
 2 445.5 l 1
 2 471 l 1
 16 475.5 l 2
 22.6669921875 477.833007812 30 480.25 38 482.75 c 128
 46 485.25 54.5 487.916992188 63.5 490.75 c 128
 72.5 493.583007812 81 496.083007812 89 498.25 c 128
 97 500.416992188 104.25 502.25 110.75 503.75 c 128
 117.25 505.25 122 506 125 506 c 0
 136 506 145.666992188 503.416992188 154 498.25 c 128
 162.333007812 493.083007812 169.75 485.666992188 176.25 476 c 128
 182.75 466.333007812 188.75 454.75 194.25 441.25 c 128
 199.75 427.75 205 412.5 210 395.5 c 0
 218.666992188 365.166992188 227.666992188 327.583007812 237 282.75 c 128
 246.333007812 237.916992188 256 188 266 133 c 1
 422 506 l 1
 451.5 506 l 1
 536.5 478 l 1
 536.5 454.5 l 1
 485.5 423 l 1
EndSplineSet
EndChar

StartChar: z
Encoding: 122 122 72
Width: 455
VWidth: 1024
GlyphClass: 2
Flags: HW
LayerCount: 2
Back
Fore
SplineSet
113.5 72.5 m 1
 199.5 95 l 1
 206.5 92.3330078125 214.5 89.0830078125 223.5 85.25 c 128
 232.5 81.4169921875 241.75 77.6669921875 251.25 74 c 128
 260.75 70.3330078125 270 67.1669921875 279 64.5 c 128
 288 61.8330078125 296 60.5 303 60.5 c 0
 310.333007812 60.5 316.75 61.5830078125 322.25 63.75 c 128
 327.75 65.9169921875 332.583007812 68.6669921875 336.75 72 c 128
 340.916992188 75.3330078125 344.666992188 78.9169921875 348 82.75 c 128
 351.333007812 86.5830078125 354.5 90.3330078125 357.5 94 c 1
 301 156.5 l 1
 304.333007812 162.5 308.333007812 167.916992188 313 172.75 c 128
 317.666992188 177.583007812 322.583007812 181.666992188 327.75 185 c 128
 332.916992188 188.333007812 338.166992188 190.916992188 343.5 192.75 c 128
 348.833007812 194.583007812 353.833007812 195.5 358.5 195.5 c 0
 367.833007812 195.5 376.083007812 193.583007812 383.25 189.75 c 128
 390.416992188 185.916992188 396.5 181 401.5 175 c 128
 406.5 169 410.333007812 162.166992188 413 154.5 c 128
 415.666992188 146.833007812 417 139.333007812 417 132 c 0
 417 111.333007812 412.416992188 92.1669921875 403.25 74.5 c 128
 394.083007812 56.8330078125 382.25 41.5830078125 367.75 28.75 c 128
 353.25 15.9169921875 337.25 5.8330078125 319.75 -1.5 c 128
 302.25 -8.8330078125 285.166992188 -12.5 268.5 -12.5 c 0
 252.833007812 -12.5 237.916992188 -10.25 223.75 -5.75 c 128
 209.583007812 -1.25 195.916992188 3.75 182.75 9.25 c 128
 169.583007812 14.75 156.666992188 19.8330078125 144 24.5 c 128
 131.333007812 29.1669921875 118.833007812 31.5 106.5 31.5 c 0
 103.833007812 31.5 99.9169921875 31 94.75 30 c 128
 89.5830078125 29 84.6669921875 26.1669921875 80 21.5 c 1
 54.5 -26.5 l 1
 -16.5 11.5 l 1
 331 418 l 1
 240.5 398.5 l 1
 226.5 406.166992188 212 413 197 419 c 128
 182 425 167.5 428 153.5 428 c 0
 149.166992188 428 144.333007812 427.333007812 139 426 c 128
 133.666992188 424.666992188 128.5 422.75 123.5 420.25 c 128
 118.5 417.75 113.75 414.666992188 109.25 411 c 128
 104.75 407.333007812 101.166992188 403.166992188 98.5 398.5 c 1
 152.5 333 l 1
 151.166992188 331 148.833007812 328.083007812 145.5 324.25 c 128
 142.166992188 320.416992188 138.083007812 316.583007812 133.25 312.75 c 128
 128.416992188 308.916992188 122.833007812 305.666992188 116.5 303 c 128
 110.166992188 300.333007812 103.5 299 96.5 299 c 0
 86.8330078125 299 78.4169921875 300.916992188 71.25 304.75 c 128
 64.0830078125 308.583007812 58.1669921875 313.5 53.5 319.5 c 128
 48.8330078125 325.5 45.4169921875 332.083007812 43.25 339.25 c 128
 41.0830078125 346.416992188 40 353.166992188 40 359.5 c 0
 40 375.166992188 43.25 391.583007812 49.75 408.75 c 128
 56.25 425.916992188 65.75 441.75 78.25 456.25 c 128
 90.75 470.75 105.916992188 482.666992188 123.75 492 c 128
 141.583007812 501.333007812 161.833007812 506 184.5 506 c 0
 199.833007812 506 214.583007812 503.333007812 228.75 498 c 128
 242.916992188 492.666992188 256.333007812 486.75 269 480.25 c 128
 281.666992188 473.75 293.75 467.833007812 305.25 462.5 c 128
 316.75 457.166992188 327.666992188 454.5 338 454.5 c 0
 340 454.5 342.833007812 454.916992188 346.5 455.75 c 128
 350.166992188 456.583007812 355.166992188 458.666992188 361.5 462 c 1
 384 519 l 1
 461 479 l 1
 113.5 72.5 l 1
EndSplineSet
EndChar

StartChar: braceleft
Encoding: 123 123 73
Width: 497
VWidth: 1024
GlyphClass: 2
Flags: HW
LayerCount: 2
Back
Fore
SplineSet
516 677 m 1
 488.333007812 677 465.5 673.666992188 447.5 667 c 128
 429.5 660.333007812 414.833007812 651.666992188 403.5 641 c 0
 391.833007812 630 382.75 617 376.25 602 c 128
 369.75 587 364.5 571 360.5 554 c 128
 356.5 537 353.083007812 519.333007812 350.25 501 c 128
 347.416992188 482.666992188 343.833007812 464.666992188 339.5 447 c 128
 335.166992188 429.333007812 329.416992188 412.416992188 322.25 396.25 c 128
 315.083007812 380.083007812 305 365.5 292 352.5 c 1
 280.666992188 341.833007812 266.416992188 331.75 249.25 322.25 c 128
 232.083007812 312.75 210.5 304.666992188 184.5 298 c 1
 199.833007812 292.666992188 213.166992188 287.083007812 224.5 281.25 c 128
 235.833007812 275.416992188 245.666992188 268.666992188 254 261 c 0
 264.666992188 251 272.25 239.5 276.75 226.5 c 128
 281.25 213.5 283.666992188 199.666992188 284 185 c 128
 284.333007812 170.333007812 283.25 155 280.75 139 c 128
 278.25 123 275.333007812 107.083007812 272 91.25 c 128
 268.666992188 75.4169921875 265.5 59.8330078125 262.5 44.5 c 128
 259.5 29.1669921875 257.666992188 14.8330078125 257 1.5 c 128
 256.333007812 -11.8330078125 257.416992188 -24 260.25 -35 c 128
 263.083007812 -46 268.833007812 -55.1669921875 277.5 -62.5 c 0
 282.833007812 -67.1669921875 289 -70.8330078125 296 -73.5 c 128
 303 -76.1669921875 310.416992188 -78.25 318.25 -79.75 c 128
 326.083007812 -81.25 334.25 -82.1669921875 342.75 -82.5 c 128
 351.25 -82.8330078125 359.5 -83 367.5 -83 c 1
 359.5 -126 l 1
 340.833007812 -126 322.833007812 -125.583007812 305.5 -124.75 c 128
 288.166992188 -123.916992188 272.083007812 -122 257.25 -119 c 128
 242.416992188 -116 228.916992188 -111.75 216.75 -106.25 c 128
 204.583007812 -100.75 194.166992188 -93.3330078125 185.5 -84 c 0
 175.833007812 -73.6669921875 169.166992188 -61.6669921875 165.5 -48 c 128
 161.833007812 -34.3330078125 160.083007812 -19.8330078125 160.25 -4.5 c 128
 160.416992188 10.8330078125 161.916992188 26.75 164.75 43.25 c 128
 167.583007812 59.75 170.75 76.3330078125 174.25 93 c 128
 177.75 109.666992188 181.083007812 125.916992188 184.25 141.75 c 128
 187.416992188 157.583007812 189.25 172.5 189.75 186.5 c 128
 190.25 200.5 188.916992188 213.333007812 185.75 225 c 128
 182.583007812 236.666992188 176.666992188 246.333007812 168 254 c 0
 162 259.666992188 154.833007812 263.833007812 146.5 266.5 c 128
 138.166992188 269.166992188 129.25 271 119.75 272 c 128
 110.25 273 100.333007812 273.5 90 273.5 c 2
 59.5 273.5 l 1
 68.5 320.5 l 1
 82.5 320.5 95.75 320.666992188 108.25 321 c 128
 120.75 321.333007812 132.333007812 322.5 143 324.5 c 128
 153.666992188 326.5 163.583007812 329.583007812 172.75 333.75 c 128
 181.916992188 337.916992188 190.166992188 343.666992188 197.5 351 c 0
 210.166992188 363 219.916992188 377.916992188 226.75 395.75 c 128
 233.583007812 413.583007812 239.083007812 432.666992188 243.25 453 c 128
 247.416992188 473.333007812 251.333007812 494.416992188 255 516.25 c 128
 258.666992188 538.083007812 263.583007812 559.333007812 269.75 580 c 128
 275.916992188 600.666992188 284.333007812 619.916992188 295 637.75 c 128
 305.666992188 655.583007812 320.333007812 670.666992188 339 683 c 1
 360 697.333007812 385.583007812 707.083007812 415.75 712.25 c 128
 445.916992188 717.416992188 481.833007812 720 523.5 720 c 1
 516 677 l 1
EndSplineSet
EndChar

StartChar: bar
Encoding: 124 124 74
Width: 362
VWidth: 1024
GlyphClass: 2
Flags: HW
LayerCount: 2
Back
Fore
SplineSet
150 -264 m 1
 150 815 l 1
 212 815 l 1
 212 -264 l 1
 150 -264 l 1
EndSplineSet
EndChar

StartChar: braceright
Encoding: 125 125 75
Width: 497
VWidth: 1024
GlyphClass: 2
Flags: HW
LayerCount: 2
Back
Fore
SplineSet
439.5 273.5 m 1
 425.5 273.5 412.25 273.25 399.75 272.75 c 128
 387.25 272.25 375.583007812 271 364.75 269 c 128
 353.916992188 267 344 263.916992188 335 259.75 c 128
 326 255.583007812 317.833007812 249.833007812 310.5 242.5 c 0
 297.833007812 230.5 288.166992188 215.666992188 281.5 198 c 128
 274.833007812 180.333007812 269.333007812 161.333007812 265 141 c 128
 260.666992188 120.666992188 256.75 99.5 253.25 77.5 c 128
 249.75 55.5 244.916992188 34.25 238.75 13.75 c 128
 232.583007812 -6.75 224.166992188 -25.9169921875 213.5 -43.75 c 128
 202.833007812 -61.5830078125 188.333007812 -76.6669921875 170 -89 c 0
 148.333007812 -103.666992188 122.416992188 -113.5 92.25 -118.5 c 128
 62.0830078125 -123.5 26.1669921875 -126 -15.5 -126 c 1
 -8 -83 l 1
 19.6669921875 -83 42.5830078125 -79.6669921875 60.75 -73 c 128
 78.9169921875 -66.3330078125 93.8330078125 -57.6669921875 105.5 -47 c 0
 117.166992188 -36 126.166992188 -23 132.5 -8 c 128
 138.833007812 7 143.916992188 23.0830078125 147.75 40.25 c 128
 151.583007812 57.4169921875 154.833007812 75.1669921875 157.5 93.5 c 128
 160.166992188 111.833007812 163.666992188 129.833007812 168 147.5 c 128
 172.333007812 165.166992188 178.166992188 182.083007812 185.5 198.25 c 128
 192.833007812 214.416992188 203 228.833007812 216 241.5 c 0
 227.333007812 252.833007812 241.583007812 263.083007812 258.75 272.25 c 128
 275.916992188 281.416992188 297.5 289.666992188 323.5 297 c 1
 292.833007812 306 270 318 255 333 c 1
 240.666992188 346.333007812 231.666992188 362.25 228 380.75 c 128
 224.333007812 399.25 223.5 418.833007812 225.5 439.5 c 128
 227.5 460.166992188 231.083007812 481.333007812 236.25 503 c 128
 241.416992188 524.666992188 245.5 545.25 248.5 564.75 c 128
 251.5 584.25 252.25 602 250.75 618 c 128
 249.25 634 242.833007812 646.833007812 231.5 656.5 c 0
 225.833007812 661.166992188 219.416992188 664.833007812 212.25 667.5 c 128
 205.083007812 670.166992188 197.583007812 672.25 189.75 673.75 c 128
 181.916992188 675.25 173.75 676.166992188 165.25 676.5 c 128
 156.75 676.833007812 148.5 677 140.5 677 c 1
 149.5 720 l 1
 167.833007812 720 185.5 719.583007812 202.5 718.75 c 128
 219.5 717.916992188 235.416992188 716 250.25 713 c 128
 265.083007812 710 278.666992188 705.75 291 700.25 c 128
 303.333007812 694.75 313.833007812 687.333007812 322.5 678 c 0
 335.166992188 664 342.833007812 647.416992188 345.5 628.25 c 128
 348.166992188 609.083007812 348.166992188 588.666992188 345.5 567 c 128
 342.833007812 545.333007812 338.833007812 523.333007812 333.5 501 c 128
 328.166992188 478.666992188 324.083007812 457.25 321.25 436.75 c 128
 318.416992188 416.25 317.916992188 397.583007812 319.75 380.75 c 128
 321.583007812 363.916992188 328.333007812 350.333007812 340 340 c 0
 346 334.333007812 353.166992188 330.166992188 361.5 327.5 c 128
 369.833007812 324.833007812 378.75 323 388.25 322 c 128
 397.75 321 407.666992188 320.5 418 320.5 c 2
 448.5 320.5 l 1
 439.5 273.5 l 1
EndSplineSet
EndChar

StartChar: asciitilde
Encoding: 126 126 76
Width: 853
VWidth: 1024
GlyphClass: 2
Flags: HW
LayerCount: 2
Back
Fore
SplineSet
772 313.5 m 1
 752.333007812 299.833007812 734 288.416992188 717 279.25 c 128
 700 270.083007812 683.75 262.666992188 668.25 257 c 128
 652.75 251.333007812 637.75 247.333007812 623.25 245 c 128
 608.75 242.666992188 594.166992188 241.5 579.5 241.5 c 0
 555.166992188 241.5 531 245.083007812 507 252.25 c 128
 483 259.416992188 458.833007812 267.333007812 434.5 276 c 128
 410.166992188 284.666992188 385.5 292.583007812 360.5 299.75 c 128
 335.5 306.916992188 309.833007812 310.5 283.5 310.5 c 0
 257.5 310.5 228.416992188 303.416992188 196.25 289.25 c 128
 164.083007812 275.083007812 130.833007812 255.5 96.5 230.5 c 1
 96.5 297 l 1
 132.833007812 323 167.333007812 341.583007812 200 352.75 c 128
 232.666992188 363.916992188 263 369.5 291 369.5 c 0
 315.666992188 369.5 340.5 365.916992188 365.5 358.75 c 128
 390.5 351.583007812 415.166992188 343.75 439.5 335.25 c 128
 463.833007812 326.75 487.833007812 318.916992188 511.5 311.75 c 128
 535.166992188 304.583007812 558.166992188 301 580.5 301 c 0
 592.833007812 301 605.916992188 302.333007812 619.75 305 c 128
 633.583007812 307.666992188 648.333007812 312.083007812 664 318.25 c 128
 679.666992188 324.416992188 696.416992188 332.5 714.25 342.5 c 128
 732.083007812 352.5 751.333007812 365 772 380 c 1
 772 313.5 l 1
EndSplineSet
EndChar

StartChar: exclam
Encoding: 33 33 83
Width: 346
VWidth: 1024
GlyphClass: 2
Flags: HW
LayerCount: 2
Back
Fore
SplineSet
200.5 50 m 0
 200.5 33.6669921875 194.416992188 19.75 182.25 8.25 c 128
 170.083007812 -3.25 153.666992188 -9 133 -9 c 0
 125.666992188 -9 118.083007812 -7.75 110.25 -5.25 c 128
 102.416992188 -2.75 95.3330078125 1 89 6 c 128
 82.6669921875 11 77.5 17.1669921875 73.5 24.5 c 128
 69.5 31.8330078125 67.5 40.3330078125 67.5 50 c 0
 67.5 59 69.1669921875 67.25 72.5 74.75 c 128
 75.8330078125 82.25 80.5 88.75 86.5 94.25 c 128
 92.5 99.75 99.5 104 107.5 107 c 128
 115.5 110 124 111.5 133 111.5 c 256
 142 111.5 150.583007812 110 158.75 107 c 128
 166.916992188 104 174.083007812 99.8330078125 180.25 94.5 c 128
 186.416992188 89.1669921875 191.333007812 82.75 195 75.25 c 128
 198.666992188 67.75 200.5 59.3330078125 200.5 50 c 0
304 647 m 1
 284.666992188 571.666992188 266.833007812 501.833007812 250.5 437.5 c 0
 243.5 410.166992188 236.5 382.75 229.5 355.25 c 128
 222.5 327.75 216 302 210 278 c 128
 204 254 198.666992188 232.75 194 214.25 c 128
 189.333007812 195.75 185.833007812 182 183.5 173 c 1
 119 173 l 1
 171 615.5 l 2
 172.666992188 628.5 175.25 640.166992188 178.75 650.5 c 128
 182.25 660.833007812 187.166992188 669.666992188 193.5 677 c 128
 199.833007812 684.333007812 207.833007812 689.916992188 217.5 693.75 c 128
 227.166992188 697.583007812 239 699.5 253 699.5 c 0
 287 699.5 304 682 304 647 c 1
EndSplineSet
EndChar

StartChar: quoteleft
Encoding: 8216 8216 84
Width: 324
GlyphClass: 2
Flags: HW
LayerCount: 2
Back
Fore
SplineSet
421 823 m 1
 362.333 785.667 326 735.333 312 672 c 1
 366 608 l 1
 281 540 l 1
 223 611 l 1
 268.206 688.941 299.872 727.279 399 842 c 1
 421 823 l 1
EndSplineSet
EndChar

StartChar: u25CC
Encoding: 9676 9676 85
Width: 747
GlyphClass: 2
Flags: HW
LayerCount: 2
Back
Fore
SplineSet
721 436 m 0
 725.667 416 716.333 398.667 693 384 c 0
 687 380.667 677 379 663 379 c 0
 646.333 379 635.667 382.667 631 390 c 1
 629.472 408.34 660.275 453 693 453 c 0
 708.333 453 717.667 447.333 721 436 c 0
626 541 m 0
 629.871 541 651 539.434 651 511 c 0
 651 501.667 647.667 492.333 641 483 c 1
 635.534 477.534 596.788 449.168 578 456 c 1
 575.333 461.333 574 468 574 476 c 0
 574 527.939 609.577 541 626 541 c 0
512 567 m 0
 543.306 567 560.265 531.744 524.5 497 c 128
 512.833 485.667 502 480 492 480 c 0
 459.866 480 462.164 567 512 567 c 0
642 293 m 1
 646.858 310.005 675.77 328 699 328 c 256
 721.091 328 735.019 315.773 731 293 c 1
 724.776 275.572 701.953 257 684 257 c 0
 662.193 257 642 273.117 642 293 c 1
673 179 m 0
 673 162.6 660.325 138 625 138 c 0
 601.518 138 591 164.617 591 183 c 0
 591 205.4 616.2 211 633 211 c 0
 645.667 211 654.333 209.333 659 206 c 0
 668.333 198.667 673 189.667 673 179 c 0
413 514 m 1
 420.164 498.238 408.808 466.748 390 456 c 1
 376.566 450.402 351.586 457.827 341 479 c 1
 338.402 497.184 348.751 537 381 537 c 0
 397.667 537 408.333 529.333 413 514 c 1
565 105 m 1
 569.185 90.3521 565.699 65.6394 542 53 c 1
 534.667 51.6667 529.333 51 526 51 c 0
 511.333 51 500.333 57.3333 493 70 c 1
 485.219 93.3442 496.286 122.449 513 132 c 1
 530.938 139.474 559.039 120.5 565 105 c 1
319 409 m 0
 319 399.512 313.348 374 277 374 c 0
 257.597 374 238 380.6 238 407 c 0
 238 419.6 246.4 449 280 449 c 0
 306.613 449 319 432.638 319 409 c 0
228 333 m 0
 264.163 333 290.643 297.337 247.5 273 c 128
 234.5 265.667 222 262 210 262 c 0
 191.822 262 176.317 276.689 182 298 c 1
 186.667 321.333 202 333 228 333 c 0
447 58 m 1
 444.545 38.3636 422.484 17 399 17 c 0
 379.983 17 370.355 36.8368 373 58 c 1
 377.815 76.0556 399.4 106 417 106 c 0
 439.068 106 451.853 76.1988 447 58 c 1
243 218 m 0
 310.306 218 252.059 143 218 143 c 0
 203.333 143 192.333 149.333 185 162 c 1
 179.667 181.333 189.333 197.333 214 210 c 1
 221.333 215.333 231 218 243 218 c 0
337 113 m 0
 337 93.425 325.4 55 279 55 c 2
 271 55 l 1
 267.667 56.3333 265.667 57 265 57 c 0
 259 63 256 70 256 78 c 0
 256 88 260.667 99 270 111 c 1
 279.074 125.26 316.208 139.685 329 134 c 1
 334.333 130 337 123 337 113 c 0
125 682 m 1
 113 619 l 1
 955 619 l 1
 967 682 l 1
 125 682 l 1
EndSplineSet
EndChar

StartChar: u0950
Encoding: 2384 2384 86
Width: 992
GlyphClass: 2
Flags: HW
LayerCount: 2
Back
Fore
SplineSet
788 951 m 1
 711 889 l 1
 664 949 l 1
 738 1012 l 1
 788 951 l 1
502 935 m 1
 510.625 910.276 538 807 682 807 c 0
 741.333 807 797.333 832.667 850 884 c 0
 866.667 900.667 887 926 911 960 c 1
 955 903 l 1
 929 867.667 906.333 841.667 887 825 c 0
 827.667 773 764 747 696 747 c 0
 565.8 747 486.883 903.234 479 919 c 1
 502 935 l 1
863 648 m 0
 936.563 648 1018 552.364 1018 441 c 0
 1018 426.333 1015.33 412.333 1010 399 c 1
 965.64 187.437 851.51 168 795 168 c 0
 749.562 168 691 254.077 691 276 c 1
 710 292 l 1
 713.601 275.435 725.4 222 787 222 c 0
 892 222 962 467.118 962 509 c 0
 962 559.4 922.9 572 880 572 c 0
 833.333 572 784.167 529.333 732.5 444 c 128
 680.833 358.667 626.333 316 569 316 c 0
 556.414 316 514.297 338.483 496 358 c 1
 518.601 318.825 541 269.8 541 211 c 0
 541 107.46 475.953 21 369 21 c 0
 250.575 21 186.953 172.715 156 291 c 1
 138 387 l 1
 168 403 l 2
 167.333 402.333 167 396 167 384 c 0
 167 288.757 202.6 104 345 104 c 0
 387.561 104 463.463 127.644 483 203 c 0
 486.333 218.333 488 236 488 256 c 0
 488 329.049 458.69 382.693 449 387 c 1
 438.652 381.826 413.997 374.857 401 373 c 1
 341 359 l 1
 316 440 l 1
 326.667 434.667 360.333 438.833 417 452.5 c 128
 497.947 472.023 517 506.902 517 559 c 0
 517 607.626 479.648 619 426 619 c 0
 379.258 619 328.618 600.824 280 574 c 1
 257 651 l 1
 267.881 660.672 372.653 682 410 682 c 0
 498.034 682 551 616.672 551 533 c 0
 551 427.435 491.053 411.843 470 395 c 1
 498 373 l 1
 508 367 519.333 364 532 364 c 0
 581.333 364 634.833 411.333 692.5 506 c 128
 750.167 600.667 807 648 863 648 c 0
EndSplineSet
EndChar

StartChar: u093D
Encoding: 2365 2365 87
Width: 667
GlyphClass: 2
Flags: HW
LayerCount: 2
Back
Fore
SplineSet
611 180 m 0
 611 55.6128 500.398 -51 343 -51 c 0
 236.2 -51 130.957 36.3754 76 82 c 1
 92 97 l 1
 94.2408 79.0738 192.955 -8 311 -8 c 0
 487 -8 531 118.035 531 207 c 0
 531 263.667 504 314.333 450 359 c 1
 296 459 l 1
 241.333 496.333 214 533.667 214 571 c 0
 214 590.793 215.444 619.626 252.5 650 c 128
 272.833 666.667 293.667 675 315 675 c 2
 651 675 l 1
 636 603 l 1
 349 603 l 2
 317.64 603 287 595.753 287 543 c 0
 287 512.333 315 477.667 371 439 c 2
 527 332 l 1
 583 284.667 611 234 611 180 c 0
EndSplineSet
EndChar

StartChar: u0903
Encoding: 2307 2307 88
Width: 324
GlyphClass: 2
Flags: HW
LayerCount: 2
Back
Fore
SplineSet
512 617 m 1
 104 617 l 1
 116 680 l 1
 524 680 l 1
 512 617 l 1
334 399 m 1
 246 325 l 1
 188 407 l 1
 278 474 l 1
 334 399 l 1
278 137 m 1
 192 66 l 1
 135 142 l 1
 223 212 l 1
 278 137 l 1
EndSplineSet
EndChar

StartChar: quoteright
Encoding: 8217 8217 89
Width: 324
GlyphClass: 2
Flags: HW
LayerCount: 2
Back
Fore
SplineSet
227 561 m 1
 261.776 589.197 320.046 648.991 333 717 c 1
 277 780 l 1
 363 852 l 1
 422 774 l 1
 398 735.333 370.333 696 339 656 c 0
 314.333 623.333 283.333 586.667 246 546 c 1
 227 561 l 1
EndSplineSet
EndChar

StartChar: parenleft
Encoding: 40 40 90
Width: 429
VWidth: 1024
GlyphClass: 2
Flags: HW
LayerCount: 2
Back
Fore
SplineSet
469 688 m 1
 440.666992188 684.333007812 414.75 675.5 391.25 661.5 c 128
 367.75 647.5 346.416992188 629.916992188 327.25 608.75 c 128
 308.083007812 587.583007812 290.916992188 563.583007812 275.75 536.75 c 128
 260.583007812 509.916992188 247.333007812 481.75 236 452.25 c 128
 224.666992188 422.75 215 392.666992188 207 362 c 128
 199 331.333007812 192.5 301.5 187.5 272.5 c 128
 182.5 243.5 178.833007812 216.166992188 176.5 190.5 c 128
 174.166992188 164.833007812 173 142.333007812 173 123 c 0
 173 85 176.75 52.9169921875 184.25 26.75 c 128
 191.75 0.5830078125 202.083007812 -21.1669921875 215.25 -38.5 c 128
 228.416992188 -55.8330078125 243.833007812 -69.25 261.5 -78.75 c 128
 279.166992188 -88.25 298.166992188 -95.1669921875 318.5 -99.5 c 1
 309 -146.5 l 1
 274.333007812 -144.5 242.583007812 -136.083007812 213.75 -121.25 c 128
 184.916992188 -106.416992188 160 -86.4169921875 139 -61.25 c 128
 118 -36.0830078125 101.666992188 -6.25 90 28.25 c 128
 78.3330078125 62.75 72.5 100.833007812 72.5 142.5 c 0
 72.5 183.166992188 76.1669921875 225.5 83.5 269.5 c 128
 90.8330078125 313.5 101.833007812 356.75 116.5 399.25 c 128
 131.166992188 441.75 149.666992188 482.416992188 172 521.25 c 128
 194.333007812 560.083007812 220.5 594.666992188 250.5 625 c 128
 280.5 655.333007812 314.5 680.25 352.5 699.75 c 128
 390.5 719.25 432.333007812 731 478 735 c 1
 469 688 l 1
EndSplineSet
EndChar

StartChar: parenright
Encoding: 41 41 91
Width: 428
VWidth: 1024
GlyphClass: 2
Flags: HW
LayerCount: 2
Back
Fore
SplineSet
355.5 454.5 m 0
 355.5 397.833007812 350.75 344.333007812 341.25 294 c 128
 331.75 243.666992188 318.416992188 197 301.25 154 c 128
 284.083007812 111 263.25 71.9169921875 238.75 36.75 c 128
 214.25 1.5830078125 187.083007812 -28.8330078125 157.25 -54.5 c 128
 127.416992188 -80.1669921875 95.0830078125 -100.916992188 60.25 -116.75 c 128
 25.4169921875 -132.583007812 -11 -142.833007812 -49 -147.5 c 1
 -40 -98.5 l 1
 -10.3330078125 -94.5 16.5830078125 -85.0830078125 40.75 -70.25 c 128
 64.9169921875 -55.4169921875 86.75 -36.8330078125 106.25 -14.5 c 128
 125.75 7.8330078125 142.916992188 33.0830078125 157.75 61.25 c 128
 172.583007812 89.4169921875 185.5 118.75 196.5 149.25 c 128
 207.5 179.75 216.75 210.583007812 224.25 241.75 c 128
 231.75 272.916992188 237.75 302.75 242.25 331.25 c 128
 246.75 359.75 250 386.083007812 252 410.25 c 128
 254 434.416992188 255 454.666992188 255 471 c 0
 255 481.333007812 254.333007812 493.333007812 253 507 c 128
 251.666992188 520.666992188 249.25 535 245.75 550 c 128
 242.25 565 237.166992188 580 230.5 595 c 128
 223.833007812 610 215.166992188 623.833007812 204.5 636.5 c 128
 193.833007812 649.166992188 180.75 660.083007812 165.25 669.25 c 128
 149.75 678.416992188 131.5 684.666992188 110.5 688 c 1
 120 735 l 1
 156.333007812 731 187.416992188 722.5 213.25 709.5 c 128
 239.083007812 696.5 260.75 681.166992188 278.25 663.5 c 128
 295.75 645.833007812 309.583007812 626.666992188 319.75 606 c 128
 329.916992188 585.333007812 337.666992188 565.333007812 343 546 c 128
 348.333007812 526.666992188 351.75 508.833007812 353.25 492.5 c 128
 354.75 476.166992188 355.5 463.5 355.5 454.5 c 0
EndSplineSet
EndChar

StartChar: u0964
Encoding: 2404 2404 92
Width: 732
GlyphClass: 2
Flags: HW
LayerCount: 2
Back
Fore
SplineSet
463 -49 m 1
 393 11 l 1
 559 797 l 1
 629 737 l 1
 463 -49 l 1
EndSplineSet
EndChar

StartChar: u0905
Encoding: 2309 2309 112
Width: 812
GlyphClass: 2
Flags: HW
LayerCount: 2
Back
Fore
SplineSet
488 411 m 1
 499.425 374.187 537.627 343 594 343 c 0
 646.4 343 689.316 363.176 725 388 c 1
 774 614 l 1
 648 614 l 1
 634 677 l 1
 1040 677 l 1
 1030 617 l 1
 860 617 l 1
 719 -49 l 1
 649 11 l 1
 710 300 l 1
 675.835 289.067 656 287 620 287 c 1
 598 288.333 574.667 298.667 550 318 c 0
 542 323.333 532 332.333 520 345 c 1
 528.24 328.52 538 288.6 538 251 c 0
 538 78.1219 418.183 26 326 26 c 0
 237.333 26 174.333 89.3333 137 216 c 0
 105 324.667 96.3333 390 111 412 c 1
 141 423 l 1
 135.667 417.667 133 394 133 352 c 0
 133 208.043 188.069 102 310 102 c 0
 436.816 102 496 216.445 496 303 c 0
 496 349.174 477.819 382.492 466 396 c 1
 429.883 379.489 387.4 365 335 365 c 1
 303 440 l 1
 346.333 444.667 379 450 401 456 c 0
 484.815 482.295 519 532.8 519 584 c 0
 519 608.103 507.108 626 441 626 c 0
 388.921 626 302.182 587.472 288 572 c 1
 265 651 l 1
 275.21 658.941 358.859 688 410 688 c 0
 482.72 688 568 627.941 568 542 c 0
 568 490.058 542.054 453.303 488 411 c 1
EndSplineSet
EndChar

StartChar: comma
Encoding: 44 44 113
Width: 286
VWidth: 1024
GlyphClass: 2
Flags: HW
LayerCount: 2
Back
Fore
SplineSet
163 48 m 0
 163 19 156.833007812 -8.3330078125 144.5 -34 c 128
 132.166992188 -59.6669921875 115.75 -82.5 95.25 -102.5 c 128
 74.75 -122.5 51.3330078125 -138.833007812 25 -151.5 c 128
 -1.3330078125 -164.166992188 -28.5 -171.666992188 -56.5 -174 c 1
 -49 -137 l 1
 -28 -132.666992188 -9.5830078125 -126.583007812 6.25 -118.75 c 128
 22.0830078125 -110.916992188 35.75 -101.25 47.25 -89.75 c 128
 58.75 -78.25 68.1669921875 -64.5 75.5 -48.5 c 128
 82.8330078125 -32.5 88.3330078125 -14 92 7 c 1
 27.5 7 l 1
 23.8330078125 11.6669921875 21.25 16.9169921875 19.75 22.75 c 128
 18.25 28.5830078125 17.5 34.3330078125 17.5 40 c 0
 17.5 50.3330078125 19.6669921875 60.5830078125 24 70.75 c 128
 28.3330078125 80.9169921875 34.0830078125 90 41.25 98 c 128
 48.4169921875 106 56.75 112.5 66.25 117.5 c 128
 75.75 122.5 85.8330078125 125 96.5 125 c 0
 108.5 125 118.75 123.083007812 127.25 119.25 c 128
 135.75 115.416992188 142.583007812 110 147.75 103 c 128
 152.916992188 96 156.75 87.8330078125 159.25 78.5 c 128
 161.75 69.1669921875 163 59 163 48 c 0
EndSplineSet
EndChar

StartChar: hyphen
Encoding: 45 45 114
Width: 326
VWidth: 1024
GlyphClass: 2
Flags: HW
LayerCount: 2
Back
Fore
SplineSet
276.5 212 m 1
 30.5 212 l 1
 44 281.5 l 1
 290 281.5 l 1
 276.5 212 l 1
EndSplineSet
EndChar

StartChar: period
Encoding: 46 46 115
Width: 286
VWidth: 1024
GlyphClass: 2
Flags: HW
LayerCount: 2
Back
Fore
SplineSet
155.5 56.5 m 0
 155.5 46.8330078125 153.666992188 37.8330078125 150 29.5 c 128
 146.333007812 21.1669921875 141.333007812 13.9169921875 135 7.75 c 128
 128.666992188 1.5830078125 121.25 -3.3330078125 112.75 -7 c 128
 104.25 -10.6669921875 95.3330078125 -12.5 86 -12.5 c 0
 76.3330078125 -12.5 67.4169921875 -10.6669921875 59.25 -7 c 128
 51.0830078125 -3.3330078125 44 1.5830078125 38 7.75 c 128
 32 13.9169921875 27.25 21.1669921875 23.75 29.5 c 128
 20.25 37.8330078125 18.5 46.8330078125 18.5 56.5 c 0
 18.5 65.8330078125 20.25 74.6669921875 23.75 83 c 128
 27.25 91.3330078125 32 98.5830078125 38 104.75 c 128
 44 110.916992188 51.0830078125 115.833007812 59.25 119.5 c 128
 67.4169921875 123.166992188 76.3330078125 125 86 125 c 0
 95.3330078125 125 104.25 123.166992188 112.75 119.5 c 128
 121.25 115.833007812 128.666992188 110.916992188 135 104.75 c 128
 141.333007812 98.5830078125 146.333007812 91.3330078125 150 83 c 128
 153.666992188 74.6669921875 155.5 65.8330078125 155.5 56.5 c 0
EndSplineSet
EndChar

StartChar: slash
Encoding: 47 47 116
Width: 502
VWidth: 1024
GlyphClass: 2
Flags: HW
LayerCount: 2
Back
Fore
SplineSet
65.5 -95 m 1
 0 -95 l 1
 436 687 l 1
 502 687 l 1
 65.5 -95 l 1
EndSplineSet
EndChar

StartChar: u0966
Encoding: 2406 2406 117
Width: 667
GlyphClass: 2
Flags: HW
LayerCount: 2
Back
Fore
SplineSet
457 568 m 0
 572.594 568 649 490.717 649 382 c 2
 649 354 l 1
 646.333 344.667 645 338.667 645 336 c 0
 617.331 205.558 486.095 96 350 96 c 0
 234.829 96 163 178.018 163 291 c 2
 163 312 l 130
 163 313.931 165.04 419.147 273 502 c 128
 330.333 546 391.667 568 457 568 c 0
208 248 m 0
 208 181.6 258.001 165 342 165 c 0
 428.073 165 594 249.706 594 425 c 0
 594 472.663 577.041 501 462 501 c 0
 382.781 501 233.682 398.581 217 311 c 0
 213.993 297.471 208 268.648 208 248 c 0
EndSplineSet
EndChar

StartChar: u0967
Encoding: 2407 2407 118
Width: 667
GlyphClass: 2
Flags: HW
LayerCount: 2
Back
Fore
SplineSet
295 203 m 1
 378.045 119.14 488 13.4821 488 -64 c 0
 488 -70 486.667 -75.6667 484 -81 c 1
 474.682 -118.271 455.519 -132.361 448 -138 c 1
 381 -88 l 1
 428.939 -58.2446 431.001 -27.8017 346 81 c 0
 303.333 135.667 260.333 183 217 223 c 1
 279.432 270.567 353.812 341.142 383 375 c 1
 328.081 407.952 255 467.4 255 529 c 0
 255 595.549 334.633 683 418 683 c 0
 507.239 683 560 600.529 560 532 c 0
 560 497.6 546.747 451.747 455 360 c 1
 295 203 l 1
407 402 m 1
 428.846 419.945 497 493.731 497 570 c 0
 497 612 476.667 633 436 633 c 0
 398.148 633 334.382 585.756 323 526 c 0
 315.455 483.747 354.499 438.522 407 402 c 1
EndSplineSet
EndChar

StartChar: u0968
Encoding: 2408 2408 119
Width: 667
GlyphClass: 2
Flags: HW
LayerCount: 2
Back
Fore
SplineSet
604 439 m 0
 573.197 276.583 430.536 221.119 375 202 c 1
 516 -65 l 1
 455 -100 l 1
 356 203 l 1
 336 203 l 2
 267.552 203 207 216.972 207 267 c 0
 207 303.512 235.814 358 288 358 c 0
 332.4 358 351.396 330.326 362 297 c 1
 427.793 297 569 362.862 569 494 c 0
 569 578.164 491.523 611 397 611 c 0
 317.923 611 268.102 583.148 239 563 c 1
 205 640 l 1
 277.802 674.485 346.339 684 407 684 c 0
 525.666 684 606 565.491 606 466 c 2
 606 452 l 1
 604.667 446 604 441.667 604 439 c 0
EndSplineSet
EndChar

StartChar: u0969
Encoding: 2409 2409 120
Width: 667
GlyphClass: 2
Flags: HW
LayerCount: 2
Back
Fore
SplineSet
562 208 m 0
 562 119.406 438.236 28 355 28 c 1
 505 -155 l 1
 454 -183 l 1
 330 22 l 1
 307 22 l 2
 236.299 22 175 30.0413 175 84 c 0
 175 136.419 218.177 178 254 178 c 0
 298.752 178 336.059 134.874 328 113 c 1
 340 109.667 369.667 117.667 417 137 c 0
 513.994 178.08 514 225.281 514 246 c 0
 514 299.604 469.715 359.643 463 363 c 1
 427.75 363 364.3 341 322 341 c 1
 296 429 l 1
 304.928 427.214 316.636 427 326 427 c 0
 442.574 427 552.986 453.015 572 524 c 0
 574.667 536.667 576 547.667 576 557 c 0
 576 594.8 561.702 620 458 620 c 2
 430 620 l 2
 375.543 620 297.811 594.953 274 589 c 1
 265 667 l 1
 309.667 684.333 357 693 407 693 c 0
 488.822 693 611 664.6 611 551 c 0
 611 534.098 612.688 492.194 571 438 c 0
 546.333 405.333 523.333 384.333 502 375 c 1
 509.939 367.061 562 258.749 562 208 c 0
EndSplineSet
EndChar

StartChar: u096A
Encoding: 2410 2410 121
Width: 667
GlyphClass: 2
Flags: HW
LayerCount: 2
Back
Fore
SplineSet
625 594 m 0
 625 627.6 614.172 633.804 600 650 c 1
 623 671 l 1
 666 629 l 1
 678.667 609.667 685 590 685 570 c 0
 685 559.333 685.667 551.667 687 547 c 1
 673.558 487.256 483.822 354 474 354 c 1
 485.07 354 558 280.133 558 217 c 0
 558 160.078 494.879 42 372 42 c 0
 303.822 42 237 102.641 237 187 c 0
 237 226.4 250.002 288.001 397 384 c 1
 357.111 424.687 246.94 535.848 258 587 c 0
 263.333 611 276 633 296 653 c 1
 327 677 l 1
 381 634 l 1
 349.611 622.7 311.405 598.077 306 567 c 0
 294.613 511.49 390.77 425.511 420 399 c 1
 424.995 402.227 614.307 522.538 621 556 c 128
 623.667 569.333 625 582 625 594 c 0
339 80 m 0
 429.619 80 500 173.457 500 254 c 0
 500 298.667 480.333 327.333 441 340 c 1
 416.079 340 296.244 231.628 287.5 189.5 c 128
 283.833 171.833 282 157.667 282 147 c 0
 282 102.333 301 80 339 80 c 0
EndSplineSet
EndChar

StartChar: u096B
Encoding: 2411 2411 122
Width: 667
GlyphClass: 2
Flags: HW
LayerCount: 2
Back
Fore
SplineSet
303 397 m 0
 303 336.153 324.46 309 384 309 c 0
 409.856 309 462.284 326.602 472 332 c 1
 466 339.333 477.167 363.5 505.5 404.5 c 128
 533.833 445.5 563.667 466 595 466 c 0
 617 466 628 456.667 628 438 c 0
 628 427.333 625.333 411.333 620 390 c 1
 614.667 360.667 596.667 333 566 307 c 0
 522.667 269 489.333 250 466 250 c 1
 357 10 l 1
 534 -95 l 1
 504 -137 l 1
 341 -17 l 1
 316.447 -45.0608 290.289 -59 259 -59 c 0
 227.196 -59 208 -38.3981 208 -11 c 0
 208 7.875 220.6 48 271 48 c 0
 301 48 313.634 40.8927 321 35 c 1
 433 243 l 1
 429.566 241.283 407.2 238 390 238 c 0
 292.929 238 251 337.128 251 443 c 0
 251 530.802 278.355 584.37 313 645 c 1
 357 717 l 1
 429 670 l 1
 333.114 547.963 303 498.562 303 397 c 0
EndSplineSet
EndChar

StartChar: u096C
Encoding: 2412 2412 123
Width: 667
GlyphClass: 2
Flags: HW
LayerCount: 2
Back
Fore
SplineSet
579 169 m 0
 579 113.4 541.91 64.1575 480 30 c 1
 579 -163 l 1
 529 -193 l 1
 464 18 l 1
 437.5 13.5 l 130
 427.833 11.8333 418 11 408 11 c 0
 356.667 11 310 32.8333 268 76.5 c 128
 226 120.167 205 171.667 205 231 c 0
 205 297.313 233.488 354.99 276 390 c 1
 309.333 408.667 326.333 418.333 327 419 c 1
 258.484 480.175 247 527.8 247 555 c 0
 247 613.434 300.176 677 367 677 c 2
 618 677 l 1
 636 607 l 1
 386 607 l 2
 349.725 607 317.167 564.729 313 546.5 c 128
 310.333 534.833 309 522.667 309 510 c 0
 309 460.95 340.2 425 348 425 c 2
 538 425 l 1
 559 354 l 1
 396 354 l 2
 340.211 354 258 300.578 258 185 c 0
 258 112.2 306.125 94 384 94 c 0
 417.333 94 437.667 115.333 445 158 c 128
 452.333 200.667 475.333 222 514 222 c 0
 545.3 222 579 211.4 579 169 c 0
EndSplineSet
EndChar

StartChar: u096D
Encoding: 2413 2413 124
Width: 585
GlyphClass: 2
Flags: HW
LayerCount: 2
Back
Fore
SplineSet
502 567 m 0
 597.421 567 642 489.714 642 383 c 0
 642 359 640.333 335.333 637 312 c 1
 600.78 149.011 499.976 -13 326 -13 c 0
 145.2 -13 100 116.8 100 255 c 0
 100 393 147.938 534.552 172 600 c 1
 216 600 l 1
 176 560 129 396.777 129 287 c 0
 129 137.305 197.442 58 343 58 c 0
 405 58 457 81.3333 499 128 c 1
 529.667 176 545.667 201.333 547 204 c 1
 501.667 216.667 468 229 446 241 c 0
 378 279 344 329.667 344 393 c 0
 344 486.415 406.552 567 502 567 c 0
511 507 m 0
 457.634 507 405 447.532 405 361 c 0
 405 253.8 511.159 235.988 557 227 c 1
 583.886 269.083 609 334.038 609 398 c 0
 609 449.83 589.4 507 511 507 c 0
EndSplineSet
EndChar

StartChar: u096E
Encoding: 2414 2414 125
Width: 667
GlyphClass: 2
Flags: HW
LayerCount: 2
Back
Fore
SplineSet
434 126 m 0
 506.634 126 617 117.101 617 45 c 0
 617 37 615.667 31.6667 613 29 c 1
 607.253 -14.1033 599.083 -21.3958 543 -56 c 1
 520 -19 l 1
 569.089 -9.18229 574.94 10.4064 578 28 c 0
 579.296 39.6625 565 44 513 44 c 2
 457 44 l 2
 372.253 44 251 103.348 251 245 c 0
 251 316.983 277.718 409.026 354 467 c 1
 209 467 l 1
 209 535 l 1
 666 535 l 1
 662 467 l 1
 472 467 l 2
 398.917 467 293 348.782 293 244 c 0
 293 175.39 350.746 126 434 126 c 0
EndSplineSet
EndChar

StartChar: u096F
Encoding: 2415 2415 126
Width: 667
GlyphClass: 2
Flags: HW
LayerCount: 2
Back
Fore
SplineSet
431 99 m 2
 588.872 99 612 40.8 612 2 c 0
 612 -3.33333 611.333 -11.3333 610 -22 c 1
 599.611 -63.5571 579.542 -72.2223 547 -88 c 1
 529 -65 l 1
 551.372 -55.1562 569.133 -52.2679 575 -20 c 0
 577.206 -3.45397 526.112 27 433 27 c 0
 322.905 27 227 43.7857 227 174 c 0
 227 270.224 256.286 322.123 306 360 c 1
 186 358 l 1
 184 426 l 1
 343 426 l 1
 319.462 441.692 308 465.696 308 501 c 0
 308 528.8 317.238 607.06 389 640 c 0
 419.667 654 462 661 516 661 c 0
 547.6 661 563.4 660 595 660 c 1
 593 595 l 1
 537.5 599.5 l 130
 517.167 601.167 497.667 602 479 602 c 0
 395.286 602 342 536.811 342 488 c 0
 342 450.2 379.373 428.976 386 425 c 1
 643 425 l 1
 639 360 l 1
 427 360 l 2
 388.665 360 287.596 265.58 275 204 c 0
 272.333 190 271 178.333 271 169 c 0
 271 113 308 99 381 99 c 2
 431 99 l 2
EndSplineSet
EndChar

StartChar: colon
Encoding: 58 58 127
Width: 286
VWidth: 1024
GlyphClass: 2
Flags: HW
LayerCount: 2
Back
Fore
SplineSet
155.5 56.5 m 0
 155.5 46.8330078125 153.666992188 37.8330078125 150 29.5 c 128
 146.333007812 21.1669921875 141.333007812 13.9169921875 135 7.75 c 128
 128.666992188 1.5830078125 121.25 -3.3330078125 112.75 -7 c 128
 104.25 -10.6669921875 95.3330078125 -12.5 86 -12.5 c 0
 76.3330078125 -12.5 67.4169921875 -10.6669921875 59.25 -7 c 128
 51.0830078125 -3.3330078125 43.8330078125 1.5830078125 37.5 7.75 c 128
 31.1669921875 13.9169921875 26.25 21.1669921875 22.75 29.5 c 128
 19.25 37.8330078125 17.5 46.8330078125 17.5 56.5 c 0
 17.5 65.8330078125 19.25 74.6669921875 22.75 83 c 128
 26.25 91.3330078125 31.1669921875 98.5830078125 37.5 104.75 c 128
 43.8330078125 110.916992188 51.0830078125 115.833007812 59.25 119.5 c 128
 67.4169921875 123.166992188 76.3330078125 125 86 125 c 0
 95.3330078125 125 104.25 123.166992188 112.75 119.5 c 128
 121.25 115.833007812 128.666992188 110.916992188 135 104.75 c 128
 141.333007812 98.5830078125 146.333007812 91.3330078125 150 83 c 128
 153.666992188 74.6669921875 155.5 65.8330078125 155.5 56.5 c 0
230.5 437 m 256
 230.5 427.666992188 228.666992188 418.833007812 225 410.5 c 128
 221.333007812 402.166992188 216.333007812 394.916992188 210 388.75 c 128
 203.666992188 382.583007812 196.25 377.666992188 187.75 374 c 128
 179.25 370.333007812 170.333007812 368.5 161 368.5 c 0
 151.333007812 368.5 142.333007812 370.333007812 134 374 c 128
 125.666992188 377.666992188 118.416992188 382.583007812 112.25 388.75 c 128
 106.083007812 394.916992188 101.166992188 402.166992188 97.5 410.5 c 128
 93.8330078125 418.833007812 92 427.666992188 92 437 c 256
 92 446.333007812 93.8330078125 455.25 97.5 463.75 c 128
 101.166992188 472.25 106.083007812 479.583007812 112.25 485.75 c 128
 118.416992188 491.916992188 125.666992188 496.833007812 134 500.5 c 128
 142.333007812 504.166992188 151.333007812 506 161 506 c 0
 170.333007812 506 179.25 504.166992188 187.75 500.5 c 128
 196.25 496.833007812 203.666992188 491.916992188 210 485.75 c 128
 216.333007812 479.583007812 221.333007812 472.25 225 463.75 c 128
 228.666992188 455.25 230.5 446.333007812 230.5 437 c 256
EndSplineSet
EndChar

StartChar: semicolon
Encoding: 59 59 128
Width: 286
VWidth: 1024
GlyphClass: 2
Flags: HW
LayerCount: 2
Back
Fore
SplineSet
163 49 m 0
 163 20 156.833007812 -7.5 144.5 -33.5 c 128
 132.166992188 -59.5 115.75 -82.5 95.25 -102.5 c 128
 74.75 -122.5 51.3330078125 -138.833007812 25 -151.5 c 128
 -1.3330078125 -164.166992188 -28.5 -171.666992188 -56.5 -174 c 1
 -49 -137 l 1
 -28 -132.666992188 -9.5830078125 -126.666992188 6.25 -119 c 128
 22.0830078125 -111.333007812 35.75 -101.75 47.25 -90.25 c 128
 58.75 -78.75 68.1669921875 -65 75.5 -49 c 128
 82.8330078125 -33 88.3330078125 -14.3330078125 92 7 c 1
 27.5 7 l 1
 23.8330078125 11.6669921875 21.25 17.25 19.75 23.75 c 128
 18.25 30.25 17.5 36.3330078125 17.5 42 c 0
 17.5 52 19.6669921875 61.9169921875 24 71.75 c 128
 28.3330078125 81.5830078125 34.1669921875 90.5 41.5 98.5 c 128
 48.8330078125 106.5 57.25 112.916992188 66.75 117.75 c 128
 76.25 122.583007812 86.1669921875 125 96.5 125 c 0
 108.166992188 125 118.25 123.083007812 126.75 119.25 c 128
 135.25 115.416992188 142.166992188 110.083007812 147.5 103.25 c 128
 152.833007812 96.4169921875 156.75 88.3330078125 159.25 79 c 128
 161.75 69.6669921875 163 59.6669921875 163 49 c 0
230.5 437 m 256
 230.5 427.666992188 228.666992188 418.833007812 225 410.5 c 128
 221.333007812 402.166992188 216.333007812 394.916992188 210 388.75 c 128
 203.666992188 382.583007812 196.25 377.666992188 187.75 374 c 128
 179.25 370.333007812 170.333007812 368.5 161 368.5 c 0
 151.333007812 368.5 142.333007812 370.333007812 134 374 c 128
 125.666992188 377.666992188 118.416992188 382.583007812 112.25 388.75 c 128
 106.083007812 394.916992188 101.166992188 402.166992188 97.5 410.5 c 128
 93.8330078125 418.833007812 92 427.666992188 92 437 c 256
 92 446.333007812 93.8330078125 455.25 97.5 463.75 c 128
 101.166992188 472.25 106.083007812 479.583007812 112.25 485.75 c 128
 118.416992188 491.916992188 125.666992188 496.833007812 134 500.5 c 128
 142.333007812 504.166992188 151.333007812 506 161 506 c 0
 170.333007812 506 179.25 504.166992188 187.75 500.5 c 128
 196.25 496.833007812 203.666992188 491.916992188 210 485.75 c 128
 216.333007812 479.583007812 221.333007812 472.25 225 463.75 c 128
 228.666992188 455.25 230.5 446.333007812 230.5 437 c 256
EndSplineSet
EndChar

StartChar: u0907
Encoding: 2311 2311 130
Width: 487
GlyphClass: 2
Flags: HW
LayerCount: 2
Back
Fore
SplineSet
423 189 m 0
 423 248.2 369.7 263 328 263 c 0
 287.333 263 250.333 250 217 224 c 1
 199.685 224 114.58 359.416 122 398 c 0
 134.083 456.218 167.215 512 232 512 c 2
 415 512 l 1
 437 618 l 1
 106 618 l 1
 118 681 l 1
 741 681 l 1
 726 617 l 1
 511 617 l 1
 475 445 l 1
 231 445 l 2
 186.718 445 162 406.833 162 368 c 0
 162 332 176 311.333 204 306 c 1
 234.667 320 266.667 327 300 327 c 0
 391.37 327 469 278.097 469 193 c 0
 469 182.333 467.667 171.667 465 161 c 0
 457.667 117.667 435 79.6667 397 47 c 0
 347.667 5.66667 306 -15 272 -15 c 1
 406 -161 l 1
 362 -196 l 1
 256 -22 l 1
 251.333 -26.6667 234.333 -29 205 -29 c 0
 151.85 -29 81 -14.8 81 42 c 0
 81 88.6375 118.159 126 161 126 c 0
 216.918 126 244.982 79.8037 244 69 c 1
 336.317 82.9346 423 105.621 423 189 c 0
EndSplineSet
EndChar

StartChar: u0909
Encoding: 2313 2313 131
Width: 602
GlyphClass: 2
Flags: HW
LayerCount: 2
Back
Fore
SplineSet
538 544 m 4
 538 555.502 536.098 592.322 499 622 c 5
 105 622 l 5
 117 685 l 5
 852 685 l 5
 838 617 l 5
 525 617 l 5
 545.214 606.893 565 545.512 565 507 c 6
 565 485 l 5
 559.771 464.084 556.764 416.654 507 370 c 5
 541.282 348.903 577 271.046 577 205 c 4
 577 110.362 515.024 -13 355 -13 c 4
 164.6 -13 117 250.267 117 392 c 4
 117 411.333 117.667 421.667 119 423 c 6
 148 434 l 5
 146.667 424 146 416 146 410 c 4
 143.333 383.333 142 362.667 142 348 c 4
 142 184.293 197.442 74 338 74 c 4
 413.33 74 518.435 126.315 535 205 c 4
 537.667 219 539 232 539 244 c 4
 539 277.333 529.667 306.333 511 331 c 5
 481 361 l 5
 475.155 358.662 437.353 343.967 424 341 c 6
 356 329 l 5
 327 413 l 5
 372.457 413.722 514.511 413.692 536 524 c 4
 537.333 533.333 538 540 538 544 c 4
EndSplineSet
EndChar

StartChar: u090A
Encoding: 2314 2314 132
Width: 700
GlyphClass: 2
Flags: HW
LayerCount: 2
Back
Fore
SplineSet
565 290 m 1
 575.333 262.594 577 233.527 577 205 c 0
 577 110.362 515.024 -13 355 -13 c 0
 164.6 -13 117 250.267 117 392 c 0
 117 411.333 117.667 421.667 119 423 c 2
 148 434 l 1
 146.667 424 146 416 146 410 c 0
 143.333 383.333 142 362.667 142 348 c 0
 142 184.293 197.442 74 338 74 c 0
 413.33 74 518.435 126.315 535 205 c 0
 537.667 219 539 232 539 244 c 0
 539 277.333 529.667 306.333 511 331 c 1
 481 361 l 1
 475.155 358.662 437.353 343.967 424 341 c 2
 356 329 l 1
 327 413 l 1
 372.457 413.722 514.511 413.692 536 524 c 0
 537.333 533.333 538 540 538 544 c 0
 538 555.502 536.098 592.322 499 622 c 1
 105 622 l 1
 117 685 l 1
 852 685 l 1
 838 617 l 1
 525 617 l 1
 545.214 606.893 565 545.512 565 507 c 2
 565 485 l 1
 559.771 464.084 556.764 416.654 507 370 c 1
 510.321 367.956 515.018 366.713 518.332 363.667 c 1
 565.175 417.673 615.399 446.898 664.384 446.898 c 0
 755.216 446.898 780 357.431 780 269 c 0
 780 140.48 661.46 2.70215 625 -19 c 1
 562 41 l 1
 622.868 87.6221 752.295 207.316 752.295 307.681 c 0
 752.295 366.642 730.004 380.022 698.28 380.022 c 0
 661.683 380.022 601.718 346.976 565 290 c 1
EndSplineSet
EndChar

StartChar: question
Encoding: 63 63 133
Width: 497
VWidth: 1024
Flags: HW
LayerCount: 2
Back
Fore
SplineSet
232.5 45 m 256
 232.5 37 231.083007812 29.3330078125 228.25 22 c 128
 225.416992188 14.6669921875 221.166992188 8.1669921875 215.5 2.5 c 128
 209.833007812 -3.1669921875 202.916992188 -7.75 194.75 -11.25 c 128
 186.583007812 -14.75 177.333007812 -16.5 167 -16.5 c 0
 156.333007812 -16.5 146.75 -14.8330078125 138.25 -11.5 c 128
 129.75 -8.1669921875 122.583007812 -3.6669921875 116.75 2 c 128
 110.916992188 7.6669921875 106.416992188 14.0830078125 103.25 21.25 c 128
 100.083007812 28.4169921875 98.5 36 98.5 44 c 256
 98.5 52 100.083007812 59.75 103.25 67.25 c 128
 106.416992188 74.75 110.916992188 81.4169921875 116.75 87.25 c 128
 122.583007812 93.0830078125 129.75 97.75 138.25 101.25 c 128
 146.75 104.75 156.333007812 106.5 167 106.5 c 0
 177.333007812 106.5 186.583007812 104.833007812 194.75 101.5 c 128
 202.916992188 98.1669921875 209.833007812 93.5830078125 215.5 87.75 c 128
 221.166992188 81.9169921875 225.416992188 75.3330078125 228.25 68 c 128
 231.083007812 60.6669921875 232.5 53 232.5 45 c 256
474 556 m 0
 474 521.666992188 467.083007812 490.916992188 453.25 463.75 c 128
 439.416992188 436.583007812 421.416992188 412.416992188 399.25 391.25 c 128
 377.083007812 370.083007812 352.083007812 351.583007812 324.25 335.75 c 128
 296.416992188 319.916992188 268.5 306.333007812 240.5 295 c 1
 217 173 l 1
 148.5 173 l 1
 176 325.5 l 1
 199.333007812 332.833007812 222.166992188 343.083007812 244.5 356.25 c 128
 266.833007812 369.416992188 286.75 385.25 304.25 403.75 c 128
 321.75 422.25 335.833007812 443.416992188 346.5 467.25 c 128
 357.166992188 491.083007812 362.5 517.333007812 362.5 546 c 0
 362.5 581 353 607.5 334 625.5 c 128
 315 643.5 289 652.5 256 652.5 c 1
 193.5 551 l 1
 164 551 l 2
 146.333007812 551 132.5 554.666992188 122.5 562 c 128
 112.5 569.333007812 107.5 579.666992188 107.5 593 c 0
 107.5 603 110.416992188 614.416992188 116.25 627.25 c 128
 122.083007812 640.083007812 132 652.083007812 146 663.25 c 128
 160 674.416992188 178.416992188 683.916992188 201.25 691.75 c 128
 224.083007812 699.583007812 252.5 703.5 286.5 703.5 c 0
 316.833007812 703.5 343.666992188 700.083007812 367 693.25 c 128
 390.333007812 686.416992188 409.916992188 676.583007812 425.75 663.75 c 128
 441.583007812 650.916992188 453.583007812 635.416992188 461.75 617.25 c 128
 469.916992188 599.083007812 474 578.666992188 474 556 c 0
EndSplineSet
EndChar

StartChar: u090B
Encoding: 2315 2315 134
Width: 473
GlyphClass: 2
Flags: HW
LayerCount: 2
Back
Fore
SplineSet
330 427 m 0
 297.32 427 160.693 375.682 156 373 c 1
 140 457 l 1
 312 496 l 1
 344.392 499.085 355.162 479.773 370 459 c 0
 388.667 432.333 407.333 402 426 368 c 0
 440.667 339.333 448.667 322.333 450 317 c 1
 514 619 l 1
 104 619 l 1
 116 682 l 1
 1042 682 l 1
 1030 617 l 1
 591 617 l 1
 527 318 l 1
 655 379 l 1
 649 388.333 646 400 646 414 c 0
 646 451.275 679.6 498 730 498 c 0
 760.4 498 768 475.9 768 458 c 0
 768 416.225 735.41 364 690 364 c 1
 762 208 l 1
 736.126 199.767 629.893 171.871 608 77 c 0
 607.333 73.6667 607 69 607 63 c 0
 607 29.6667 634.333 13 689 13 c 0
 724.6 13 752.4 26.4 778 52 c 1
 801 -29 l 1
 796.148 -33.8523 733.027 -59 688 -59 c 0
 615.327 -59 579 5.78125 579 74 c 0
 579 156.475 622.922 243.895 708 269 c 1
 669 357 l 1
 515 266 l 1
 448 -50 l 1
 384 10 l 1
 430 222 l 1
 155 67 l 1
 127 148 l 1
 442 279 l 1
 444 290 l 1
 359 413 l 2
 353.667 422.333 344 427 330 427 c 0
EndSplineSet
EndChar

StartChar: u0960
Encoding: 2400 2400 135
Width: 473
GlyphClass: 2
Flags: HW
LayerCount: 2
Back
Fore
SplineSet
646 61 m 1
 613.669 71.5263 570 88.6 570 130 c 1
 573.386 157.09 569.642 187.969 644 234 c 0
 658 242 679 252 707 264 c 1
 669 355 l 1
 515 264 l 1
 448 -52 l 1
 384 8 l 1
 430 220 l 1
 155 65 l 1
 127 146 l 1
 442 277 l 1
 444 288 l 1
 359 411 l 2
 353.667 420.333 344 425 330 425 c 0
 297.32 425 160.693 373.682 156 371 c 1
 140 455 l 1
 312 494 l 1
 344.392 497.085 355.162 477.773 370 457 c 0
 388.667 430.333 407.333 400 426 366 c 0
 440.667 337.333 448.667 320.333 450 315 c 1
 514 617 l 1
 104 617 l 1
 116 680 l 1
 1042 680 l 1
 1030 617 l 1
 591 617 l 1
 527 318 l 1
 655 379 l 1
 649 388.333 646 400 646 414 c 0
 646 451.275 679.6 498 730 498 c 0
 760.4 498 768 475.9 768 458 c 0
 768 416.225 735.41 364 690 364 c 1
 753 226 l 1
 679.531 202.91 623 173.8 623 139 c 0
 623 119.2 646.7 106 674 106 c 0
 691.977 106 716.376 112.845 734 129 c 1
 780 72 l 1
 718.744 44.0353 642.272 6.63116 636 -31 c 0
 630 -64.3333 647 -81 687 -81 c 0
 706.6 -81 740.473 -74.0314 785 -51 c 1
 811 -97 l 1
 756.581 -127.611 706.333 -134 688 -134 c 0
 607.688 -134 581 -80.275 581 -40 c 0
 581 -14.4637 590.505 29.0485 646 61 c 1
EndSplineSet
EndChar

StartChar: u090F
Encoding: 2319 2319 139
Width: 602
GlyphClass: 2
Flags: HW
LayerCount: 2
Back
Fore
SplineSet
835 617 m 1
 634 617 l 1
 571 321 l 2
 561.957 275.786 513.658 212 470 212 c 1
 410 262 l 1
 435.834 262 485.231 278.494 493 322 c 1
 556 618 l 1
 290 618 l 1
 205 217 l 1
 539 -23 l 1
 567 -39.6667 579.333 -64.6667 576 -98 c 1
 568.6 -148.323 496.53 -203.062 484 -213 c 1
 416 -135 l 2
 420.711 -140.888 540.015 -100.893 543 -80 c 0
 544.333 -72 544.167 -66 542.5 -62 c 130
 538 -51 l 1
 124 224 l 1
 207 620 l 1
 105 620 l 1
 117 683 l 1
 849 683 l 1
 835 617 l 1
EndSplineSet
EndChar

StartChar: u0915.half
Encoding: 65551 -1 140
Width: 536
GlyphClass: 3
Flags: HW
AnchorPoint: "N" 185 165 basechar 0
LayerCount: 2
Back
Fore
SplineSet
521 380 m 1
 546.944 409.65 577.206 430 670 430 c 2
 692 430 l 1
 674 355 l 1
 664 358.333 653 360 641 360 c 0
 583 360 523.842 320.033 496 267 c 1
 429 -49 l 1
 359 11 l 1
 398 200 l 1
 328.106 132.794 268.74 127 244 127 c 0
 165.976 127 106 202.749 106 285 c 0
 106 331.339 140.371 483 324 483 c 0
 340.512 483 360.167 482.416 365 480 c 1
 388 395 l 1
 382 401 362.333 404 329 404 c 0
 179.462 404 155 277.581 155 247 c 0
 155 200.6 197.456 189 217 189 c 0
 297.658 189 421.587 307.053 425 319 c 2
 488 615 l 1
 105 615 l 1
 117 678 l 1
 825 678 l 1
 813 615 l 1
 571 615 l 1
 521 380 l 1
EndSplineSet
Ligature2: "'half' Half Forms in Devanagari lookup 3 subtable" u0915 u094D
LCarets2: 1 2
EndChar

StartChar: u0958.half
Encoding: 65552 -1 141
Width: 536
GlyphClass: 3
Flags: HW
LayerCount: 2
Back
Fore
SplineSet
520 379 m 1
 545.944 408.65 576.206 429 669 429 c 2
 691 429 l 1
 675 352 l 1
 665 355.333 654 357 642 357 c 0
 584 357 524.842 317.033 497 264 c 1
 430 -52 l 1
 360 8 l 1
 399 197 l 1
 363.48 161.48 343.254 152.542 322 145 c 1
 26 -53 l 1
 -18 9 l 1
 203 132 l 1
 149.731 151.821 107 209.254 107 283 c 0
 107 380.8 176.376 482 323 482 c 0
 339.512 482 359.167 481.416 364 479 c 1
 387 394 l 1
 381 400 361.333 403 328 403 c 0
 178.462 403 154 276.581 154 246 c 0
 154 199.6 196.456 188 216 188 c 0
 296.658 188 420.587 306.053 424 318 c 2
 487 614 l 1
 104 614 l 1
 116 677 l 1
 782 677 l 1
 770 614 l 1
 570 614 l 1
 520 379 l 1
EndSplineSet
Ligature2: "'half' Half Forms in Devanagari lookup 3 subtable" u0958 u094D
EndChar

StartChar: u0915
Encoding: 2325 2325 142
Width: 536
GlyphClass: 2
Flags: HW
AnchorPoint: "N" 104 156 basechar 0
LayerCount: 2
Back
Fore
SplineSet
109 288 m 0
 109 371.932 158.2 509 355 509 c 0
 360.333 509 367 508.667 375 508 c 1
 397 427 l 1
 393.667 428.333 381.333 429 360 429 c 0
 182.652 429 148 314.58 148 255 c 0
 148 209.667 169.667 187 213 187 c 0
 253 187 301 210.333 357 257 c 0
 402.333 295 426.333 319.333 429 330 c 2
 490 617 l 1
 107 617 l 1
 119 680 l 1
 1020 680 l 1
 1005 617 l 1
 570 617 l 1
 520 379 l 1
 524.539 391.481 598.75 455 658 455 c 0
 722.154 455 782 375.444 782 281 c 0
 782 156.406 640.06 11.7486 609 -6 c 1
 552 48 l 1
 717.417 172.907 733 307.242 733 334 c 0
 733 362.667 714 377 676 377 c 0
 601.296 377 497.937 275.529 496 261 c 1
 431 -48 l 1
 361 12 l 1
 401 208 l 1
 357.792 158.833 301.4 111 235 111 c 0
 159.283 111 109 200.83 109 288 c 0
EndSplineSet
EndChar

StartChar: u0958
Encoding: 2392 2392 143
Width: 536
GlyphClass: 2
Flags: HW
LayerCount: 2
Back
Fore
SplineSet
109 288 m 0
 109 371.932 158.2 509 355 509 c 0
 360.333 509 367 508.667 375 508 c 1
 397 427 l 1
 393.667 428.333 381.333 429 360 429 c 0
 182.652 429 148 314.58 148 255 c 0
 148 209.667 169.667 187 213 187 c 0
 253 187 301 210.333 357 257 c 0
 402.333 295 426.333 319.333 429 330 c 2
 490 617 l 1
 107 617 l 1
 119 680 l 1
 1006 680 l 1
 991 617 l 1
 570 617 l 1
 520 379 l 1
 524.539 391.481 598.75 455 658 455 c 0
 722.154 455 782 375.444 782 281 c 0
 782 156.406 640.06 11.7486 609 -6 c 1
 552 48 l 1
 717.417 172.907 733 307.242 733 334 c 0
 733 362.667 714 377 676 377 c 0
 601.296 377 497.937 275.529 496 261 c 1
 431 -48 l 1
 361 12 l 1
 401 208 l 1
 357.792 158.833 301.4 111 235 111 c 0
 159.283 111 109 200.83 109 288 c 0
147 8 m 1
 72 -54 l 1
 23 14 l 1
 95 74 l 1
 147 8 l 1
EndSplineSet
EndChar

StartChar: u0915.vatu
Encoding: 65553 -1 144
Width: 536
GlyphClass: 3
Flags: HW
AnchorPoint: "N" 52 -108 basechar 0
LayerCount: 2
Back
Fore
SplineSet
377 435 m 0
 285.753 435 173 405.6 173 288 c 0
 173 229.6 219.775 215 254 215 c 1
 419 319 l 1
 482 615 l 1
 102 615 l 1
 114 678 l 1
 1015 678 l 1
 1005 617 l 1
 567 617 l 1
 518 388 l 1
 532.783 411.407 603.852 444 653 444 c 0
 722 444 768 365.91 768 270 c 0
 768 139.265 655.407 13.7098 620 -14 c 1
 553 46 l 1
 695.807 158.005 730 253.2 730 305 c 0
 730 354.6 689.65 367 655 367 c 0
 593.325 367 521.268 333.033 491 278 c 1
 423 -49 l 1
 353 0 l 1
 404 243 l 1
 71 11 l 1
 35 82 l 1
 219 194 l 1
 189.491 206.295 113 238.87 113 319 c 0
 113 370.433 141.26 451.097 248 487 c 0
 302.667 505.667 340 512 360 506 c 1
 399 434 l 2
 398.333 434.667 391 435 377 435 c 0
EndSplineSet
Ligature2: "'vatu' Vattu Variants in Devanagari lookup 4 subtable" u0915 u0930.sub
LCarets2: 1 0
EndChar

StartChar: u0915_u094D_u0924
Encoding: 65554 -1 145
Width: 634
GlyphClass: 2
Flags: HW
LayerCount: 2
Back
Fore
SplineSet
153 264 m 0
 153 354.011 212.571 381.062 265 404 c 1
 118 402 l 1
 117 476 l 1
 541 476 l 1
 571 620 l 1
 108 620 l 1
 120 683 l 1
 1126 683 l 1
 1110 617 l 1
 649 617 l 1
 612 440 l 1
 638.764 453.843 702.6 476 763 476 c 0
 825.611 476 904 407.553 904 317 c 0
 904 213.543 766.84 10.4201 748 1 c 1
 681 58 l 1
 849.292 226.292 852 305.683 852 355 c 0
 852 379 846.5 393.667 835.5 399 c 128
 824.5 404.333 801 407 765 407 c 0
 700.808 407 595.079 347.816 589 340 c 1
 508 -47 l 1
 440 13 l 1
 522 400 l 1
 380 400 l 2
 336.498 400 229 351.103 229 194 c 0
 229 96.1357 286.804 2.18001 323 -8 c 1
 298 -22 l 1
 288.667 -22 264 8.33333 224 69 c 0
 176.667 141.667 153 206.667 153 264 c 0
EndSplineSet
EndChar

StartChar: u0915_u094D_u0937.half
Encoding: 65556 -1 147
Width: 424
GlyphClass: 3
Flags: HW
AnchorPoint: "N" 124 108 basechar 0
LayerCount: 2
Back
Fore
SplineSet
649 617 m 1
 539 617 l 1
 532 680 l 1
 662 680 l 1
 649 617 l 1
371 414 m 1
 384.376 403.968 407.4 396 462 396 c 0
 496.2 396 550.205 404.958 633 457 c 1
 608 350 l 1
 571.196 341.237 536.073 335 498 335 c 0
 439.2 335 370.603 382.523 351 396 c 1
 285.164 361.947 152 285.208 152 181 c 0
 152 152.8 167.523 134 213 134 c 0
 251.207 134 290.86 149 293 149 c 1
 292.333 156.333 292 161.667 292 165 c 0
 292 206.6 306.4 251 364 251 c 0
 402.667 251 422 232 422 194 c 0
 422 118.86 351.086 87.2411 336 80 c 1
 403 -43 l 1
 357 -65 l 1
 315 75 l 1
 295 70.3333 277.667 68 263 68 c 0
 171.172 68 100 126.643 100 224 c 0
 100 285.826 122.465 337.197 206 397 c 0
 252 430.333 281.333 447 294 447 c 1
 282 447 263.667 457.667 239 479 c 0
 205.667 507 189 539 189 575 c 0
 189 676.51 292.114 697 338 697 c 0
 416.222 697 491 642.035 491 563 c 0
 491 519 466.082 484.784 429 453 c 0
 402.333 429.667 383 416.667 371 414 c 1
309 456 m 1
 414.038 517.272 429 551.321 429 606 c 0
 429 630.971 422.442 647.163 378 654 c 0
 310.122 665.879 255 601.868 255 537 c 0
 255 488.4 290.382 466.779 309 456 c 1
EndSplineSet
Ligature2: "'half' Half Forms in Devanagari lookup 3 subtable" u0915_u094D_u0937 u094D
LCarets2: 1 0
EndChar

StartChar: u0916.half
Encoding: 65557 -1 149
Width: 536
GlyphClass: 3
Flags: HW
AnchorPoint: "N" 130 125 basechar 0
LayerCount: 2
Back
Fore
SplineSet
611 447 m 0
 536.194 447 433 402.208 433 303 c 0
 433 261.667 464 241 526 241 c 0
 583.883 241 665.703 292.551 714 324 c 1
 693 226 l 1
 647.056 188.67 590.6 171 547 171 c 0
 465.979 171 398 223.369 398 314 c 2
 398 330.5 l 130
 398 330.501 401.323 422.882 479.5 475 c 128
 520.5 502.333 565 516 613 516 c 0
 633 516 652.333 513.333 671 508 c 1
 689 425 l 1
 670.333 439.667 644.333 447 611 447 c 0
345 615 m 1
 346.965 613.035 350 575 350 565 c 0
 350 518.8 328.205 406.078 271 334 c 0
 251.667 309.333 218 285 170 261 c 1
 170 209 193 159.333 239 112 c 0
 282.333 67.3333 339 45 409 45 c 0
 522.281 45 635.4 87.4 669 121 c 1
 665 95 l 1
 643.349 81.2532 488.6 -24 371 -24 c 0
 298.333 -24 238.667 23.3333 192 118 c 0
 154 195.333 135 272 135 348 c 0
 135 401.573 147.4 411 166 411 c 2
 238 411 l 1
 281 615 l 1
 104 615 l 1
 116 678 l 1
 788 678 l 1
 776 615 l 1
 345 615 l 1
EndSplineSet
Ligature2: "'half' Half Forms in Devanagari lookup 3 subtable" u0916 u094D
LCarets2: 1 0
EndChar

StartChar: u0959.half
Encoding: 65558 -1 151
Width: 536
GlyphClass: 3
Flags: HW
LayerCount: 2
Back
Fore
SplineSet
611 447 m 0
 536.194 447 433 402.208 433 303 c 0
 433 261.667 464 241 526 241 c 0
 583.883 241 665.703 292.551 714 324 c 1
 693 226 l 1
 647.056 188.67 590.6 171 547 171 c 0
 465.979 171 398 223.369 398 314 c 2
 398 330.5 l 130
 398 330.501 401.323 422.882 479.5 475 c 128
 520.5 502.333 565 516 613 516 c 0
 633 516 652.333 513.333 671 508 c 1
 689 425 l 1
 670.333 439.667 644.333 447 611 447 c 0
345 615 m 1
 346.965 613.035 350 575 350 565 c 0
 350 518.8 328.205 406.078 271 334 c 0
 251.667 309.333 218 285 170 261 c 1
 170 209 193 159.333 239 112 c 0
 282.333 67.3333 339 45 409 45 c 0
 522.281 45 635.4 87.4 669 121 c 1
 665 95 l 1
 643.349 81.2532 488.6 -24 371 -24 c 0
 298.333 -24 238.667 23.3333 192 118 c 0
 154 195.333 135 272 135 348 c 0
 135 401.573 147.4 411 166 411 c 2
 238 411 l 1
 281 615 l 1
 104 615 l 1
 116 678 l 1
 788 678 l 1
 776 615 l 1
 345 615 l 1
146 23 m 1
 71 -39 l 1
 23 29 l 1
 95 89 l 1
 146 23 l 1
EndSplineSet
Ligature2: "'half' Half Forms in Devanagari lookup 3 subtable" u0959 u094D
EndChar

StartChar: u0916.half.vatu
Encoding: 65560 -1 153
Width: 536
GlyphClass: 3
Flags: HW
LayerCount: 2
Back
Fore
SplineSet
611 447 m 0
 536.194 447 433 402.208 433 303 c 0
 433 261.667 464 241 526 241 c 0
 583.883 241 665.703 292.551 714 324 c 1
 693 226 l 1
 647.056 188.67 590.6 171 547 171 c 0
 465.979 171 398 223.369 398 314 c 2
 398 330.5 l 130
 398 330.501 401.323 422.882 479.5 475 c 128
 520.5 502.333 565 516 613 516 c 0
 633 516 652.333 513.333 671 508 c 1
 689 425 l 1
 670.333 439.667 644.333 447 611 447 c 0
346 614 m 1
 347.965 612.035 351 574 351 564 c 0
 351 517.8 329.205 405.078 272 333 c 0
 252.667 308.333 219 284 171 260 c 1
 171 208 194 158.333 240 111 c 0
 283.333 66.3333 340 44 410 44 c 0
 517.229 44 610.69 91.9682 677 127 c 1
 666 73 l 1
 311 -165 l 1
 267 -102 l 1
 411 -23 l 1
 372 -25 l 1
 299.333 -25 239.667 22.3333 193 117 c 0
 155 194.333 136 271 136 347 c 0
 136 400.573 148.4 410 167 410 c 2
 239 410 l 1
 282 614 l 1
 105 614 l 1
 117 677 l 1
 789 677 l 1
 777 614 l 1
 346 614 l 1
EndSplineSet
Ligature2: "'vatu' Vattu Variants in Devanagari lookup 4 subtable" u0916.half u0930.sub
LCarets2: 1 0
EndChar

StartChar: u0917.half
Encoding: 65561 -1 156
Width: 341
GlyphClass: 3
Flags: HW
AnchorPoint: "N" 25 430 basechar 0
LayerCount: 2
Back
Fore
SplineSet
565 617 m 1
 356 617 l 1
 281 260 l 2
 277.667 247.333 268.667 241 254 241 c 0
 233.754 239.65 131.18 352.623 134 378 c 1
 137.333 392 144.333 399 155 399 c 2
 231 399 l 1
 277 617 l 1
 104 617 l 1
 116 680 l 1
 577 680 l 1
 565 617 l 1
EndSplineSet
Ligature2: "'half' Half Forms in Devanagari lookup 3 subtable" u0917 u094D
LCarets2: 1 0
EndChar

StartChar: u095A.half
Encoding: 65562 -1 158
Width: 341
GlyphClass: 3
Flags: HW
LayerCount: 2
Back
Fore
SplineSet
565 617 m 1
 356 617 l 1
 281 260 l 2
 277.667 247.333 268.667 241 254 241 c 0
 233.754 239.65 131.18 352.623 134 378 c 1
 137.333 392 144.333 399 155 399 c 2
 231 399 l 1
 277 617 l 1
 104 617 l 1
 116 680 l 1
 577 680 l 1
 565 617 l 1
216 22 m 1
 141 -40 l 1
 93 28 l 1
 165 88 l 1
 216 22 l 1
EndSplineSet
Ligature2: "'half' Half Forms in Devanagari lookup 3 subtable" u095A u094D
EndChar

StartChar: u0917.half.vatu
Encoding: 65564 -1 160
Width: 341
GlyphClass: 3
Flags: HW
LayerCount: 2
Back
Fore
SplineSet
565 617 m 1
 356 617 l 1
 281 260 l 2
 277.667 247.333 268.667 241 254 241 c 0
 233.754 239.65 131.18 352.623 134 378 c 1
 137.333 392 144.333 399 155 399 c 2
 231 399 l 1
 277 617 l 1
 104 617 l 1
 116 680 l 1
 577 680 l 1
 565 617 l 1
481 129 m 1
 124 -108 l 1
 81 -46 l 1
 492 183 l 1
 481 129 l 1
EndSplineSet
Ligature2: "'vatu' Vattu Variants in Devanagari lookup 4 subtable" u0917.half u0930.sub
EndChar

StartChar: u0918.half
Encoding: 65565 -1 162
Width: 341
GlyphClass: 3
Flags: HW
AnchorPoint: "N" 110 305 basechar 0
LayerCount: 2
Back
Fore
SplineSet
183 230 m 0
 183 184.005 208.852 175 294 175 c 0
 372.224 175 491.036 243.06 505 266 c 1
 484 172 l 1
 471.323 155.098 361.842 102 304 102 c 0
 238.389 102 131 176.866 131 277 c 0
 131 364 202.771 402.282 244 422 c 1
 163 500 l 1
 188 614 l 1
 106 614 l 1
 118 677 l 1
 593 677 l 1
 581 614 l 1
 268 614 l 1
 238 473 l 1
 270 430 l 1
 320.548 438.042 345.145 442 381 442 c 1
 411 372 l 1
 346.228 371.075 183 374.432 183 230 c 0
EndSplineSet
Ligature2: "'half' Half Forms in Devanagari lookup 3 subtable" u0918 u094D
LCarets2: 1 0
EndChar

StartChar: u0918.half.vatu
Encoding: 65567 -1 164
Width: 341
GlyphClass: 3
Flags: HW
LayerCount: 2
Back
Fore
SplineSet
181 227 m 0
 181 181.005 206.852 172 292 172 c 0
 370.224 172 489.036 240.06 503 263 c 1
 484 172 l 1
 139 -46 l 1
 96 16 l 1
 262 108 l 1
 191.914 133.125 129 195.744 129 274 c 0
 129 361 200.771 399.282 242 419 c 1
 161 497 l 1
 186 611 l 1
 104 611 l 1
 116 674 l 1
 591 674 l 1
 579 611 l 1
 266 611 l 1
 236 470 l 1
 268 427 l 1
 318.548 435.042 343.145 439 379 439 c 1
 409 369 l 1
 344.228 368.075 181 371.432 181 227 c 0
EndSplineSet
Ligature2: "'vatu' Vattu Variants in Devanagari lookup 4 subtable" u0918.half u0930.sub
EndChar

StartChar: u0919
Encoding: 2329 2329 165
Width: 453
GlyphClass: 2
Flags: HW
AnchorPoint: "N" 160 125 basechar 0
LayerCount: 2
Back
Fore
SplineSet
681 378 m 1
 603 315 l 1
 549 379 l 1
 631 444 l 1
 681 378 l 1
420 272 m 0
 376.772 272 326.158 263.089 276 235 c 1
 259.872 235 162.277 387.625 175 447 c 0
 182.12 476.37 209 526 260 526 c 2
 457 526 l 1
 478 621 l 1
 103 621 l 1
 115 684 l 1
 866 684 l 1
 855 616 l 1
 547 616 l 1
 512 453 l 1
 291 453 l 2
 241.411 453 233.288 439.607 226 399 c 0
 225.333 396.333 225 392 225 386 c 0
 225 357.6 240.284 328.39 252 315 c 1
 260.838 322.733 346.272 352 388 352 c 0
 488.45 352 519 295.5 519 236 c 0
 519 132.889 442.897 7 299 7 c 0
 237.667 7 181 41 129 109 c 0
 85.6667 166.333 66.3333 203.667 71 221 c 1
 87 232 l 1
 103 187 l 1
 136.333 125.667 196.333 95 283 95 c 0
 367.822 95 492 131.173 492 218 c 0
 492 254 468 272 420 272 c 0
EndSplineSet
EndChar

StartChar: u091A.half
Encoding: 65568 -1 167
Width: 407
GlyphClass: 3
Flags: HW
AnchorPoint: "N" 120 250 basechar 0
LayerCount: 2
Back
Fore
SplineSet
645 617 m 1
 104 617 l 1
 116 680 l 1
 657 680 l 1
 645 617 l 1
237 225 m 0
 237 176.2 279.911 164 355 164 c 0
 449.571 164 554.561 235.237 574 269 c 1
 548 150 l 1
 504.516 117.387 447.8 94 381 94 c 0
 260.625 94 177 158.8 177 256 c 0
 177 332.243 224.156 386.97 276 422 c 1
 139 422 l 1
 125 490 l 1
 507 490 l 1
 525 422 l 1
 411 422 l 2
 395.328 422 259.462 339.123 242 262 c 0
 238.667 243.333 237 231 237 225 c 0
EndSplineSet
Ligature2: "'half' Half Forms in Devanagari lookup 3 subtable" u091A u094D
LCarets2: 1 0
EndChar

StartChar: u091A.half.vatu
Encoding: 65570 -1 169
Width: 407
GlyphClass: 3
Flags: HW
LayerCount: 2
Back
Fore
SplineSet
235 224 m 0
 235 175.2 277.911 163 353 163 c 0
 447.571 163 552.561 234.237 572 268 c 1
 547 148 l 1
 520.333 126.667 490.333 111 457 101 c 1
 172 -89 l 1
 128 -27 l 1
 341 93 l 1
 251.302 107.095 175 166.634 175 256 c 0
 175 292.815 187.293 362.414 274 421 c 1
 137 421 l 1
 123 489 l 1
 505 489 l 1
 523 421 l 1
 409 421 l 2
 393.328 421 257.462 338.123 240 261 c 0
 236.667 242.333 235 230 235 224 c 0
660 615 m 1
 105 615 l 1
 117 678 l 1
 672 678 l 1
 660 615 l 1
EndSplineSet
Ligature2: "'vatu' Vattu Variants in Devanagari lookup 4 subtable" u091A.half u0930.sub
EndChar

StartChar: u091B
Encoding: 2331 2331 170
Width: 667
GlyphClass: 2
Flags: HW
AnchorPoint: "N" 95 100 basechar 0
LayerCount: 2
Back
Fore
SplineSet
108 207 m 0
 108 301.829 170.086 340.675 237 377 c 1
 172 474 l 1
 202 615 l 1
 106 615 l 1
 118 678 l 1
 910 678 l 1
 896 617 l 1
 649 617 l 1
 628 522 l 1
 651.333 504.667 663.667 495.333 665 494 c 0
 688.333 467.333 700 430.667 700 384 c 0
 700 257.613 612.575 -5.4243e-18 352 0 c 0
 230.139 0 108 86.3 108 207 c 0
584 461 m 0
 528.072 461 494 377.405 494 313 c 0
 494 233.769 548.324 206.723 584 190 c 1
 613.034 233.551 662 329.759 662 389 c 0
 662 446.6 624.641 461 584 461 c 0
158 166 m 0
 158 76.4 244.325 54 308 54 c 0
 399.036 54 512.186 93.2345 571 175 c 1
 551.667 182.333 536.667 188.667 526 194 c 0
 459.333 231.333 426 280.667 426 342 c 0
 426 446.691 509.4 523 565 523 c 1
 584 615 l 1
 277 615 l 1
 237 425 l 1
 255 386 l 1
 268.977 386 304.26 400 319 400 c 1
 356 335 l 1
 322 335 281 321 233 293 c 0
 188.219 265.977 158 232.453 158 166 c 0
EndSplineSet
EndChar

StartChar: u091C.half
Encoding: 65571 -1 174
Width: 470
GlyphClass: 3
Flags: HW
AnchorPoint: "N" 130 275 basechar 0
LayerCount: 2
Back
Fore
SplineSet
725 617 m 1
 104 617 l 1
 116 680 l 1
 737 680 l 1
 725 617 l 1
394 320 m 0
 394 370.501 378.219 412.561 348 456 c 1
 658 456 l 1
 646 385 l 1
 414 385 l 1
 422.526 358.356 436 296.873 436 265 c 0
 436 232.8 416.137 104 287 104 c 0
 223 104 173.333 154.667 138 256 c 0
 106.667 346 96 398 106 412 c 1
 132 423 l 1
 132.667 371 136 332.667 142 308 c 0
 162 230.667 204.667 192 270 192 c 0
 323.925 192 394 217.6 394 320 c 0
EndSplineSet
Ligature2: "'half' Half Forms in Devanagari lookup 3 subtable" u091C u094D
LCarets2: 1 5
EndChar

